G75*
G70*
%OFA0B0*%
%FSLAX24Y24*%
%IPPOS*%
%LPD*%
%AMOC8*
5,1,8,0,0,1.08239X$1,22.5*
%
%ADD10C,0.0000*%
%ADD11R,0.0138X0.0631*%
%ADD12R,0.0631X0.0138*%
%ADD13C,0.0600*%
%ADD14R,0.0465X0.0453*%
%ADD15C,0.0594*%
%ADD16R,0.1024X0.0827*%
%ADD17R,0.1024X0.0237*%
%ADD18R,0.0520X0.0920*%
%ADD19R,0.1457X0.0906*%
%ADD20R,0.0827X0.0906*%
%ADD21R,0.0670X0.0552*%
%ADD22R,0.0552X0.0670*%
%ADD23R,0.0453X0.0465*%
%ADD24R,0.2040X0.0740*%
%ADD25R,0.0434X0.0473*%
%ADD26R,0.0473X0.0434*%
%ADD27R,0.0290X0.0590*%
%ADD28R,0.2914X0.0946*%
%ADD29R,0.0700X0.0740*%
%ADD30R,0.1201X0.1103*%
%ADD31C,0.0780*%
%ADD32R,0.0780X0.0780*%
%ADD33C,0.1300*%
%ADD34R,0.0331X0.1064*%
%ADD35R,0.0847X0.1182*%
%ADD36R,0.0631X0.0434*%
%ADD37R,0.0512X0.0512*%
%ADD38R,0.0640X0.0340*%
%ADD39R,0.0640X0.0440*%
%ADD40R,0.0840X0.0640*%
%ADD41R,0.0640X0.0640*%
%ADD42C,0.0390*%
D10*
X004202Y003014D02*
X004202Y022699D01*
X023887Y022699D01*
X023887Y003014D01*
X004202Y003014D01*
X004460Y012699D02*
X004462Y012725D01*
X004468Y012751D01*
X004477Y012775D01*
X004490Y012798D01*
X004507Y012818D01*
X004526Y012836D01*
X004548Y012851D01*
X004571Y012862D01*
X004596Y012870D01*
X004622Y012874D01*
X004648Y012874D01*
X004674Y012870D01*
X004699Y012862D01*
X004723Y012851D01*
X004744Y012836D01*
X004763Y012818D01*
X004780Y012798D01*
X004793Y012775D01*
X004802Y012751D01*
X004808Y012725D01*
X004810Y012699D01*
X004808Y012673D01*
X004802Y012647D01*
X004793Y012623D01*
X004780Y012600D01*
X004763Y012580D01*
X004744Y012562D01*
X004722Y012547D01*
X004699Y012536D01*
X004674Y012528D01*
X004648Y012524D01*
X004622Y012524D01*
X004596Y012528D01*
X004571Y012536D01*
X004547Y012547D01*
X004526Y012562D01*
X004507Y012580D01*
X004490Y012600D01*
X004477Y012623D01*
X004468Y012647D01*
X004462Y012673D01*
X004460Y012699D01*
X004460Y015849D02*
X004462Y015875D01*
X004468Y015901D01*
X004477Y015925D01*
X004490Y015948D01*
X004507Y015968D01*
X004526Y015986D01*
X004548Y016001D01*
X004571Y016012D01*
X004596Y016020D01*
X004622Y016024D01*
X004648Y016024D01*
X004674Y016020D01*
X004699Y016012D01*
X004723Y016001D01*
X004744Y015986D01*
X004763Y015968D01*
X004780Y015948D01*
X004793Y015925D01*
X004802Y015901D01*
X004808Y015875D01*
X004810Y015849D01*
X004808Y015823D01*
X004802Y015797D01*
X004793Y015773D01*
X004780Y015750D01*
X004763Y015730D01*
X004744Y015712D01*
X004722Y015697D01*
X004699Y015686D01*
X004674Y015678D01*
X004648Y015674D01*
X004622Y015674D01*
X004596Y015678D01*
X004571Y015686D01*
X004547Y015697D01*
X004526Y015712D01*
X004507Y015730D01*
X004490Y015750D01*
X004477Y015773D01*
X004468Y015797D01*
X004462Y015823D01*
X004460Y015849D01*
X016037Y004392D02*
X016039Y004442D01*
X016045Y004492D01*
X016055Y004541D01*
X016069Y004589D01*
X016086Y004636D01*
X016107Y004681D01*
X016132Y004725D01*
X016160Y004766D01*
X016192Y004805D01*
X016226Y004842D01*
X016263Y004876D01*
X016303Y004906D01*
X016345Y004933D01*
X016389Y004957D01*
X016435Y004978D01*
X016482Y004994D01*
X016530Y005007D01*
X016580Y005016D01*
X016629Y005021D01*
X016680Y005022D01*
X016730Y005019D01*
X016779Y005012D01*
X016828Y005001D01*
X016876Y004986D01*
X016922Y004968D01*
X016967Y004946D01*
X017010Y004920D01*
X017051Y004891D01*
X017090Y004859D01*
X017126Y004824D01*
X017158Y004786D01*
X017188Y004746D01*
X017215Y004703D01*
X017238Y004659D01*
X017257Y004613D01*
X017273Y004565D01*
X017285Y004516D01*
X017293Y004467D01*
X017297Y004417D01*
X017297Y004367D01*
X017293Y004317D01*
X017285Y004268D01*
X017273Y004219D01*
X017257Y004171D01*
X017238Y004125D01*
X017215Y004081D01*
X017188Y004038D01*
X017158Y003998D01*
X017126Y003960D01*
X017090Y003925D01*
X017051Y003893D01*
X017010Y003864D01*
X016967Y003838D01*
X016922Y003816D01*
X016876Y003798D01*
X016828Y003783D01*
X016779Y003772D01*
X016730Y003765D01*
X016680Y003762D01*
X016629Y003763D01*
X016580Y003768D01*
X016530Y003777D01*
X016482Y003790D01*
X016435Y003806D01*
X016389Y003827D01*
X016345Y003851D01*
X016303Y003878D01*
X016263Y003908D01*
X016226Y003942D01*
X016192Y003979D01*
X016160Y004018D01*
X016132Y004059D01*
X016107Y004103D01*
X016086Y004148D01*
X016069Y004195D01*
X016055Y004243D01*
X016045Y004292D01*
X016039Y004342D01*
X016037Y004392D01*
X020537Y004392D02*
X020539Y004442D01*
X020545Y004492D01*
X020555Y004541D01*
X020569Y004589D01*
X020586Y004636D01*
X020607Y004681D01*
X020632Y004725D01*
X020660Y004766D01*
X020692Y004805D01*
X020726Y004842D01*
X020763Y004876D01*
X020803Y004906D01*
X020845Y004933D01*
X020889Y004957D01*
X020935Y004978D01*
X020982Y004994D01*
X021030Y005007D01*
X021080Y005016D01*
X021129Y005021D01*
X021180Y005022D01*
X021230Y005019D01*
X021279Y005012D01*
X021328Y005001D01*
X021376Y004986D01*
X021422Y004968D01*
X021467Y004946D01*
X021510Y004920D01*
X021551Y004891D01*
X021590Y004859D01*
X021626Y004824D01*
X021658Y004786D01*
X021688Y004746D01*
X021715Y004703D01*
X021738Y004659D01*
X021757Y004613D01*
X021773Y004565D01*
X021785Y004516D01*
X021793Y004467D01*
X021797Y004417D01*
X021797Y004367D01*
X021793Y004317D01*
X021785Y004268D01*
X021773Y004219D01*
X021757Y004171D01*
X021738Y004125D01*
X021715Y004081D01*
X021688Y004038D01*
X021658Y003998D01*
X021626Y003960D01*
X021590Y003925D01*
X021551Y003893D01*
X021510Y003864D01*
X021467Y003838D01*
X021422Y003816D01*
X021376Y003798D01*
X021328Y003783D01*
X021279Y003772D01*
X021230Y003765D01*
X021180Y003762D01*
X021129Y003763D01*
X021080Y003768D01*
X021030Y003777D01*
X020982Y003790D01*
X020935Y003806D01*
X020889Y003827D01*
X020845Y003851D01*
X020803Y003878D01*
X020763Y003908D01*
X020726Y003942D01*
X020692Y003979D01*
X020660Y004018D01*
X020632Y004059D01*
X020607Y004103D01*
X020586Y004148D01*
X020569Y004195D01*
X020555Y004243D01*
X020545Y004292D01*
X020539Y004342D01*
X020537Y004392D01*
D11*
X017785Y013004D03*
X017588Y013004D03*
X017391Y013004D03*
X017194Y013004D03*
X016997Y013004D03*
X016801Y013004D03*
X016604Y013004D03*
X016407Y013004D03*
X016210Y013004D03*
X016013Y013004D03*
X015816Y013004D03*
X015619Y013004D03*
X015423Y013004D03*
X015226Y013004D03*
X015029Y013004D03*
X014832Y013004D03*
X014832Y017532D03*
X015029Y017532D03*
X015226Y017532D03*
X015423Y017532D03*
X015619Y017532D03*
X015816Y017532D03*
X016013Y017532D03*
X016210Y017532D03*
X016407Y017532D03*
X016604Y017532D03*
X016801Y017532D03*
X016997Y017532D03*
X017194Y017532D03*
X017391Y017532D03*
X017588Y017532D03*
X017785Y017532D03*
D12*
X018572Y016744D03*
X018572Y016547D03*
X018572Y016351D03*
X018572Y016154D03*
X018572Y015957D03*
X018572Y015760D03*
X018572Y015563D03*
X018572Y015366D03*
X018572Y015170D03*
X018572Y014973D03*
X018572Y014776D03*
X018572Y014579D03*
X018572Y014382D03*
X018572Y014185D03*
X018572Y013988D03*
X018572Y013792D03*
X014045Y013792D03*
X014045Y013988D03*
X014045Y014185D03*
X014045Y014382D03*
X014045Y014579D03*
X014045Y014776D03*
X014045Y014973D03*
X014045Y015170D03*
X014045Y015366D03*
X014045Y015563D03*
X014045Y015760D03*
X014045Y015957D03*
X014045Y016154D03*
X014045Y016351D03*
X014045Y016547D03*
X014045Y016744D03*
D13*
X006466Y004884D03*
X006466Y004097D03*
D14*
X007745Y021075D03*
X007745Y021764D03*
X008681Y021764D03*
X008681Y021075D03*
X009616Y021075D03*
X009616Y021764D03*
X010551Y021764D03*
X010551Y021075D03*
X011486Y021075D03*
X011486Y021764D03*
D15*
X006072Y008998D03*
X006072Y007266D03*
D16*
X007057Y006400D03*
X004891Y006360D03*
X004891Y009904D03*
X007057Y009904D03*
D17*
X007057Y008762D03*
X007057Y008447D03*
X007057Y008132D03*
X007057Y007817D03*
X007057Y007502D03*
D18*
X010129Y010238D03*
X011039Y010238D03*
X011949Y010238D03*
D19*
X011039Y012678D03*
D20*
X007057Y018368D03*
X005875Y018368D03*
D21*
X011566Y019272D03*
X011566Y020059D03*
D22*
X020787Y016597D03*
X021574Y016597D03*
X013569Y009495D03*
X012781Y009495D03*
D23*
X017088Y011028D03*
X017777Y011028D03*
X020738Y010986D03*
X021427Y010986D03*
D24*
X021391Y009658D03*
X017591Y009658D03*
D25*
X014052Y013042D03*
X013383Y013042D03*
X013592Y010494D03*
X012923Y010494D03*
X019763Y017729D03*
X020432Y017729D03*
X020844Y015382D03*
X021513Y015382D03*
X009310Y018368D03*
X008641Y018368D03*
D26*
X006220Y020986D03*
X006220Y021656D03*
X012793Y019955D03*
X012793Y019286D03*
X012667Y013880D03*
X012667Y013211D03*
X009233Y010540D03*
X009233Y009870D03*
X008060Y009918D03*
X008060Y010587D03*
X022052Y020039D03*
X022052Y020709D03*
X022052Y021509D03*
X022052Y022179D03*
X022657Y016636D03*
X022657Y015967D03*
D27*
X009480Y007469D03*
X008980Y007469D03*
X008480Y007469D03*
X007980Y007469D03*
X007980Y005449D03*
X008480Y005449D03*
X008980Y005449D03*
X009480Y005449D03*
D28*
X013553Y003752D03*
X013553Y008477D03*
D29*
X010501Y007209D03*
X010501Y005659D03*
D30*
X010747Y003998D03*
X008090Y003998D03*
X008484Y008673D03*
X011141Y008673D03*
D31*
X013062Y011831D03*
X014062Y011831D03*
X015210Y011872D03*
X016210Y011872D03*
X017667Y007892D03*
X018667Y007892D03*
X019667Y007892D03*
X020667Y007892D03*
X020167Y006892D03*
X019167Y006892D03*
X018167Y006892D03*
X023100Y006801D03*
X023100Y005801D03*
X023100Y004801D03*
X023100Y007801D03*
X023100Y008801D03*
X023100Y009801D03*
X023100Y010801D03*
D32*
X017167Y006892D03*
X023100Y003801D03*
D33*
X021167Y004392D03*
X016667Y004392D03*
D34*
X016809Y020104D03*
X017309Y020104D03*
X016309Y020104D03*
X015809Y020104D03*
X015309Y020104D03*
X015309Y021679D03*
X015809Y021679D03*
X016309Y021679D03*
X016809Y021679D03*
X017309Y021679D03*
D35*
X022805Y018565D03*
X022608Y012660D03*
X015423Y010150D03*
D36*
X014625Y010524D03*
X014625Y009776D03*
X021810Y012286D03*
X021810Y013034D03*
X022007Y018191D03*
X022007Y018939D03*
D37*
X022962Y019961D03*
X022962Y020787D03*
X022962Y021361D03*
X022962Y022187D03*
X005432Y021734D03*
X005432Y020908D03*
D38*
X008927Y016557D03*
X008927Y016124D03*
X008927Y015691D03*
X008927Y015258D03*
X008927Y014825D03*
X008927Y014392D03*
X008927Y013959D03*
X008927Y013526D03*
X008927Y013093D03*
D39*
X008690Y017087D03*
D40*
X004843Y016951D03*
X004843Y010888D03*
D41*
X008772Y011210D03*
D42*
X004635Y012699D03*
X004635Y015849D03*
M02*
