%
M48
M72
T01C0.0120
T02C0.0236
T03C0.0240
T04C0.0315
T05C0.0350
T06C0.0354
T07C0.0394
T08C0.0400
T09C0.1260
%
T01
X9452Y13374
X9452Y13864
X10502Y14914
X10082Y15404
X9522Y15614
X9592Y16594
X9172Y17014
X8052Y16314
X8262Y16034
X8402Y14914
X12042Y18834
X13302Y17224
X13512Y16314
X13512Y15614
X14562Y15754
X15122Y15614
X14912Y15194
X15332Y14844
X14632Y14634
X14632Y14284
X14632Y13934
X14072Y13444
X15612Y12324
X15822Y13514
X16032Y14634
X16592Y16244
X16382Y16804
X15612Y16804
X15472Y18204
X15262Y18554
X15052Y18834
X14842Y19114
X15542Y18904
X17152Y18694
X17642Y18064
X17152Y17014
X17222Y16454
X19112Y15754
X19532Y16734
X19882Y16594
X20302Y16594
X20162Y15404
X20932Y13794
X20302Y13374
X20932Y13164
X21282Y12324
X20722Y11904
X18482Y12954
X17432Y12254
X17152Y12464
X17572Y11484
X20372Y18134
X21562Y20024
X21702Y21074
X23382Y21284
X17922Y19744
X17712Y19394
X13862Y18204
T02
X9763Y12463
X10712Y7844
X14562Y9314
X15542Y8194
X15542Y7844
T03
X15521Y8723
X9320Y8231
X6269Y8231
X8484Y4933
T04
X6466Y4097
X6466Y4884
T05
X4635Y12699
X4635Y15849
T06
X6072Y8998
X6072Y7266
X7142Y4134
X11692Y4134
T07
X17167Y6892
X18167Y6892
X19167Y6892
X20167Y6892
X20667Y7892
X19667Y7892
X18667Y7892
X17667Y7892
T08
X16210Y11872
X15210Y11872
X14062Y11831
X13062Y11831
X23100Y10801
X23100Y9801
X23100Y8801
X23100Y7801
X23100Y6801
X23100Y5801
X23100Y4801
X23100Y3801
T09
X21167Y4392
X16667Y4392
M30
