G75*
G70*
%OFA0B0*%
%FSLAX24Y24*%
%IPPOS*%
%LPD*%
%AMOC8*
5,1,8,0,0,1.08239X$1,22.5*
%
%ADD10C,0.0000*%
D10*
X004202Y003014D02*
X004202Y022699D01*
X023887Y022699D01*
X023887Y003014D01*
X004202Y003014D01*
X004460Y012699D02*
X004462Y012725D01*
X004468Y012751D01*
X004477Y012775D01*
X004490Y012798D01*
X004507Y012818D01*
X004526Y012836D01*
X004548Y012851D01*
X004571Y012862D01*
X004596Y012870D01*
X004622Y012874D01*
X004648Y012874D01*
X004674Y012870D01*
X004699Y012862D01*
X004723Y012851D01*
X004744Y012836D01*
X004763Y012818D01*
X004780Y012798D01*
X004793Y012775D01*
X004802Y012751D01*
X004808Y012725D01*
X004810Y012699D01*
X004808Y012673D01*
X004802Y012647D01*
X004793Y012623D01*
X004780Y012600D01*
X004763Y012580D01*
X004744Y012562D01*
X004722Y012547D01*
X004699Y012536D01*
X004674Y012528D01*
X004648Y012524D01*
X004622Y012524D01*
X004596Y012528D01*
X004571Y012536D01*
X004547Y012547D01*
X004526Y012562D01*
X004507Y012580D01*
X004490Y012600D01*
X004477Y012623D01*
X004468Y012647D01*
X004462Y012673D01*
X004460Y012699D01*
X004460Y015849D02*
X004462Y015875D01*
X004468Y015901D01*
X004477Y015925D01*
X004490Y015948D01*
X004507Y015968D01*
X004526Y015986D01*
X004548Y016001D01*
X004571Y016012D01*
X004596Y016020D01*
X004622Y016024D01*
X004648Y016024D01*
X004674Y016020D01*
X004699Y016012D01*
X004723Y016001D01*
X004744Y015986D01*
X004763Y015968D01*
X004780Y015948D01*
X004793Y015925D01*
X004802Y015901D01*
X004808Y015875D01*
X004810Y015849D01*
X004808Y015823D01*
X004802Y015797D01*
X004793Y015773D01*
X004780Y015750D01*
X004763Y015730D01*
X004744Y015712D01*
X004722Y015697D01*
X004699Y015686D01*
X004674Y015678D01*
X004648Y015674D01*
X004622Y015674D01*
X004596Y015678D01*
X004571Y015686D01*
X004547Y015697D01*
X004526Y015712D01*
X004507Y015730D01*
X004490Y015750D01*
X004477Y015773D01*
X004468Y015797D01*
X004462Y015823D01*
X004460Y015849D01*
X016037Y004392D02*
X016039Y004442D01*
X016045Y004492D01*
X016055Y004541D01*
X016069Y004589D01*
X016086Y004636D01*
X016107Y004681D01*
X016132Y004725D01*
X016160Y004766D01*
X016192Y004805D01*
X016226Y004842D01*
X016263Y004876D01*
X016303Y004906D01*
X016345Y004933D01*
X016389Y004957D01*
X016435Y004978D01*
X016482Y004994D01*
X016530Y005007D01*
X016580Y005016D01*
X016629Y005021D01*
X016680Y005022D01*
X016730Y005019D01*
X016779Y005012D01*
X016828Y005001D01*
X016876Y004986D01*
X016922Y004968D01*
X016967Y004946D01*
X017010Y004920D01*
X017051Y004891D01*
X017090Y004859D01*
X017126Y004824D01*
X017158Y004786D01*
X017188Y004746D01*
X017215Y004703D01*
X017238Y004659D01*
X017257Y004613D01*
X017273Y004565D01*
X017285Y004516D01*
X017293Y004467D01*
X017297Y004417D01*
X017297Y004367D01*
X017293Y004317D01*
X017285Y004268D01*
X017273Y004219D01*
X017257Y004171D01*
X017238Y004125D01*
X017215Y004081D01*
X017188Y004038D01*
X017158Y003998D01*
X017126Y003960D01*
X017090Y003925D01*
X017051Y003893D01*
X017010Y003864D01*
X016967Y003838D01*
X016922Y003816D01*
X016876Y003798D01*
X016828Y003783D01*
X016779Y003772D01*
X016730Y003765D01*
X016680Y003762D01*
X016629Y003763D01*
X016580Y003768D01*
X016530Y003777D01*
X016482Y003790D01*
X016435Y003806D01*
X016389Y003827D01*
X016345Y003851D01*
X016303Y003878D01*
X016263Y003908D01*
X016226Y003942D01*
X016192Y003979D01*
X016160Y004018D01*
X016132Y004059D01*
X016107Y004103D01*
X016086Y004148D01*
X016069Y004195D01*
X016055Y004243D01*
X016045Y004292D01*
X016039Y004342D01*
X016037Y004392D01*
X020537Y004392D02*
X020539Y004442D01*
X020545Y004492D01*
X020555Y004541D01*
X020569Y004589D01*
X020586Y004636D01*
X020607Y004681D01*
X020632Y004725D01*
X020660Y004766D01*
X020692Y004805D01*
X020726Y004842D01*
X020763Y004876D01*
X020803Y004906D01*
X020845Y004933D01*
X020889Y004957D01*
X020935Y004978D01*
X020982Y004994D01*
X021030Y005007D01*
X021080Y005016D01*
X021129Y005021D01*
X021180Y005022D01*
X021230Y005019D01*
X021279Y005012D01*
X021328Y005001D01*
X021376Y004986D01*
X021422Y004968D01*
X021467Y004946D01*
X021510Y004920D01*
X021551Y004891D01*
X021590Y004859D01*
X021626Y004824D01*
X021658Y004786D01*
X021688Y004746D01*
X021715Y004703D01*
X021738Y004659D01*
X021757Y004613D01*
X021773Y004565D01*
X021785Y004516D01*
X021793Y004467D01*
X021797Y004417D01*
X021797Y004367D01*
X021793Y004317D01*
X021785Y004268D01*
X021773Y004219D01*
X021757Y004171D01*
X021738Y004125D01*
X021715Y004081D01*
X021688Y004038D01*
X021658Y003998D01*
X021626Y003960D01*
X021590Y003925D01*
X021551Y003893D01*
X021510Y003864D01*
X021467Y003838D01*
X021422Y003816D01*
X021376Y003798D01*
X021328Y003783D01*
X021279Y003772D01*
X021230Y003765D01*
X021180Y003762D01*
X021129Y003763D01*
X021080Y003768D01*
X021030Y003777D01*
X020982Y003790D01*
X020935Y003806D01*
X020889Y003827D01*
X020845Y003851D01*
X020803Y003878D01*
X020763Y003908D01*
X020726Y003942D01*
X020692Y003979D01*
X020660Y004018D01*
X020632Y004059D01*
X020607Y004103D01*
X020586Y004148D01*
X020569Y004195D01*
X020555Y004243D01*
X020545Y004292D01*
X020539Y004342D01*
X020537Y004392D01*
M02*
