G75*
G70*
%OFA0B0*%
%FSLAX24Y24*%
%IPPOS*%
%LPD*%
%AMOC8*
5,1,8,0,0,1.08239X$1,22.5*
%
%ADD10C,0.0000*%
%ADD11C,0.0030*%
%ADD12C,0.0070*%
%ADD13C,0.0060*%
%ADD14C,0.0050*%
%ADD15C,0.0040*%
%ADD16C,0.0080*%
%ADD17C,0.0020*%
%ADD18C,0.0001*%
%ADD19R,0.0079X0.0079*%
D10*
X004202Y003014D02*
X004202Y022699D01*
X023887Y022699D01*
X023887Y003014D01*
X004202Y003014D01*
X004460Y012699D02*
X004462Y012725D01*
X004468Y012751D01*
X004477Y012775D01*
X004490Y012798D01*
X004507Y012818D01*
X004526Y012836D01*
X004548Y012851D01*
X004571Y012862D01*
X004596Y012870D01*
X004622Y012874D01*
X004648Y012874D01*
X004674Y012870D01*
X004699Y012862D01*
X004723Y012851D01*
X004744Y012836D01*
X004763Y012818D01*
X004780Y012798D01*
X004793Y012775D01*
X004802Y012751D01*
X004808Y012725D01*
X004810Y012699D01*
X004808Y012673D01*
X004802Y012647D01*
X004793Y012623D01*
X004780Y012600D01*
X004763Y012580D01*
X004744Y012562D01*
X004722Y012547D01*
X004699Y012536D01*
X004674Y012528D01*
X004648Y012524D01*
X004622Y012524D01*
X004596Y012528D01*
X004571Y012536D01*
X004547Y012547D01*
X004526Y012562D01*
X004507Y012580D01*
X004490Y012600D01*
X004477Y012623D01*
X004468Y012647D01*
X004462Y012673D01*
X004460Y012699D01*
X004460Y015849D02*
X004462Y015875D01*
X004468Y015901D01*
X004477Y015925D01*
X004490Y015948D01*
X004507Y015968D01*
X004526Y015986D01*
X004548Y016001D01*
X004571Y016012D01*
X004596Y016020D01*
X004622Y016024D01*
X004648Y016024D01*
X004674Y016020D01*
X004699Y016012D01*
X004723Y016001D01*
X004744Y015986D01*
X004763Y015968D01*
X004780Y015948D01*
X004793Y015925D01*
X004802Y015901D01*
X004808Y015875D01*
X004810Y015849D01*
X004808Y015823D01*
X004802Y015797D01*
X004793Y015773D01*
X004780Y015750D01*
X004763Y015730D01*
X004744Y015712D01*
X004722Y015697D01*
X004699Y015686D01*
X004674Y015678D01*
X004648Y015674D01*
X004622Y015674D01*
X004596Y015678D01*
X004571Y015686D01*
X004547Y015697D01*
X004526Y015712D01*
X004507Y015730D01*
X004490Y015750D01*
X004477Y015773D01*
X004468Y015797D01*
X004462Y015823D01*
X004460Y015849D01*
X016037Y004392D02*
X016039Y004442D01*
X016045Y004492D01*
X016055Y004541D01*
X016069Y004589D01*
X016086Y004636D01*
X016107Y004681D01*
X016132Y004725D01*
X016160Y004766D01*
X016192Y004805D01*
X016226Y004842D01*
X016263Y004876D01*
X016303Y004906D01*
X016345Y004933D01*
X016389Y004957D01*
X016435Y004978D01*
X016482Y004994D01*
X016530Y005007D01*
X016580Y005016D01*
X016629Y005021D01*
X016680Y005022D01*
X016730Y005019D01*
X016779Y005012D01*
X016828Y005001D01*
X016876Y004986D01*
X016922Y004968D01*
X016967Y004946D01*
X017010Y004920D01*
X017051Y004891D01*
X017090Y004859D01*
X017126Y004824D01*
X017158Y004786D01*
X017188Y004746D01*
X017215Y004703D01*
X017238Y004659D01*
X017257Y004613D01*
X017273Y004565D01*
X017285Y004516D01*
X017293Y004467D01*
X017297Y004417D01*
X017297Y004367D01*
X017293Y004317D01*
X017285Y004268D01*
X017273Y004219D01*
X017257Y004171D01*
X017238Y004125D01*
X017215Y004081D01*
X017188Y004038D01*
X017158Y003998D01*
X017126Y003960D01*
X017090Y003925D01*
X017051Y003893D01*
X017010Y003864D01*
X016967Y003838D01*
X016922Y003816D01*
X016876Y003798D01*
X016828Y003783D01*
X016779Y003772D01*
X016730Y003765D01*
X016680Y003762D01*
X016629Y003763D01*
X016580Y003768D01*
X016530Y003777D01*
X016482Y003790D01*
X016435Y003806D01*
X016389Y003827D01*
X016345Y003851D01*
X016303Y003878D01*
X016263Y003908D01*
X016226Y003942D01*
X016192Y003979D01*
X016160Y004018D01*
X016132Y004059D01*
X016107Y004103D01*
X016086Y004148D01*
X016069Y004195D01*
X016055Y004243D01*
X016045Y004292D01*
X016039Y004342D01*
X016037Y004392D01*
X020537Y004392D02*
X020539Y004442D01*
X020545Y004492D01*
X020555Y004541D01*
X020569Y004589D01*
X020586Y004636D01*
X020607Y004681D01*
X020632Y004725D01*
X020660Y004766D01*
X020692Y004805D01*
X020726Y004842D01*
X020763Y004876D01*
X020803Y004906D01*
X020845Y004933D01*
X020889Y004957D01*
X020935Y004978D01*
X020982Y004994D01*
X021030Y005007D01*
X021080Y005016D01*
X021129Y005021D01*
X021180Y005022D01*
X021230Y005019D01*
X021279Y005012D01*
X021328Y005001D01*
X021376Y004986D01*
X021422Y004968D01*
X021467Y004946D01*
X021510Y004920D01*
X021551Y004891D01*
X021590Y004859D01*
X021626Y004824D01*
X021658Y004786D01*
X021688Y004746D01*
X021715Y004703D01*
X021738Y004659D01*
X021757Y004613D01*
X021773Y004565D01*
X021785Y004516D01*
X021793Y004467D01*
X021797Y004417D01*
X021797Y004367D01*
X021793Y004317D01*
X021785Y004268D01*
X021773Y004219D01*
X021757Y004171D01*
X021738Y004125D01*
X021715Y004081D01*
X021688Y004038D01*
X021658Y003998D01*
X021626Y003960D01*
X021590Y003925D01*
X021551Y003893D01*
X021510Y003864D01*
X021467Y003838D01*
X021422Y003816D01*
X021376Y003798D01*
X021328Y003783D01*
X021279Y003772D01*
X021230Y003765D01*
X021180Y003762D01*
X021129Y003763D01*
X021080Y003768D01*
X021030Y003777D01*
X020982Y003790D01*
X020935Y003806D01*
X020889Y003827D01*
X020845Y003851D01*
X020803Y003878D01*
X020763Y003908D01*
X020726Y003942D01*
X020692Y003979D01*
X020660Y004018D01*
X020632Y004059D01*
X020607Y004103D01*
X020586Y004148D01*
X020569Y004195D01*
X020555Y004243D01*
X020545Y004292D01*
X020539Y004342D01*
X020537Y004392D01*
D11*
X022145Y004391D02*
X022435Y004391D01*
X022386Y004492D02*
X022435Y004541D01*
X022435Y004637D01*
X022386Y004686D01*
X022193Y004686D01*
X022145Y004637D01*
X022145Y004541D01*
X022193Y004492D01*
X022241Y004492D01*
X022290Y004541D01*
X022290Y004686D01*
X022386Y004787D02*
X022193Y004980D01*
X022386Y004980D01*
X022435Y004932D01*
X022435Y004835D01*
X022386Y004787D01*
X022193Y004787D01*
X022145Y004835D01*
X022145Y004932D01*
X022193Y004980D01*
X022193Y005081D02*
X022145Y005130D01*
X022145Y005227D01*
X022193Y005275D01*
X022386Y005081D01*
X022435Y005130D01*
X022435Y005227D01*
X022386Y005275D01*
X022193Y005275D01*
X022290Y005376D02*
X022290Y005570D01*
X022290Y005671D02*
X022290Y005768D01*
X022435Y005864D02*
X022435Y005671D01*
X022145Y005671D01*
X022145Y005864D01*
X022145Y005965D02*
X022435Y006159D01*
X022435Y005965D02*
X022145Y006159D01*
X022145Y006260D02*
X022145Y006454D01*
X022145Y006357D02*
X022435Y006357D01*
X022386Y005081D02*
X022193Y005081D01*
X022145Y004391D02*
X022241Y004294D01*
X022145Y004198D01*
X022435Y004198D01*
X022435Y004098D02*
X022435Y004001D01*
X022435Y004049D02*
X022145Y004049D01*
X022145Y004001D02*
X022145Y004098D01*
X022193Y003900D02*
X022145Y003852D01*
X022145Y003755D01*
X022193Y003706D01*
X022241Y003706D01*
X022290Y003755D01*
X022290Y003852D01*
X022338Y003900D01*
X022386Y003900D01*
X022435Y003852D01*
X022435Y003755D01*
X022386Y003706D01*
X016010Y008967D02*
X015720Y008967D01*
X016010Y009161D01*
X015720Y009161D01*
X016059Y009262D02*
X016059Y009455D01*
X016010Y009557D02*
X015720Y009557D01*
X015817Y009653D01*
X015720Y009750D01*
X016010Y009750D01*
X016059Y009851D02*
X016059Y010045D01*
X016010Y010146D02*
X015720Y010146D01*
X015865Y010146D02*
X015865Y010339D01*
X015865Y010441D02*
X015865Y010537D01*
X015720Y010441D02*
X016010Y010441D01*
X016010Y010634D01*
X016010Y010735D02*
X015817Y010735D01*
X015720Y010832D01*
X015817Y010929D01*
X016010Y010929D01*
X015865Y010929D02*
X015865Y010735D01*
X015720Y010634D02*
X015720Y010441D01*
X015720Y010339D02*
X016010Y010339D01*
X015720Y011030D02*
X015720Y011223D01*
X015720Y011127D02*
X016010Y011127D01*
X016805Y011529D02*
X016805Y011674D01*
X016854Y011722D01*
X016950Y011722D01*
X016999Y011674D01*
X016999Y011529D01*
X017096Y011529D02*
X016805Y011529D01*
X016999Y011626D02*
X017096Y011722D01*
X017047Y011824D02*
X017096Y011872D01*
X017096Y011969D01*
X017047Y012017D01*
X016999Y012017D01*
X016950Y011969D01*
X016950Y011872D01*
X016902Y011824D01*
X016854Y011824D01*
X016805Y011872D01*
X016805Y011969D01*
X016854Y012017D01*
X016805Y012118D02*
X016805Y012312D01*
X016805Y012215D02*
X017096Y012215D01*
X014202Y010488D02*
X014154Y010536D01*
X014057Y010536D01*
X014057Y010439D01*
X014154Y010343D02*
X014202Y010391D01*
X014202Y010488D01*
X014154Y010343D02*
X013960Y010343D01*
X013912Y010391D01*
X013912Y010488D01*
X013960Y010536D01*
X013600Y010958D02*
X013503Y010958D01*
X013455Y011006D01*
X013648Y011200D01*
X013648Y011006D01*
X013600Y010958D01*
X013455Y011006D02*
X013455Y011200D01*
X013503Y011248D01*
X013600Y011248D01*
X013648Y011200D01*
X013354Y010958D02*
X013160Y010958D01*
X013257Y010958D02*
X013257Y011248D01*
X013160Y011151D01*
X013059Y011103D02*
X013011Y011055D01*
X012865Y011055D01*
X012962Y011055D02*
X013059Y010958D01*
X013059Y011103D02*
X013059Y011200D01*
X013011Y011248D01*
X012865Y011248D01*
X012865Y010958D01*
X013960Y009788D02*
X013912Y009740D01*
X013912Y009643D01*
X013960Y009595D01*
X014009Y009595D01*
X014057Y009643D01*
X014057Y009740D01*
X014105Y009788D01*
X014154Y009788D01*
X014202Y009740D01*
X014202Y009643D01*
X014154Y009595D01*
X013564Y009046D02*
X013564Y008998D01*
X013515Y008949D01*
X013564Y008901D01*
X013564Y008853D01*
X013515Y008804D01*
X013419Y008804D01*
X013370Y008853D01*
X013269Y008804D02*
X013076Y008804D01*
X013172Y008804D02*
X013172Y009095D01*
X013076Y008998D01*
X012974Y009046D02*
X012926Y009095D01*
X012829Y009095D01*
X012781Y009046D01*
X012781Y008853D01*
X012829Y008804D01*
X012926Y008804D01*
X012974Y008853D01*
X013370Y009046D02*
X013419Y009095D01*
X013515Y009095D01*
X013564Y009046D01*
X013515Y008949D02*
X013467Y008949D01*
X013508Y012261D02*
X013653Y012261D01*
X013702Y012310D01*
X013702Y012503D01*
X013653Y012552D01*
X013508Y012552D01*
X013508Y012261D01*
X013407Y012261D02*
X013214Y012261D01*
X013214Y012552D01*
X013803Y012552D02*
X013803Y012261D01*
X013803Y012358D02*
X013948Y012358D01*
X013996Y012406D01*
X013996Y012503D01*
X013948Y012552D01*
X013803Y012552D01*
X013900Y012358D02*
X013996Y012261D01*
X013766Y013506D02*
X013669Y013506D01*
X013620Y013554D01*
X013620Y013651D01*
X013766Y013651D01*
X013814Y013603D01*
X013814Y013554D01*
X013766Y013506D01*
X013620Y013651D02*
X013717Y013748D01*
X013814Y013796D01*
X013519Y013748D02*
X013519Y013651D01*
X013471Y013603D01*
X013326Y013603D01*
X013423Y013603D02*
X013519Y013506D01*
X013326Y013506D02*
X013326Y013796D01*
X013471Y013796D01*
X013519Y013748D01*
X012197Y013786D02*
X012197Y013593D01*
X012004Y013786D01*
X011956Y013786D01*
X011907Y013738D01*
X011907Y013641D01*
X011956Y013593D01*
X011956Y013492D02*
X012052Y013492D01*
X012101Y013443D01*
X012101Y013298D01*
X012197Y013298D02*
X011907Y013298D01*
X011907Y013443D01*
X011956Y013492D01*
X012101Y013395D02*
X012197Y013492D01*
X008770Y010393D02*
X008770Y010297D01*
X008722Y010248D01*
X008625Y010248D02*
X008577Y010345D01*
X008577Y010393D01*
X008625Y010442D01*
X008722Y010442D01*
X008770Y010393D01*
X008625Y010248D02*
X008480Y010248D01*
X008480Y010442D01*
X008528Y010147D02*
X008625Y010147D01*
X008673Y010099D01*
X008673Y009954D01*
X008673Y010050D02*
X008770Y010147D01*
X008770Y009954D02*
X008480Y009954D01*
X008480Y010099D01*
X008528Y010147D01*
X007596Y010169D02*
X007500Y010072D01*
X007500Y010120D02*
X007500Y009975D01*
X007596Y009975D02*
X007306Y009975D01*
X007306Y010120D01*
X007355Y010169D01*
X007451Y010169D01*
X007500Y010120D01*
X007451Y010270D02*
X007451Y010463D01*
X007306Y010415D02*
X007451Y010270D01*
X007596Y010415D02*
X007306Y010415D01*
X008527Y018903D02*
X008527Y019194D01*
X008672Y019194D01*
X008720Y019145D01*
X008720Y019048D01*
X008672Y019000D01*
X008527Y019000D01*
X008624Y019000D02*
X008720Y018903D01*
X008821Y018903D02*
X009015Y018903D01*
X008918Y018903D02*
X008918Y019194D01*
X008821Y019097D01*
X009116Y019145D02*
X009165Y019194D01*
X009261Y019194D01*
X009310Y019145D01*
X009310Y019097D01*
X009261Y019048D01*
X009310Y019000D01*
X009310Y018952D01*
X009261Y018903D01*
X009165Y018903D01*
X009116Y018952D01*
X009213Y019048D02*
X009261Y019048D01*
X010777Y019475D02*
X010825Y019427D01*
X011018Y019427D01*
X011067Y019475D01*
X011067Y019572D01*
X011018Y019620D01*
X011018Y019721D02*
X011067Y019770D01*
X011067Y019866D01*
X011018Y019915D01*
X010825Y019915D01*
X010777Y019866D01*
X010777Y019770D01*
X010825Y019721D01*
X010873Y019721D01*
X010922Y019770D01*
X010922Y019915D01*
X010825Y019620D02*
X010777Y019572D01*
X010777Y019475D01*
X012068Y019425D02*
X012068Y019570D01*
X012116Y019619D01*
X012213Y019619D01*
X012261Y019570D01*
X012261Y019425D01*
X012358Y019425D02*
X012068Y019425D01*
X012261Y019522D02*
X012358Y019619D01*
X012310Y019720D02*
X012358Y019768D01*
X012358Y019865D01*
X012310Y019913D01*
X012261Y019913D01*
X012213Y019865D01*
X012213Y019817D01*
X012213Y019865D02*
X012164Y019913D01*
X012116Y019913D01*
X012068Y019865D01*
X012068Y019768D01*
X012116Y019720D01*
X011166Y021120D02*
X010973Y021120D01*
X010924Y021168D01*
X010924Y021265D01*
X010973Y021313D01*
X011070Y021414D02*
X011070Y021608D01*
X011215Y021559D02*
X010924Y021559D01*
X011070Y021414D01*
X011166Y021313D02*
X011215Y021265D01*
X011215Y021168D01*
X011166Y021120D01*
X010280Y021168D02*
X010231Y021120D01*
X010038Y021120D01*
X009989Y021168D01*
X009989Y021265D01*
X010038Y021313D01*
X010038Y021414D02*
X009989Y021463D01*
X009989Y021559D01*
X010038Y021608D01*
X010086Y021608D01*
X010135Y021559D01*
X010183Y021608D01*
X010231Y021608D01*
X010280Y021559D01*
X010280Y021463D01*
X010231Y021414D01*
X010231Y021313D02*
X010280Y021265D01*
X010280Y021168D01*
X010135Y021511D02*
X010135Y021559D01*
X010137Y022069D02*
X010014Y022069D01*
X009952Y022131D01*
X010199Y022378D01*
X010199Y022131D01*
X010137Y022069D01*
X010320Y022069D02*
X010567Y022069D01*
X010689Y022069D02*
X010935Y022316D01*
X010935Y022378D01*
X010874Y022439D01*
X010750Y022439D01*
X010689Y022378D01*
X010444Y022439D02*
X010444Y022069D01*
X010689Y022069D02*
X010935Y022069D01*
X011425Y022254D02*
X011672Y022254D01*
X012162Y022192D02*
X012285Y022316D01*
X012347Y022316D01*
X012469Y022254D02*
X012530Y022316D01*
X012654Y022316D01*
X012716Y022254D01*
X012716Y022192D01*
X012469Y022192D01*
X012469Y022131D02*
X012469Y022254D01*
X012469Y022131D02*
X012530Y022069D01*
X012654Y022069D01*
X012960Y022069D02*
X012837Y022316D01*
X013084Y022316D02*
X012960Y022069D01*
X013574Y022069D02*
X013821Y022069D01*
X013942Y022069D02*
X014004Y022069D01*
X014004Y022131D01*
X013942Y022131D01*
X013942Y022069D01*
X014126Y022131D02*
X014126Y022378D01*
X014188Y022439D01*
X014311Y022439D01*
X014373Y022378D01*
X014126Y022131D01*
X014188Y022069D01*
X014311Y022069D01*
X014373Y022131D01*
X014373Y022378D01*
X013697Y022439D02*
X013697Y022069D01*
X013574Y022316D02*
X013697Y022439D01*
X012162Y022316D02*
X012162Y022069D01*
X010444Y022439D02*
X010320Y022316D01*
X010199Y022378D02*
X010137Y022439D01*
X010014Y022439D01*
X009952Y022378D01*
X009952Y022131D01*
X009830Y022069D02*
X009584Y022069D01*
X009830Y022316D01*
X009830Y022378D01*
X009769Y022439D01*
X009645Y022439D01*
X009584Y022378D01*
X009094Y022254D02*
X008847Y022254D01*
X008357Y022316D02*
X008172Y022316D01*
X008110Y022254D01*
X008110Y022131D01*
X008172Y022069D01*
X008357Y022069D01*
X007988Y022069D02*
X007865Y022069D01*
X007926Y022069D02*
X007926Y022439D01*
X007865Y022439D01*
X007681Y022439D02*
X007681Y022069D01*
X007619Y022069D02*
X007743Y022069D01*
X007681Y022439D02*
X007619Y022439D01*
X007129Y022131D02*
X007067Y022131D01*
X007067Y022069D01*
X007129Y022069D01*
X007129Y022131D01*
X007129Y022069D02*
X007005Y021946D01*
X006822Y022069D02*
X006884Y022131D01*
X006884Y022254D01*
X006822Y022316D01*
X006699Y022316D01*
X006637Y022254D01*
X006637Y022131D01*
X006699Y022069D01*
X006822Y022069D01*
X006515Y022069D02*
X006392Y022069D01*
X006453Y022069D02*
X006453Y022439D01*
X006392Y022439D01*
X006270Y022316D02*
X006023Y022069D01*
X006270Y022069D01*
X006270Y022316D02*
X006023Y022316D01*
X005902Y022254D02*
X005840Y022316D01*
X005717Y022316D01*
X005655Y022254D01*
X005655Y022131D01*
X005717Y022069D01*
X005840Y022069D01*
X005902Y022131D01*
X005902Y022254D01*
X005164Y022192D02*
X005164Y022316D01*
X005041Y022439D01*
X004920Y022316D02*
X004734Y022316D01*
X004673Y022254D01*
X004673Y022131D01*
X004734Y022069D01*
X004920Y022069D01*
X005041Y022069D02*
X005164Y022192D01*
X005048Y021780D02*
X004854Y021780D01*
X004757Y021683D01*
X004854Y021587D01*
X005048Y021587D01*
X004999Y021485D02*
X004806Y021485D01*
X004757Y021437D01*
X004757Y021340D01*
X004806Y021292D01*
X004806Y021191D02*
X004757Y021142D01*
X004757Y021046D01*
X004806Y020997D01*
X004999Y020997D02*
X005048Y021046D01*
X005048Y021142D01*
X004999Y021191D01*
X004806Y021191D01*
X004999Y021292D02*
X005048Y021340D01*
X005048Y021437D01*
X004999Y021485D01*
X004551Y022069D02*
X004427Y022192D01*
X004427Y022316D01*
X004551Y022439D01*
X006655Y021537D02*
X006703Y021585D01*
X006751Y021585D01*
X006800Y021537D01*
X006800Y021440D01*
X006751Y021391D01*
X006703Y021391D01*
X006655Y021440D01*
X006655Y021537D01*
X006800Y021537D02*
X006848Y021585D01*
X006897Y021585D01*
X006945Y021537D01*
X006945Y021440D01*
X006897Y021391D01*
X006848Y021391D01*
X006800Y021440D01*
X006800Y021290D02*
X006703Y021290D01*
X006655Y021242D01*
X006655Y021097D01*
X006945Y021097D01*
X006848Y021097D02*
X006848Y021242D01*
X006800Y021290D01*
X006848Y021194D02*
X006945Y021290D01*
X007114Y021371D02*
X007405Y021371D01*
X007405Y021274D02*
X007405Y021468D01*
X007405Y021569D02*
X007211Y021762D01*
X007163Y021762D01*
X007114Y021714D01*
X007114Y021617D01*
X007163Y021569D01*
X007114Y021371D02*
X007211Y021274D01*
X007163Y021173D02*
X007114Y021125D01*
X007114Y021028D01*
X007163Y020980D01*
X007356Y020980D01*
X007405Y021028D01*
X007405Y021125D01*
X007356Y021173D01*
X007405Y021569D02*
X007405Y021762D01*
X008119Y021511D02*
X008410Y021511D01*
X008410Y021414D02*
X008410Y021608D01*
X008216Y021414D02*
X008119Y021511D01*
X008168Y021313D02*
X008119Y021265D01*
X008119Y021168D01*
X008168Y021120D01*
X008361Y021120D01*
X008410Y021168D01*
X008410Y021265D01*
X008361Y021313D01*
X009054Y021265D02*
X009054Y021168D01*
X009103Y021120D01*
X009296Y021120D01*
X009345Y021168D01*
X009345Y021265D01*
X009296Y021313D01*
X009345Y021414D02*
X009151Y021608D01*
X009103Y021608D01*
X009054Y021559D01*
X009054Y021463D01*
X009103Y021414D01*
X009103Y021313D02*
X009054Y021265D01*
X009345Y021414D02*
X009345Y021608D01*
X006873Y019425D02*
X006825Y019473D01*
X006728Y019473D01*
X006679Y019425D01*
X006578Y019473D02*
X006385Y019473D01*
X006482Y019473D02*
X006482Y019183D01*
X006578Y019280D01*
X006679Y019231D02*
X006728Y019183D01*
X006825Y019183D01*
X006873Y019231D01*
X006873Y019425D01*
X006284Y019425D02*
X006284Y019231D01*
X006235Y019183D01*
X006139Y019183D01*
X006090Y019231D01*
X006284Y019425D01*
X006235Y019473D01*
X006139Y019473D01*
X006090Y019425D01*
X006090Y019231D01*
X017607Y021543D02*
X017817Y021543D01*
X017817Y021473D02*
X017817Y021613D01*
X017677Y021473D02*
X017607Y021543D01*
X019763Y018524D02*
X019908Y018524D01*
X019956Y018475D01*
X019956Y018379D01*
X019908Y018330D01*
X019763Y018330D01*
X019763Y018234D02*
X019763Y018524D01*
X019860Y018330D02*
X019956Y018234D01*
X020057Y018234D02*
X020251Y018234D01*
X020154Y018234D02*
X020154Y018524D01*
X020057Y018427D01*
X020352Y018427D02*
X020449Y018524D01*
X020449Y018234D01*
X020352Y018234D02*
X020546Y018234D01*
X021294Y018155D02*
X021294Y018058D01*
X021342Y018010D01*
X021390Y018010D01*
X021439Y018058D01*
X021439Y018155D01*
X021487Y018203D01*
X021536Y018203D01*
X021584Y018155D01*
X021584Y018058D01*
X021536Y018010D01*
X021342Y018203D02*
X021294Y018155D01*
X021342Y018758D02*
X021536Y018758D01*
X021584Y018806D01*
X021584Y018903D01*
X021536Y018951D01*
X021439Y018951D01*
X021439Y018855D01*
X021342Y018951D02*
X021294Y018903D01*
X021294Y018806D01*
X021342Y018758D01*
X021420Y020150D02*
X021420Y020295D01*
X021372Y020343D01*
X021275Y020343D01*
X021227Y020295D01*
X021227Y020150D01*
X021517Y020150D01*
X021420Y020246D02*
X021517Y020343D01*
X021517Y020444D02*
X021469Y020444D01*
X021275Y020638D01*
X021227Y020638D01*
X021227Y020444D01*
X021227Y021620D02*
X021227Y021765D01*
X021275Y021813D01*
X021372Y021813D01*
X021420Y021765D01*
X021420Y021620D01*
X021420Y021716D02*
X021517Y021813D01*
X021469Y021914D02*
X021517Y021963D01*
X021517Y022059D01*
X021469Y022108D01*
X021275Y022108D01*
X021227Y022059D01*
X021227Y021963D01*
X021275Y021914D01*
X021324Y021914D01*
X021372Y021963D01*
X021372Y022108D01*
X021517Y021620D02*
X021227Y021620D01*
X023337Y021546D02*
X023337Y021740D01*
X023531Y021546D01*
X023579Y021546D01*
X023627Y021595D01*
X023627Y021691D01*
X023579Y021740D01*
X023627Y021938D02*
X023337Y021938D01*
X023337Y022034D02*
X023337Y021841D01*
X023531Y022034D02*
X023627Y021938D01*
X023482Y022136D02*
X023482Y022329D01*
X023386Y022232D02*
X023579Y022232D01*
X023627Y021445D02*
X023434Y021445D01*
X023337Y021348D01*
X023434Y021252D01*
X023627Y021252D01*
X023482Y020859D02*
X023482Y020666D01*
X023482Y020564D02*
X023531Y020468D01*
X023531Y020419D01*
X023482Y020371D01*
X023386Y020371D01*
X023337Y020419D01*
X023337Y020516D01*
X023386Y020564D01*
X023482Y020564D02*
X023627Y020564D01*
X023627Y020371D01*
X023627Y020270D02*
X023434Y020270D01*
X023337Y020173D01*
X023434Y020076D01*
X023627Y020076D01*
X023579Y020762D02*
X023386Y020762D01*
X023401Y019343D02*
X023449Y019343D01*
X023497Y019295D01*
X023497Y019198D01*
X023449Y019150D01*
X023352Y019198D02*
X023352Y019295D01*
X023401Y019343D01*
X023255Y019343D02*
X023207Y019295D01*
X023207Y019198D01*
X023255Y019150D01*
X023304Y019150D01*
X023352Y019198D01*
X023497Y019049D02*
X023207Y019049D01*
X023207Y018855D02*
X023497Y019049D01*
X023497Y018855D02*
X023207Y018855D01*
X023207Y018754D02*
X023207Y018561D01*
X023497Y018561D01*
X023497Y018754D01*
X023352Y018657D02*
X023352Y018561D01*
X023401Y018459D02*
X023449Y018459D01*
X023497Y018411D01*
X023497Y018314D01*
X023449Y018266D01*
X023352Y018314D02*
X023352Y018411D01*
X023401Y018459D01*
X023255Y018459D02*
X023207Y018411D01*
X023207Y018314D01*
X023255Y018266D01*
X023304Y018266D01*
X023352Y018314D01*
X023546Y018165D02*
X023546Y017971D01*
X023497Y017870D02*
X023207Y017870D01*
X023304Y017773D01*
X023207Y017677D01*
X023497Y017677D01*
X023382Y016705D02*
X023382Y016512D01*
X023188Y016705D01*
X023140Y016705D01*
X023092Y016657D01*
X023092Y016560D01*
X023140Y016512D01*
X023092Y016314D02*
X023382Y016314D01*
X023382Y016217D02*
X023382Y016411D01*
X023188Y016217D02*
X023092Y016314D01*
X023140Y016116D02*
X023237Y016116D01*
X023285Y016068D01*
X023285Y015922D01*
X023382Y015922D02*
X023092Y015922D01*
X023092Y016068D01*
X023140Y016116D01*
X023285Y016019D02*
X023382Y016116D01*
X021472Y015817D02*
X021278Y015817D01*
X021375Y015817D02*
X021375Y016107D01*
X021278Y016011D01*
X021177Y016059D02*
X021129Y016107D01*
X020984Y016107D01*
X020984Y015817D01*
X020984Y015914D02*
X021129Y015914D01*
X021177Y015962D01*
X021177Y016059D01*
X021080Y015914D02*
X021177Y015817D01*
X021087Y016956D02*
X020990Y016956D01*
X020942Y017005D01*
X020942Y017198D01*
X020990Y017246D01*
X021087Y017246D01*
X021135Y017198D01*
X021236Y017198D02*
X021236Y017150D01*
X021285Y017101D01*
X021382Y017101D01*
X021430Y017053D01*
X021430Y017005D01*
X021382Y016956D01*
X021285Y016956D01*
X021236Y017005D01*
X021236Y017053D01*
X021285Y017101D01*
X021382Y017101D02*
X021430Y017150D01*
X021430Y017198D01*
X021382Y017246D01*
X021285Y017246D01*
X021236Y017198D01*
X021135Y017005D02*
X021087Y016956D01*
X023029Y013630D02*
X022980Y013582D01*
X022980Y013436D01*
X023270Y013436D01*
X023270Y013582D01*
X023222Y013630D01*
X023029Y013630D01*
X023029Y013335D02*
X022980Y013287D01*
X022980Y013190D01*
X023029Y013142D01*
X023222Y013142D01*
X023270Y013190D01*
X023270Y013287D01*
X023222Y013335D01*
X023270Y013041D02*
X023270Y012847D01*
X022980Y012847D01*
X023319Y012746D02*
X023319Y012553D01*
X023270Y012451D02*
X022980Y012451D01*
X023077Y012355D01*
X022980Y012258D01*
X023270Y012258D01*
X023319Y012157D02*
X023319Y011963D01*
X023270Y011862D02*
X022980Y011862D01*
X022980Y011669D02*
X023270Y011862D01*
X023270Y011669D02*
X022980Y011669D01*
X021377Y011555D02*
X021377Y011361D01*
X021328Y011313D01*
X021232Y011313D01*
X021183Y011361D01*
X021082Y011313D02*
X020889Y011313D01*
X020889Y011361D01*
X021082Y011555D01*
X021082Y011603D01*
X021183Y011555D02*
X021232Y011603D01*
X021328Y011603D01*
X021377Y011555D01*
X021339Y012104D02*
X021387Y012153D01*
X021387Y012250D01*
X021339Y012298D01*
X021290Y012298D01*
X021242Y012250D01*
X021242Y012153D01*
X021194Y012104D01*
X021145Y012104D01*
X021097Y012153D01*
X021097Y012250D01*
X021145Y012298D01*
X021145Y012852D02*
X021339Y012852D01*
X021387Y012901D01*
X021387Y012998D01*
X021339Y013046D01*
X021242Y013046D01*
X021242Y012949D01*
X021145Y012852D02*
X021097Y012901D01*
X021097Y012998D01*
X021145Y013046D01*
D12*
X021186Y005909D02*
X021258Y005838D01*
X021258Y005766D01*
X021186Y005694D01*
X021043Y005694D01*
X020971Y005766D01*
X020971Y005838D01*
X021043Y005909D01*
X021186Y005909D01*
X021186Y005694D02*
X021258Y005622D01*
X021258Y005551D01*
X021186Y005479D01*
X021043Y005479D01*
X020971Y005551D01*
X020971Y005622D01*
X021043Y005694D01*
X020798Y005622D02*
X020798Y005551D01*
X020726Y005479D01*
X020583Y005479D01*
X020511Y005551D01*
X020337Y005479D02*
X020051Y005479D01*
X020337Y005766D01*
X020337Y005838D01*
X020266Y005909D01*
X020122Y005909D01*
X020051Y005838D01*
X019877Y005909D02*
X019734Y005838D01*
X019590Y005694D01*
X019805Y005694D01*
X019877Y005622D01*
X019877Y005551D01*
X019805Y005479D01*
X019662Y005479D01*
X019590Y005551D01*
X019590Y005694D01*
X018971Y005694D02*
X018900Y005694D01*
X018900Y005766D01*
X018971Y005766D01*
X018971Y005694D01*
X018971Y005551D02*
X018971Y005479D01*
X018900Y005479D01*
X018900Y005551D01*
X018971Y005551D01*
X018726Y005622D02*
X018439Y005622D01*
X018439Y005766D02*
X018654Y005766D01*
X018726Y005766D01*
X018654Y005909D02*
X018654Y005479D01*
X018511Y005479D02*
X018511Y005909D01*
X018266Y005838D02*
X018266Y005694D01*
X018194Y005622D01*
X017979Y005622D01*
X017979Y005479D02*
X017979Y005909D01*
X018194Y005909D01*
X018266Y005838D01*
X018122Y005622D02*
X018266Y005479D01*
X017805Y005479D02*
X017518Y005479D01*
X017518Y005909D01*
X017805Y005909D01*
X017662Y005694D02*
X017518Y005694D01*
X017345Y005551D02*
X017273Y005479D01*
X017058Y005479D01*
X017058Y005909D01*
X017273Y005909D01*
X017345Y005838D01*
X017345Y005551D01*
X016884Y005479D02*
X016741Y005622D01*
X016813Y005622D02*
X016598Y005622D01*
X016598Y005479D02*
X016598Y005909D01*
X016813Y005909D01*
X016884Y005838D01*
X016884Y005694D01*
X016813Y005622D01*
X016424Y005551D02*
X016424Y005838D01*
X016352Y005909D01*
X016209Y005909D01*
X016137Y005838D01*
X016137Y005551D01*
X016209Y005479D01*
X016352Y005479D01*
X016424Y005551D01*
X020511Y005838D02*
X020583Y005909D01*
X020726Y005909D01*
X020798Y005838D01*
X020798Y005766D01*
X020726Y005694D01*
X020798Y005622D01*
X020726Y005694D02*
X020654Y005694D01*
X021432Y005694D02*
X021575Y005766D01*
X021647Y005766D01*
X021719Y005694D01*
X021719Y005551D01*
X021647Y005479D01*
X021503Y005479D01*
X021432Y005551D01*
X021432Y005694D02*
X021432Y005909D01*
X021719Y005909D01*
X007174Y004880D02*
X006847Y004880D01*
X007011Y004717D02*
X007011Y005044D01*
X006932Y004290D02*
X006932Y003963D01*
D13*
X007880Y005789D02*
X009580Y005789D01*
X009603Y005791D01*
X009626Y005796D01*
X009648Y005805D01*
X009668Y005818D01*
X009686Y005833D01*
X009701Y005851D01*
X009714Y005871D01*
X009723Y005893D01*
X009728Y005916D01*
X009730Y005939D01*
X009730Y007029D01*
X009730Y006999D02*
X009728Y007022D01*
X009723Y007045D01*
X009714Y007067D01*
X009701Y007087D01*
X009686Y007105D01*
X009668Y007120D01*
X009648Y007133D01*
X009626Y007142D01*
X009603Y007147D01*
X009580Y007149D01*
X007880Y007149D01*
X007857Y007147D01*
X007834Y007142D01*
X007812Y007133D01*
X007792Y007120D01*
X007774Y007105D01*
X007759Y007087D01*
X007746Y007067D01*
X007737Y007045D01*
X007732Y007022D01*
X007730Y006999D01*
X007730Y007029D02*
X007730Y006659D01*
X007757Y006657D01*
X007784Y006652D01*
X007810Y006642D01*
X007834Y006630D01*
X007856Y006614D01*
X007876Y006596D01*
X007893Y006574D01*
X007908Y006551D01*
X007918Y006526D01*
X007926Y006500D01*
X007930Y006473D01*
X007930Y006445D01*
X007926Y006418D01*
X007918Y006392D01*
X007908Y006367D01*
X007893Y006344D01*
X007876Y006322D01*
X007856Y006304D01*
X007834Y006288D01*
X007810Y006276D01*
X007784Y006266D01*
X007757Y006261D01*
X007730Y006259D01*
X007730Y005939D01*
X007732Y005916D01*
X007737Y005893D01*
X007746Y005871D01*
X007759Y005851D01*
X007774Y005833D01*
X007792Y005818D01*
X007812Y005805D01*
X007834Y005796D01*
X007857Y005791D01*
X007880Y005789D01*
X014587Y013349D02*
X018030Y013349D01*
X018227Y013546D01*
X018227Y016990D01*
X018030Y017186D01*
X014587Y017186D01*
X014390Y016990D01*
X014390Y013546D01*
X014587Y013349D01*
X014733Y014087D02*
X014735Y014126D01*
X014741Y014165D01*
X014751Y014203D01*
X014764Y014240D01*
X014781Y014275D01*
X014801Y014309D01*
X014825Y014340D01*
X014852Y014369D01*
X014881Y014395D01*
X014913Y014418D01*
X014947Y014438D01*
X014983Y014454D01*
X015020Y014466D01*
X015059Y014475D01*
X015098Y014480D01*
X015137Y014481D01*
X015176Y014478D01*
X015215Y014471D01*
X015252Y014460D01*
X015289Y014446D01*
X015324Y014428D01*
X015357Y014407D01*
X015388Y014382D01*
X015416Y014355D01*
X015441Y014325D01*
X015463Y014292D01*
X015482Y014258D01*
X015497Y014222D01*
X015509Y014184D01*
X015517Y014146D01*
X015521Y014107D01*
X015521Y014067D01*
X015517Y014028D01*
X015509Y013990D01*
X015497Y013952D01*
X015482Y013916D01*
X015463Y013882D01*
X015441Y013849D01*
X015416Y013819D01*
X015388Y013792D01*
X015357Y013767D01*
X015324Y013746D01*
X015289Y013728D01*
X015252Y013714D01*
X015215Y013703D01*
X015176Y013696D01*
X015137Y013693D01*
X015098Y013694D01*
X015059Y013699D01*
X015020Y013708D01*
X014983Y013720D01*
X014947Y013736D01*
X014913Y013756D01*
X014881Y013779D01*
X014852Y013805D01*
X014825Y013834D01*
X014801Y013865D01*
X014781Y013899D01*
X014764Y013934D01*
X014751Y013971D01*
X014741Y014009D01*
X014735Y014048D01*
X014733Y014087D01*
X017341Y010608D02*
X021641Y010608D01*
X021658Y010606D01*
X021675Y010602D01*
X021691Y010595D01*
X021705Y010585D01*
X021718Y010572D01*
X021728Y010558D01*
X021735Y010542D01*
X021739Y010525D01*
X021741Y010508D01*
X021741Y010108D01*
X021741Y009208D02*
X021741Y008808D01*
X021739Y008791D01*
X021735Y008774D01*
X021728Y008758D01*
X021718Y008744D01*
X021705Y008731D01*
X021691Y008721D01*
X021675Y008714D01*
X021658Y008710D01*
X021641Y008708D01*
X017341Y008708D01*
X017324Y008710D01*
X017307Y008714D01*
X017291Y008721D01*
X017277Y008731D01*
X017264Y008744D01*
X017254Y008758D01*
X017247Y008774D01*
X017243Y008791D01*
X017241Y008808D01*
X017241Y009208D01*
X017241Y010108D02*
X017241Y010508D01*
X017243Y010525D01*
X017247Y010542D01*
X017254Y010558D01*
X017264Y010572D01*
X017277Y010585D01*
X017291Y010595D01*
X017307Y010602D01*
X017324Y010606D01*
X017341Y010608D01*
X019241Y009908D02*
X019241Y009658D01*
X019241Y009408D01*
X019391Y009408D02*
X019591Y009408D01*
X019591Y009908D01*
X019391Y009908D01*
X019391Y009408D01*
X019741Y009408D02*
X019741Y009658D01*
X019741Y009908D01*
D14*
X021082Y010786D02*
X021082Y011186D01*
X022027Y011951D02*
X022027Y011990D01*
X022027Y011951D02*
X022460Y011951D01*
X022460Y011990D01*
X022499Y013329D02*
X022499Y013368D01*
X022027Y013368D01*
X022027Y013329D01*
X021179Y015182D02*
X021179Y015582D01*
X021181Y016297D02*
X021181Y016897D01*
X020098Y017529D02*
X020098Y017929D01*
X018734Y019907D02*
X017592Y019907D01*
X018734Y019907D02*
X018734Y021876D01*
X017592Y021876D01*
X017081Y021009D02*
X015545Y021009D01*
X015033Y021876D02*
X013852Y021876D01*
X013852Y019907D01*
X015033Y019907D01*
X014984Y018393D02*
X014833Y018393D01*
X014909Y018393D02*
X014909Y017943D01*
X014984Y017943D02*
X014833Y017943D01*
X015140Y018018D02*
X015140Y018318D01*
X015215Y018393D01*
X015366Y018393D01*
X015441Y018318D01*
X015601Y018243D02*
X015751Y018393D01*
X015751Y017943D01*
X015601Y017943D02*
X015901Y017943D01*
X015441Y018018D02*
X015366Y017943D01*
X015215Y017943D01*
X015140Y018018D01*
X012993Y019620D02*
X012593Y019620D01*
X011866Y019665D02*
X011266Y019665D01*
X011286Y021420D02*
X011686Y021420D01*
X010751Y021420D02*
X010351Y021420D01*
X009816Y021420D02*
X009416Y021420D01*
X008881Y021420D02*
X008481Y021420D01*
X007945Y021420D02*
X007545Y021420D01*
X006420Y021321D02*
X006020Y021321D01*
X008976Y018568D02*
X008976Y018168D01*
X008927Y016875D02*
X008927Y011525D01*
X008477Y011525D01*
X008477Y010975D01*
X003027Y010975D01*
X003027Y011972D01*
X003026Y011972D02*
X003027Y012029D01*
X003032Y012087D01*
X003039Y012144D01*
X003050Y012200D01*
X003063Y012256D01*
X003079Y012311D01*
X003098Y012366D01*
X003427Y014145D02*
X003427Y016875D01*
X008927Y016875D01*
X007716Y013800D02*
X007791Y013725D01*
X007791Y013650D01*
X007716Y013575D01*
X007791Y013500D01*
X007791Y013425D01*
X007716Y013350D01*
X007566Y013350D01*
X007491Y013425D01*
X007331Y013425D02*
X007331Y013800D01*
X007491Y013725D02*
X007566Y013800D01*
X007716Y013800D01*
X007716Y013575D02*
X007641Y013575D01*
X007331Y013425D02*
X007256Y013350D01*
X007106Y013350D01*
X007031Y013425D01*
X007031Y013800D01*
X007860Y010253D02*
X008260Y010253D01*
X009033Y010205D02*
X009433Y010205D01*
X009901Y007629D02*
X009901Y006089D01*
X009901Y005239D01*
X011101Y005239D01*
X011101Y006089D01*
X011101Y007629D01*
X009901Y007629D01*
X011387Y007296D02*
X011387Y004933D01*
X011388Y004933D02*
X011390Y004879D01*
X011395Y004826D01*
X011404Y004773D01*
X011417Y004721D01*
X011433Y004669D01*
X011453Y004619D01*
X011476Y004571D01*
X011503Y004524D01*
X011532Y004479D01*
X011565Y004436D01*
X011600Y004396D01*
X011638Y004358D01*
X011678Y004323D01*
X011721Y004290D01*
X011766Y004261D01*
X011813Y004234D01*
X011861Y004211D01*
X011911Y004191D01*
X011963Y004175D01*
X012015Y004162D01*
X012068Y004153D01*
X012121Y004148D01*
X012175Y004146D01*
X011101Y006089D02*
X009901Y006089D01*
X011388Y007296D02*
X011390Y007350D01*
X011395Y007403D01*
X011404Y007456D01*
X011417Y007508D01*
X011433Y007560D01*
X011453Y007610D01*
X011476Y007658D01*
X011503Y007705D01*
X011532Y007750D01*
X011565Y007793D01*
X011600Y007833D01*
X011638Y007871D01*
X011678Y007906D01*
X011721Y007939D01*
X011766Y007968D01*
X011813Y007995D01*
X011861Y008018D01*
X011911Y008038D01*
X011963Y008054D01*
X012015Y008067D01*
X012068Y008076D01*
X012121Y008081D01*
X012175Y008083D01*
X013175Y009195D02*
X013175Y009795D01*
X013257Y010294D02*
X013257Y010694D01*
X014842Y010819D02*
X014842Y010859D01*
X015314Y010859D01*
X015314Y010819D01*
X015275Y009481D02*
X015275Y009441D01*
X014842Y009441D01*
X014842Y009481D01*
X014931Y008083D02*
X014985Y008081D01*
X015038Y008076D01*
X015091Y008067D01*
X015143Y008054D01*
X015195Y008038D01*
X015245Y008018D01*
X015293Y007995D01*
X015340Y007968D01*
X015385Y007939D01*
X015428Y007906D01*
X015468Y007871D01*
X015506Y007833D01*
X015541Y007793D01*
X015574Y007750D01*
X015603Y007705D01*
X015630Y007658D01*
X015653Y007610D01*
X015673Y007560D01*
X015689Y007508D01*
X015702Y007456D01*
X015711Y007403D01*
X015716Y007350D01*
X015718Y007296D01*
X015718Y004933D01*
X015716Y004879D01*
X015711Y004826D01*
X015702Y004773D01*
X015689Y004721D01*
X015673Y004669D01*
X015653Y004619D01*
X015630Y004571D01*
X015603Y004524D01*
X015574Y004479D01*
X015541Y004436D01*
X015506Y004396D01*
X015468Y004358D01*
X015428Y004323D01*
X015385Y004290D01*
X015340Y004261D01*
X015293Y004234D01*
X015245Y004211D01*
X015195Y004191D01*
X015143Y004175D01*
X015091Y004162D01*
X015038Y004153D01*
X014985Y004148D01*
X014931Y004146D01*
X020845Y008208D02*
X020920Y008133D01*
X021070Y008133D01*
X021145Y008208D01*
X021145Y008508D01*
X021070Y008583D01*
X020920Y008583D01*
X020845Y008508D01*
X020845Y008208D01*
X021305Y008133D02*
X021606Y008133D01*
X021455Y008133D02*
X021455Y008583D01*
X021305Y008433D01*
X017433Y010828D02*
X017433Y011228D01*
X013718Y012842D02*
X013718Y013242D01*
X012867Y013546D02*
X012467Y013546D01*
X005505Y008382D02*
X005505Y007882D01*
X004255Y007632D01*
X004255Y007257D02*
X005255Y007382D01*
X005255Y006882D02*
X004255Y007007D01*
X004255Y007257D01*
X004255Y008632D02*
X005505Y008382D01*
X005255Y008882D02*
X004255Y009007D01*
X004255Y009257D01*
X005255Y009382D01*
X006584Y005317D02*
X007017Y005317D01*
X007017Y005357D01*
X006584Y005317D02*
X006584Y003624D01*
X007017Y003624D01*
X005127Y004372D02*
X005127Y004609D01*
X003986Y004609D01*
X003986Y004372D02*
X005127Y004372D01*
X003099Y012365D02*
X003176Y012579D01*
X003242Y012797D01*
X003298Y013017D01*
X003344Y013240D01*
X003380Y013465D01*
X003406Y013691D01*
X003422Y013918D01*
X003427Y014145D01*
X021852Y020374D02*
X022252Y020374D01*
X022224Y019274D02*
X022224Y019234D01*
X022224Y019274D02*
X022696Y019274D01*
X022696Y019234D01*
X022657Y017896D02*
X022657Y017857D01*
X022224Y017857D01*
X022224Y017896D01*
X022457Y016301D02*
X022857Y016301D01*
X022252Y021844D02*
X021852Y021844D01*
D15*
X019360Y021754D02*
X019080Y021754D01*
X019080Y021847D02*
X019080Y021660D01*
X019080Y021553D02*
X019313Y021553D01*
X019360Y021506D01*
X019360Y021413D01*
X019313Y021366D01*
X019080Y021366D01*
X019127Y021258D02*
X019080Y021211D01*
X019080Y021118D01*
X019127Y021071D01*
X019313Y021071D01*
X019360Y021118D01*
X019360Y021211D01*
X019313Y021258D01*
X019127Y021258D01*
X019407Y020963D02*
X019407Y020777D01*
X019313Y020669D02*
X019360Y020622D01*
X019360Y020482D01*
X019080Y020482D01*
X019080Y020622D01*
X019127Y020669D01*
X019313Y020669D01*
X019313Y020374D02*
X019360Y020327D01*
X019360Y020234D01*
X019313Y020187D01*
X019127Y020187D01*
X019080Y020234D01*
X019080Y020327D01*
X019127Y020374D01*
X019360Y020079D02*
X019360Y019893D01*
X019080Y019893D01*
X011547Y011678D02*
X011393Y011678D01*
X011317Y011601D01*
X011163Y011601D02*
X011087Y011678D01*
X010933Y011678D01*
X010856Y011601D01*
X010856Y011294D01*
X010933Y011218D01*
X011087Y011218D01*
X011163Y011294D01*
X011317Y011218D02*
X011624Y011525D01*
X011624Y011601D01*
X011547Y011678D01*
X011624Y011218D02*
X011317Y011218D01*
X010703Y011218D02*
X010549Y011218D01*
X010626Y011218D02*
X010626Y011678D01*
X010549Y011678D02*
X010703Y011678D01*
X008110Y009468D02*
X007650Y009468D01*
X007880Y009238D01*
X007880Y009544D01*
X007650Y009084D02*
X008110Y008777D01*
X008110Y009084D02*
X007650Y008777D01*
X009236Y008820D02*
X009236Y008513D01*
X009312Y008436D01*
X009466Y008436D01*
X009543Y008513D01*
X009543Y008589D01*
X009466Y008666D01*
X009236Y008666D01*
X009236Y008820D02*
X009312Y008896D01*
X009466Y008896D01*
X009543Y008820D01*
X009696Y008896D02*
X010003Y008896D01*
X009696Y008589D01*
X009696Y008513D01*
X009773Y008436D01*
X009926Y008436D01*
X010003Y008513D01*
X010156Y008513D02*
X010233Y008436D01*
X010387Y008436D01*
X010463Y008513D01*
X010463Y008820D01*
X010387Y008896D01*
X010233Y008896D01*
X010156Y008820D01*
X011221Y007375D02*
X011298Y007375D01*
X011605Y007069D01*
X011681Y007069D01*
X011605Y006915D02*
X011298Y006915D01*
X011221Y006838D01*
X011221Y006608D01*
X011681Y006608D01*
X011681Y006838D01*
X011605Y006915D01*
X011221Y007069D02*
X011221Y007375D01*
X012435Y006383D02*
X012435Y006076D01*
X012665Y005923D02*
X012665Y005616D01*
X012435Y005693D02*
X012896Y005693D01*
X012665Y005923D01*
X012896Y006383D02*
X012435Y006383D01*
X009952Y004193D02*
X009952Y004116D01*
X009645Y003809D01*
X009645Y003733D01*
X009492Y003809D02*
X009415Y003733D01*
X009262Y003733D01*
X009185Y003809D01*
X009031Y003809D02*
X008955Y003733D01*
X008801Y003733D01*
X008725Y003809D01*
X008725Y004116D01*
X008801Y004193D01*
X008955Y004193D01*
X009031Y004116D01*
X009185Y004116D02*
X009262Y004193D01*
X009415Y004193D01*
X009492Y004116D01*
X009492Y004040D01*
X009415Y003963D01*
X009492Y003886D01*
X009492Y003809D01*
X009415Y003963D02*
X009338Y003963D01*
X009645Y004193D02*
X009952Y004193D01*
X005982Y004168D02*
X005982Y004014D01*
X005905Y003937D01*
X005598Y003937D01*
X005522Y004014D01*
X005522Y004168D01*
X005598Y004244D01*
X005522Y004398D02*
X005982Y004705D01*
X005522Y004705D01*
X005675Y004858D02*
X005522Y005012D01*
X005982Y005012D01*
X005982Y005165D02*
X005982Y004858D01*
X005982Y004398D02*
X005522Y004398D01*
X005905Y004244D02*
X005982Y004168D01*
D16*
X009749Y010758D02*
X009749Y012158D01*
X012329Y012158D01*
X012329Y010758D01*
X009749Y010758D01*
X012562Y011581D02*
X012562Y012081D01*
X012812Y012331D01*
X013312Y012331D01*
X013562Y012081D01*
X013812Y012331D01*
X014312Y012331D01*
X014562Y012081D01*
X014562Y011581D01*
X014312Y011331D01*
X013812Y011331D01*
X013562Y011581D01*
X013312Y011331D01*
X012812Y011331D01*
X012562Y011581D01*
X014710Y011622D02*
X014710Y012122D01*
X014960Y012372D01*
X015460Y012372D01*
X015710Y012122D01*
X015960Y012372D01*
X016460Y012372D01*
X016710Y012122D01*
X016710Y011622D01*
X016460Y011372D01*
X015960Y011372D01*
X015710Y011622D01*
X015460Y011372D01*
X014960Y011372D01*
X014710Y011622D01*
X015917Y008329D02*
X015917Y003211D01*
X021917Y003211D01*
X021917Y008329D01*
X015917Y008329D01*
X022600Y008551D02*
X022600Y009051D01*
X022850Y009301D01*
X022600Y009551D01*
X022600Y010051D01*
X022850Y010301D01*
X022600Y010551D01*
X022600Y011051D01*
X022850Y011301D01*
X023350Y011301D01*
X023600Y011051D01*
X023600Y010551D01*
X023350Y010301D01*
X023600Y010051D01*
X023600Y009551D01*
X023350Y009301D01*
X023600Y009051D01*
X023600Y008551D01*
X023350Y008301D01*
X023600Y008051D01*
X023600Y007551D01*
X023350Y007301D01*
X023600Y007051D01*
X023600Y006551D01*
X023350Y006301D01*
X023600Y006051D01*
X023600Y005551D01*
X023350Y005301D01*
X023600Y005051D01*
X023600Y004551D01*
X023350Y004301D01*
X023600Y004051D01*
X023600Y003551D01*
X023350Y003301D01*
X022850Y003301D01*
X022600Y003551D01*
X022600Y004051D01*
X022850Y004301D01*
X022600Y004551D01*
X022600Y005051D01*
X022850Y005301D01*
X022600Y005551D01*
X022600Y006051D01*
X022850Y006301D01*
X022600Y006551D01*
X022600Y007051D01*
X022850Y007301D01*
X022600Y007551D01*
X022600Y008051D01*
X022850Y008301D01*
X022600Y008551D01*
X007110Y017824D02*
X005821Y017824D01*
X005821Y018913D02*
X007110Y018913D01*
D17*
X017264Y011534D02*
X017264Y011497D01*
X017301Y011460D01*
X017411Y011460D01*
X017411Y011534D01*
X017374Y011570D01*
X017301Y011570D01*
X017264Y011534D01*
X017337Y011387D02*
X017411Y011460D01*
X017337Y011387D02*
X017264Y011350D01*
X017485Y011387D02*
X017522Y011350D01*
X017595Y011350D01*
X017632Y011387D01*
X017632Y011534D01*
X017595Y011570D01*
X017522Y011570D01*
X017485Y011534D01*
X018141Y010458D02*
X020841Y010458D01*
X020841Y010158D02*
X018141Y010158D01*
X019041Y009658D02*
X019241Y009658D01*
X019741Y009658D02*
X019941Y009658D01*
X020841Y009158D02*
X018141Y009158D01*
X018141Y008858D02*
X020841Y008858D01*
X009730Y005929D02*
X007730Y005929D01*
X007570Y005953D02*
X007570Y006026D01*
X007533Y006063D01*
X007533Y006137D02*
X007570Y006174D01*
X007570Y006247D01*
X007533Y006284D01*
X007386Y006284D01*
X007350Y006247D01*
X007350Y006174D01*
X007386Y006137D01*
X007423Y006137D01*
X007460Y006174D01*
X007460Y006284D01*
X007386Y006063D02*
X007350Y006026D01*
X007350Y005953D01*
X007386Y005916D01*
X007533Y005916D01*
X007570Y005953D01*
X007570Y005842D02*
X007570Y005769D01*
X007570Y005806D02*
X007350Y005806D01*
X007350Y005842D02*
X007350Y005769D01*
D18*
X017472Y009202D02*
X017488Y009213D01*
X017487Y009213D02*
X017520Y009168D01*
X017555Y009126D01*
X017594Y009087D01*
X017634Y009050D01*
X017678Y009017D01*
X017723Y008986D01*
X017771Y008959D01*
X017820Y008935D01*
X017871Y008914D01*
X017924Y008897D01*
X017977Y008884D01*
X018031Y008875D01*
X018086Y008869D01*
X018141Y008867D01*
X018141Y008849D01*
X018141Y008848D01*
X018084Y008850D01*
X018028Y008856D01*
X017973Y008866D01*
X017918Y008879D01*
X017865Y008896D01*
X017813Y008917D01*
X017762Y008942D01*
X017713Y008970D01*
X017667Y009001D01*
X017622Y009036D01*
X017580Y009073D01*
X017541Y009114D01*
X017505Y009157D01*
X017472Y009202D01*
X017472Y009203D01*
X017506Y009157D01*
X017542Y009114D01*
X017581Y009074D01*
X017623Y009037D01*
X017667Y009002D01*
X017714Y008971D01*
X017763Y008943D01*
X017813Y008918D01*
X017865Y008897D01*
X017919Y008880D01*
X017973Y008867D01*
X018029Y008857D01*
X018084Y008851D01*
X018141Y008849D01*
X018141Y008850D01*
X018084Y008852D01*
X018029Y008858D01*
X017973Y008868D01*
X017919Y008881D01*
X017866Y008898D01*
X017814Y008919D01*
X017763Y008944D01*
X017714Y008972D01*
X017668Y009003D01*
X017624Y009037D01*
X017582Y009075D01*
X017543Y009115D01*
X017506Y009158D01*
X017473Y009203D01*
X017474Y009204D01*
X017507Y009158D01*
X017543Y009116D01*
X017582Y009076D01*
X017624Y009038D01*
X017668Y009004D01*
X017715Y008973D01*
X017764Y008945D01*
X017814Y008920D01*
X017866Y008899D01*
X017919Y008882D01*
X017974Y008869D01*
X018029Y008859D01*
X018085Y008853D01*
X018141Y008851D01*
X018141Y008852D01*
X018085Y008854D01*
X018029Y008860D01*
X017974Y008870D01*
X017920Y008883D01*
X017866Y008900D01*
X017814Y008921D01*
X017764Y008946D01*
X017716Y008973D01*
X017669Y009005D01*
X017625Y009039D01*
X017583Y009076D01*
X017544Y009116D01*
X017508Y009159D01*
X017475Y009204D01*
X017476Y009205D01*
X017509Y009160D01*
X017545Y009117D01*
X017584Y009077D01*
X017625Y009040D01*
X017670Y009005D01*
X017716Y008974D01*
X017765Y008946D01*
X017815Y008922D01*
X017867Y008901D01*
X017920Y008884D01*
X017974Y008871D01*
X018029Y008861D01*
X018085Y008855D01*
X018141Y008853D01*
X018141Y008854D01*
X018085Y008856D01*
X018029Y008862D01*
X017974Y008871D01*
X017920Y008885D01*
X017867Y008902D01*
X017815Y008923D01*
X017765Y008947D01*
X017717Y008975D01*
X017670Y009006D01*
X017626Y009040D01*
X017585Y009078D01*
X017546Y009118D01*
X017510Y009160D01*
X017477Y009205D01*
X017477Y009206D01*
X017510Y009161D01*
X017546Y009118D01*
X017585Y009078D01*
X017627Y009041D01*
X017671Y009007D01*
X017717Y008976D01*
X017765Y008948D01*
X017816Y008924D01*
X017867Y008903D01*
X017920Y008886D01*
X017974Y008872D01*
X018029Y008863D01*
X018085Y008857D01*
X018141Y008855D01*
X018141Y008856D01*
X018085Y008858D01*
X018029Y008864D01*
X017975Y008873D01*
X017921Y008887D01*
X017868Y008904D01*
X017816Y008925D01*
X017766Y008949D01*
X017718Y008977D01*
X017671Y009008D01*
X017627Y009042D01*
X017586Y009079D01*
X017547Y009119D01*
X017511Y009162D01*
X017478Y009206D01*
X017479Y009207D01*
X017512Y009162D01*
X017548Y009120D01*
X017587Y009080D01*
X017628Y009043D01*
X017672Y009009D01*
X017718Y008978D01*
X017766Y008950D01*
X017816Y008926D01*
X017868Y008905D01*
X017921Y008888D01*
X017975Y008874D01*
X018030Y008865D01*
X018085Y008859D01*
X018141Y008857D01*
X018141Y008858D01*
X018085Y008860D01*
X018030Y008866D01*
X017975Y008875D01*
X017921Y008889D01*
X017868Y008906D01*
X017817Y008927D01*
X017767Y008951D01*
X017719Y008979D01*
X017673Y009009D01*
X017629Y009044D01*
X017587Y009081D01*
X017549Y009120D01*
X017513Y009163D01*
X017480Y009208D01*
X017481Y009208D01*
X017513Y009163D01*
X017549Y009121D01*
X017588Y009081D01*
X017629Y009044D01*
X017673Y009010D01*
X017719Y008979D01*
X017767Y008952D01*
X017817Y008928D01*
X017869Y008907D01*
X017921Y008890D01*
X017975Y008876D01*
X018030Y008867D01*
X018085Y008861D01*
X018141Y008859D01*
X018141Y008860D01*
X018085Y008862D01*
X018030Y008868D01*
X017975Y008877D01*
X017922Y008891D01*
X017869Y008908D01*
X017818Y008928D01*
X017768Y008953D01*
X017720Y008980D01*
X017674Y009011D01*
X017630Y009045D01*
X017589Y009082D01*
X017550Y009122D01*
X017514Y009164D01*
X017481Y009209D01*
X017482Y009209D01*
X017515Y009165D01*
X017551Y009122D01*
X017589Y009083D01*
X017631Y009046D01*
X017674Y009012D01*
X017720Y008981D01*
X017768Y008954D01*
X017818Y008929D01*
X017869Y008909D01*
X017922Y008892D01*
X017976Y008878D01*
X018030Y008869D01*
X018085Y008863D01*
X018141Y008861D01*
X018141Y008862D01*
X018085Y008864D01*
X018030Y008870D01*
X017976Y008879D01*
X017922Y008893D01*
X017870Y008910D01*
X017818Y008930D01*
X017769Y008954D01*
X017721Y008982D01*
X017675Y009013D01*
X017631Y009047D01*
X017590Y009083D01*
X017552Y009123D01*
X017516Y009165D01*
X017483Y009210D01*
X017484Y009210D01*
X017517Y009166D01*
X017552Y009124D01*
X017591Y009084D01*
X017632Y009047D01*
X017675Y009014D01*
X017721Y008983D01*
X017769Y008955D01*
X017819Y008931D01*
X017870Y008911D01*
X017923Y008894D01*
X017976Y008880D01*
X018030Y008871D01*
X018085Y008865D01*
X018141Y008863D01*
X018141Y008864D01*
X018085Y008866D01*
X018031Y008872D01*
X017976Y008881D01*
X017923Y008895D01*
X017870Y008912D01*
X017819Y008932D01*
X017770Y008956D01*
X017722Y008984D01*
X017676Y009014D01*
X017633Y009048D01*
X017591Y009085D01*
X017553Y009124D01*
X017517Y009167D01*
X017485Y009211D01*
X017486Y009212D01*
X017518Y009167D01*
X017554Y009125D01*
X017592Y009086D01*
X017633Y009049D01*
X017677Y009015D01*
X017722Y008984D01*
X017770Y008957D01*
X017820Y008933D01*
X017871Y008912D01*
X017923Y008896D01*
X017977Y008882D01*
X018031Y008873D01*
X018085Y008867D01*
X018141Y008865D01*
X018141Y008866D01*
X018086Y008868D01*
X018031Y008874D01*
X017977Y008883D01*
X017923Y008896D01*
X017871Y008913D01*
X017820Y008934D01*
X017771Y008958D01*
X017723Y008985D01*
X017677Y009016D01*
X017634Y009050D01*
X017593Y009086D01*
X017554Y009126D01*
X017519Y009168D01*
X017486Y009212D01*
X018141Y010167D02*
X018141Y010148D01*
X018141Y010149D02*
X018104Y010148D01*
X018067Y010143D01*
X018031Y010137D01*
X017996Y010127D01*
X017961Y010115D01*
X017927Y010100D01*
X017920Y010117D01*
X017919Y010117D01*
X017954Y010133D01*
X017990Y010145D01*
X018027Y010155D01*
X018064Y010162D01*
X018102Y010167D01*
X018141Y010168D01*
X018141Y010167D01*
X018102Y010166D01*
X018065Y010161D01*
X018027Y010154D01*
X017990Y010144D01*
X017954Y010132D01*
X017920Y010116D01*
X017920Y010115D01*
X017955Y010131D01*
X017991Y010143D01*
X018027Y010153D01*
X018065Y010160D01*
X018103Y010165D01*
X018141Y010166D01*
X018141Y010165D01*
X018103Y010164D01*
X018065Y010159D01*
X018028Y010152D01*
X017991Y010142D01*
X017955Y010130D01*
X017920Y010115D01*
X017921Y010114D01*
X017956Y010129D01*
X017991Y010141D01*
X018028Y010151D01*
X018065Y010158D01*
X018103Y010163D01*
X018141Y010164D01*
X018141Y010163D01*
X018103Y010162D01*
X018065Y010157D01*
X018028Y010150D01*
X017992Y010140D01*
X017956Y010128D01*
X017921Y010113D01*
X017922Y010112D01*
X017956Y010127D01*
X017992Y010139D01*
X018028Y010149D01*
X018065Y010156D01*
X018103Y010161D01*
X018141Y010162D01*
X018141Y010161D01*
X018103Y010160D01*
X018066Y010155D01*
X018029Y010148D01*
X017992Y010138D01*
X017957Y010126D01*
X017922Y010111D01*
X017923Y010110D01*
X017957Y010125D01*
X017992Y010138D01*
X018029Y010147D01*
X018066Y010154D01*
X018103Y010159D01*
X018141Y010160D01*
X018141Y010159D01*
X018103Y010158D01*
X018066Y010153D01*
X018029Y010146D01*
X017993Y010137D01*
X017957Y010124D01*
X017923Y010109D01*
X017924Y010108D01*
X017958Y010123D01*
X017993Y010136D01*
X018029Y010145D01*
X018066Y010152D01*
X018103Y010157D01*
X018141Y010158D01*
X018141Y010157D01*
X018103Y010156D01*
X018066Y010151D01*
X018029Y010144D01*
X017993Y010135D01*
X017958Y010122D01*
X017924Y010107D01*
X017924Y010106D01*
X017959Y010121D01*
X017994Y010134D01*
X018030Y010143D01*
X018066Y010150D01*
X018103Y010155D01*
X018141Y010156D01*
X018141Y010155D01*
X018103Y010154D01*
X018066Y010149D01*
X018030Y010142D01*
X017994Y010133D01*
X017959Y010120D01*
X017925Y010106D01*
X017925Y010105D01*
X017959Y010119D01*
X017994Y010132D01*
X018030Y010141D01*
X018067Y010148D01*
X018103Y010153D01*
X018141Y010154D01*
X018141Y010153D01*
X018103Y010152D01*
X018067Y010147D01*
X018030Y010140D01*
X017995Y010131D01*
X017960Y010119D01*
X017926Y010104D01*
X017926Y010103D01*
X017960Y010118D01*
X017995Y010130D01*
X018031Y010139D01*
X018067Y010146D01*
X018104Y010151D01*
X018141Y010152D01*
X018141Y010151D01*
X018104Y010150D01*
X018067Y010145D01*
X018031Y010139D01*
X017995Y010129D01*
X017960Y010117D01*
X017927Y010102D01*
X017927Y010101D01*
X017961Y010116D01*
X017995Y010128D01*
X018031Y010138D01*
X018067Y010144D01*
X018104Y010149D01*
X018141Y010150D01*
X017920Y009199D02*
X017928Y009216D01*
X017927Y009216D02*
X017961Y009201D01*
X017996Y009189D01*
X018031Y009179D01*
X018067Y009173D01*
X018104Y009168D01*
X018141Y009167D01*
X018141Y009149D01*
X018141Y009148D01*
X018102Y009149D01*
X018064Y009154D01*
X018027Y009161D01*
X017990Y009171D01*
X017954Y009183D01*
X017919Y009199D01*
X017920Y009200D01*
X017954Y009184D01*
X017990Y009172D01*
X018027Y009162D01*
X018065Y009155D01*
X018102Y009150D01*
X018141Y009149D01*
X018141Y009150D01*
X018103Y009151D01*
X018065Y009156D01*
X018027Y009163D01*
X017991Y009173D01*
X017955Y009185D01*
X017920Y009201D01*
X017955Y009186D01*
X017991Y009174D01*
X018028Y009164D01*
X018065Y009157D01*
X018103Y009152D01*
X018141Y009151D01*
X018141Y009152D01*
X018103Y009153D01*
X018065Y009158D01*
X018028Y009165D01*
X017991Y009175D01*
X017956Y009187D01*
X017921Y009202D01*
X017921Y009203D01*
X017956Y009188D01*
X017992Y009176D01*
X018028Y009166D01*
X018065Y009159D01*
X018103Y009154D01*
X018141Y009153D01*
X018141Y009154D01*
X018103Y009155D01*
X018065Y009160D01*
X018028Y009167D01*
X017992Y009177D01*
X017956Y009189D01*
X017922Y009204D01*
X017922Y009205D01*
X017957Y009190D01*
X017992Y009178D01*
X018029Y009168D01*
X018066Y009161D01*
X018103Y009156D01*
X018141Y009155D01*
X018141Y009156D01*
X018103Y009157D01*
X018066Y009162D01*
X018029Y009169D01*
X017992Y009178D01*
X017957Y009191D01*
X017923Y009206D01*
X017923Y009207D01*
X017957Y009192D01*
X017993Y009179D01*
X018029Y009170D01*
X018066Y009163D01*
X018103Y009158D01*
X018141Y009157D01*
X018141Y009158D01*
X018103Y009159D01*
X018066Y009164D01*
X018029Y009171D01*
X017993Y009180D01*
X017958Y009193D01*
X017924Y009208D01*
X017924Y009209D01*
X017958Y009194D01*
X017993Y009181D01*
X018029Y009172D01*
X018066Y009165D01*
X018103Y009160D01*
X018141Y009159D01*
X018141Y009160D01*
X018103Y009161D01*
X018066Y009166D01*
X018030Y009173D01*
X017994Y009182D01*
X017959Y009195D01*
X017924Y009210D01*
X017925Y009210D01*
X017959Y009196D01*
X017994Y009183D01*
X018030Y009174D01*
X018066Y009167D01*
X018103Y009162D01*
X018141Y009161D01*
X018141Y009162D01*
X018103Y009163D01*
X018067Y009168D01*
X018030Y009175D01*
X017994Y009184D01*
X017959Y009197D01*
X017925Y009211D01*
X017926Y009212D01*
X017960Y009197D01*
X017995Y009185D01*
X018030Y009176D01*
X018067Y009169D01*
X018103Y009164D01*
X018141Y009163D01*
X018141Y009164D01*
X018104Y009165D01*
X018067Y009170D01*
X018031Y009177D01*
X017995Y009186D01*
X017960Y009198D01*
X017926Y009213D01*
X017927Y009214D01*
X017960Y009199D01*
X017995Y009187D01*
X018031Y009177D01*
X018067Y009171D01*
X018104Y009166D01*
X018141Y009165D01*
X018141Y009166D01*
X018104Y009167D01*
X018067Y009172D01*
X018031Y009178D01*
X017995Y009188D01*
X017961Y009200D01*
X017927Y009215D01*
X018141Y010467D02*
X018141Y010448D01*
X018140Y010449D02*
X018086Y010447D01*
X018031Y010441D01*
X017977Y010432D01*
X017924Y010419D01*
X017871Y010402D01*
X017820Y010381D01*
X017771Y010357D01*
X017723Y010330D01*
X017678Y010299D01*
X017634Y010265D01*
X017593Y010229D01*
X017555Y010190D01*
X017520Y010148D01*
X017487Y010103D01*
X017472Y010113D01*
X017472Y010114D01*
X017505Y010159D01*
X017541Y010202D01*
X017580Y010243D01*
X017622Y010280D01*
X017667Y010315D01*
X017713Y010346D01*
X017762Y010374D01*
X017813Y010398D01*
X017865Y010419D01*
X017918Y010437D01*
X017973Y010450D01*
X018028Y010460D01*
X018084Y010466D01*
X018140Y010468D01*
X018140Y010467D01*
X018084Y010465D01*
X018028Y010459D01*
X017973Y010449D01*
X017919Y010436D01*
X017865Y010419D01*
X017813Y010398D01*
X017763Y010373D01*
X017714Y010345D01*
X017667Y010314D01*
X017623Y010279D01*
X017581Y010242D01*
X017542Y010202D01*
X017506Y010159D01*
X017472Y010113D01*
X017473Y010113D01*
X017506Y010158D01*
X017543Y010201D01*
X017582Y010241D01*
X017624Y010279D01*
X017668Y010313D01*
X017714Y010344D01*
X017763Y010372D01*
X017814Y010397D01*
X017866Y010418D01*
X017919Y010435D01*
X017973Y010448D01*
X018029Y010458D01*
X018084Y010464D01*
X018140Y010466D01*
X018140Y010465D01*
X018084Y010463D01*
X018029Y010457D01*
X017974Y010447D01*
X017919Y010434D01*
X017866Y010417D01*
X017814Y010396D01*
X017764Y010371D01*
X017715Y010343D01*
X017668Y010312D01*
X017624Y010278D01*
X017582Y010240D01*
X017543Y010200D01*
X017507Y010157D01*
X017474Y010112D01*
X017475Y010112D01*
X017508Y010157D01*
X017544Y010200D01*
X017583Y010240D01*
X017625Y010277D01*
X017669Y010311D01*
X017715Y010343D01*
X017764Y010370D01*
X017814Y010395D01*
X017866Y010416D01*
X017919Y010433D01*
X017974Y010446D01*
X018029Y010456D01*
X018085Y010462D01*
X018140Y010464D01*
X018140Y010463D01*
X018085Y010461D01*
X018029Y010455D01*
X017974Y010445D01*
X017920Y010432D01*
X017867Y010415D01*
X017815Y010394D01*
X017764Y010370D01*
X017716Y010342D01*
X017670Y010311D01*
X017625Y010276D01*
X017584Y010239D01*
X017545Y010199D01*
X017509Y010156D01*
X017476Y010111D01*
X017477Y010111D01*
X017510Y010156D01*
X017546Y010198D01*
X017584Y010238D01*
X017626Y010275D01*
X017670Y010310D01*
X017717Y010341D01*
X017765Y010369D01*
X017815Y010393D01*
X017867Y010414D01*
X017920Y010431D01*
X017974Y010445D01*
X018029Y010454D01*
X018085Y010460D01*
X018140Y010462D01*
X018140Y010461D01*
X018085Y010459D01*
X018029Y010453D01*
X017974Y010444D01*
X017920Y010430D01*
X017867Y010413D01*
X017816Y010392D01*
X017765Y010368D01*
X017717Y010340D01*
X017671Y010309D01*
X017627Y010275D01*
X017585Y010238D01*
X017546Y010198D01*
X017510Y010155D01*
X017477Y010110D01*
X017478Y010109D01*
X017511Y010154D01*
X017547Y010197D01*
X017586Y010237D01*
X017627Y010274D01*
X017671Y010308D01*
X017718Y010339D01*
X017766Y010367D01*
X017816Y010391D01*
X017868Y010412D01*
X017921Y010429D01*
X017975Y010443D01*
X018029Y010452D01*
X018085Y010458D01*
X018140Y010460D01*
X018140Y010459D01*
X018085Y010457D01*
X018030Y010451D01*
X017975Y010442D01*
X017921Y010428D01*
X017868Y010411D01*
X017816Y010390D01*
X017766Y010366D01*
X017718Y010338D01*
X017672Y010307D01*
X017628Y010273D01*
X017587Y010236D01*
X017548Y010196D01*
X017512Y010154D01*
X017479Y010109D01*
X017480Y010108D01*
X017513Y010153D01*
X017549Y010196D01*
X017587Y010235D01*
X017629Y010272D01*
X017673Y010306D01*
X017719Y010337D01*
X017767Y010365D01*
X017817Y010389D01*
X017868Y010410D01*
X017921Y010427D01*
X017975Y010441D01*
X018030Y010450D01*
X018085Y010456D01*
X018140Y010458D01*
X018140Y010457D01*
X018085Y010455D01*
X018030Y010449D01*
X017975Y010440D01*
X017921Y010426D01*
X017869Y010409D01*
X017817Y010388D01*
X017767Y010364D01*
X017719Y010337D01*
X017673Y010306D01*
X017629Y010272D01*
X017588Y010235D01*
X017549Y010195D01*
X017513Y010153D01*
X017481Y010108D01*
X017481Y010107D01*
X017514Y010152D01*
X017550Y010194D01*
X017589Y010234D01*
X017630Y010271D01*
X017674Y010305D01*
X017720Y010336D01*
X017768Y010363D01*
X017818Y010388D01*
X017869Y010408D01*
X017922Y010425D01*
X017975Y010439D01*
X018030Y010448D01*
X018085Y010454D01*
X018140Y010456D01*
X018140Y010455D01*
X018085Y010453D01*
X018030Y010447D01*
X017976Y010438D01*
X017922Y010424D01*
X017869Y010407D01*
X017818Y010387D01*
X017768Y010362D01*
X017720Y010335D01*
X017674Y010304D01*
X017631Y010270D01*
X017589Y010233D01*
X017551Y010194D01*
X017515Y010151D01*
X017482Y010107D01*
X017483Y010106D01*
X017516Y010151D01*
X017551Y010193D01*
X017590Y010232D01*
X017631Y010269D01*
X017675Y010303D01*
X017721Y010334D01*
X017769Y010362D01*
X017818Y010386D01*
X017870Y010406D01*
X017922Y010423D01*
X017976Y010437D01*
X018030Y010446D01*
X018085Y010452D01*
X018140Y010454D01*
X018140Y010453D01*
X018085Y010451D01*
X018030Y010445D01*
X017976Y010436D01*
X017922Y010422D01*
X017870Y010405D01*
X017819Y010385D01*
X017769Y010361D01*
X017721Y010333D01*
X017675Y010302D01*
X017632Y010269D01*
X017591Y010232D01*
X017552Y010192D01*
X017517Y010150D01*
X017484Y010106D01*
X017485Y010105D01*
X017517Y010149D01*
X017553Y010192D01*
X017591Y010231D01*
X017632Y010268D01*
X017676Y010302D01*
X017722Y010332D01*
X017770Y010360D01*
X017819Y010384D01*
X017870Y010404D01*
X017923Y010421D01*
X017976Y010435D01*
X018031Y010444D01*
X018085Y010450D01*
X018140Y010452D01*
X018140Y010451D01*
X018085Y010449D01*
X018031Y010443D01*
X017976Y010434D01*
X017923Y010420D01*
X017871Y010403D01*
X017820Y010383D01*
X017770Y010359D01*
X017722Y010331D01*
X017677Y010301D01*
X017633Y010267D01*
X017592Y010230D01*
X017554Y010191D01*
X017518Y010149D01*
X017486Y010104D01*
X017519Y010148D01*
X017554Y010190D01*
X017593Y010230D01*
X017634Y010266D01*
X017677Y010300D01*
X017723Y010331D01*
X017771Y010358D01*
X017820Y010382D01*
X017871Y010403D01*
X017923Y010419D01*
X017977Y010433D01*
X018031Y010442D01*
X018086Y010448D01*
X018140Y010450D01*
X020841Y008849D02*
X020841Y008868D01*
X020842Y008867D02*
X020896Y008869D01*
X020951Y008875D01*
X021005Y008884D01*
X021058Y008897D01*
X021111Y008914D01*
X021162Y008935D01*
X021211Y008959D01*
X021259Y008986D01*
X021304Y009017D01*
X021348Y009050D01*
X021388Y009087D01*
X021427Y009126D01*
X021462Y009168D01*
X021495Y009213D01*
X021510Y009202D01*
X021477Y009157D01*
X021441Y009114D01*
X021402Y009073D01*
X021360Y009036D01*
X021315Y009001D01*
X021269Y008970D01*
X021220Y008942D01*
X021169Y008918D01*
X021117Y008897D01*
X021064Y008879D01*
X021009Y008866D01*
X020954Y008856D01*
X020898Y008850D01*
X020842Y008848D01*
X020842Y008849D01*
X020898Y008851D01*
X020954Y008857D01*
X021009Y008867D01*
X021063Y008880D01*
X021117Y008897D01*
X021169Y008918D01*
X021219Y008943D01*
X021268Y008971D01*
X021315Y009002D01*
X021359Y009037D01*
X021401Y009074D01*
X021440Y009114D01*
X021476Y009157D01*
X021510Y009203D01*
X021509Y009203D01*
X021476Y009158D01*
X021439Y009115D01*
X021400Y009075D01*
X021358Y009037D01*
X021314Y009003D01*
X021268Y008972D01*
X021219Y008944D01*
X021168Y008919D01*
X021116Y008898D01*
X021063Y008881D01*
X021009Y008868D01*
X020953Y008858D01*
X020898Y008852D01*
X020842Y008850D01*
X020842Y008851D01*
X020898Y008853D01*
X020953Y008859D01*
X021008Y008869D01*
X021063Y008882D01*
X021116Y008899D01*
X021168Y008920D01*
X021218Y008945D01*
X021267Y008973D01*
X021314Y009004D01*
X021358Y009038D01*
X021400Y009076D01*
X021439Y009116D01*
X021475Y009158D01*
X021508Y009204D01*
X021507Y009204D01*
X021474Y009159D01*
X021438Y009116D01*
X021399Y009076D01*
X021357Y009039D01*
X021313Y009005D01*
X021267Y008973D01*
X021218Y008946D01*
X021168Y008921D01*
X021116Y008900D01*
X021063Y008883D01*
X021008Y008870D01*
X020953Y008860D01*
X020897Y008854D01*
X020842Y008852D01*
X020842Y008853D01*
X020897Y008855D01*
X020953Y008861D01*
X021008Y008871D01*
X021062Y008884D01*
X021115Y008901D01*
X021167Y008922D01*
X021218Y008946D01*
X021266Y008974D01*
X021312Y009005D01*
X021357Y009040D01*
X021398Y009077D01*
X021437Y009117D01*
X021473Y009160D01*
X021506Y009205D01*
X021505Y009205D01*
X021472Y009160D01*
X021436Y009118D01*
X021398Y009078D01*
X021356Y009041D01*
X021312Y009006D01*
X021265Y008975D01*
X021217Y008947D01*
X021167Y008923D01*
X021115Y008902D01*
X021062Y008885D01*
X021008Y008871D01*
X020953Y008862D01*
X020897Y008856D01*
X020842Y008854D01*
X020842Y008855D01*
X020897Y008857D01*
X020953Y008863D01*
X021008Y008872D01*
X021062Y008886D01*
X021115Y008903D01*
X021166Y008924D01*
X021217Y008948D01*
X021265Y008976D01*
X021311Y009007D01*
X021355Y009041D01*
X021397Y009078D01*
X021436Y009118D01*
X021472Y009161D01*
X021505Y009206D01*
X021504Y009206D01*
X021471Y009162D01*
X021435Y009119D01*
X021396Y009079D01*
X021355Y009042D01*
X021311Y009008D01*
X021264Y008977D01*
X021216Y008949D01*
X021166Y008925D01*
X021114Y008904D01*
X021061Y008887D01*
X021007Y008873D01*
X020953Y008864D01*
X020897Y008858D01*
X020842Y008856D01*
X020842Y008857D01*
X020897Y008859D01*
X020952Y008865D01*
X021007Y008874D01*
X021061Y008888D01*
X021114Y008905D01*
X021166Y008926D01*
X021216Y008950D01*
X021264Y008978D01*
X021310Y009009D01*
X021354Y009043D01*
X021395Y009080D01*
X021434Y009120D01*
X021470Y009162D01*
X021503Y009207D01*
X021502Y009208D01*
X021469Y009163D01*
X021433Y009120D01*
X021395Y009081D01*
X021353Y009044D01*
X021309Y009010D01*
X021263Y008979D01*
X021215Y008951D01*
X021165Y008927D01*
X021114Y008906D01*
X021061Y008889D01*
X021007Y008875D01*
X020952Y008866D01*
X020897Y008860D01*
X020842Y008858D01*
X020842Y008859D01*
X020897Y008861D01*
X020952Y008867D01*
X021007Y008876D01*
X021061Y008890D01*
X021113Y008907D01*
X021165Y008928D01*
X021215Y008952D01*
X021263Y008979D01*
X021309Y009010D01*
X021353Y009044D01*
X021394Y009081D01*
X021433Y009121D01*
X021469Y009163D01*
X021501Y009208D01*
X021501Y009209D01*
X021468Y009164D01*
X021432Y009122D01*
X021393Y009082D01*
X021352Y009045D01*
X021308Y009011D01*
X021262Y008980D01*
X021214Y008953D01*
X021164Y008928D01*
X021113Y008908D01*
X021060Y008891D01*
X021007Y008877D01*
X020952Y008868D01*
X020897Y008862D01*
X020842Y008860D01*
X020842Y008861D01*
X020897Y008863D01*
X020952Y008869D01*
X021006Y008878D01*
X021060Y008892D01*
X021113Y008909D01*
X021164Y008929D01*
X021214Y008954D01*
X021262Y008981D01*
X021308Y009012D01*
X021351Y009046D01*
X021393Y009083D01*
X021431Y009122D01*
X021467Y009165D01*
X021500Y009209D01*
X021499Y009210D01*
X021466Y009165D01*
X021430Y009123D01*
X021392Y009083D01*
X021351Y009047D01*
X021307Y009013D01*
X021261Y008982D01*
X021213Y008954D01*
X021164Y008930D01*
X021112Y008910D01*
X021060Y008893D01*
X021006Y008879D01*
X020952Y008870D01*
X020897Y008864D01*
X020842Y008862D01*
X020842Y008863D01*
X020897Y008865D01*
X020952Y008871D01*
X021006Y008880D01*
X021059Y008894D01*
X021112Y008911D01*
X021163Y008931D01*
X021213Y008955D01*
X021261Y008983D01*
X021307Y009014D01*
X021350Y009047D01*
X021391Y009084D01*
X021430Y009124D01*
X021465Y009166D01*
X021498Y009210D01*
X021497Y009211D01*
X021465Y009167D01*
X021429Y009124D01*
X021391Y009085D01*
X021349Y009048D01*
X021306Y009014D01*
X021260Y008984D01*
X021212Y008956D01*
X021163Y008932D01*
X021112Y008912D01*
X021059Y008895D01*
X021006Y008881D01*
X020951Y008872D01*
X020897Y008866D01*
X020842Y008864D01*
X020842Y008865D01*
X020897Y008867D01*
X020951Y008873D01*
X021006Y008882D01*
X021059Y008896D01*
X021111Y008912D01*
X021162Y008933D01*
X021212Y008957D01*
X021260Y008985D01*
X021305Y009015D01*
X021349Y009049D01*
X021390Y009086D01*
X021428Y009125D01*
X021464Y009167D01*
X021496Y009212D01*
X021463Y009168D01*
X021428Y009126D01*
X021389Y009086D01*
X021348Y009050D01*
X021305Y009016D01*
X021259Y008985D01*
X021211Y008958D01*
X021162Y008934D01*
X021111Y008913D01*
X021059Y008896D01*
X021005Y008883D01*
X020951Y008874D01*
X020896Y008868D01*
X020842Y008866D01*
X020841Y009149D02*
X020841Y009168D01*
X020841Y009167D02*
X020878Y009168D01*
X020915Y009173D01*
X020951Y009179D01*
X020986Y009189D01*
X021021Y009201D01*
X021055Y009216D01*
X021062Y009199D01*
X021063Y009199D01*
X021028Y009183D01*
X020992Y009171D01*
X020955Y009161D01*
X020918Y009154D01*
X020880Y009149D01*
X020841Y009148D01*
X020841Y009149D01*
X020880Y009150D01*
X020917Y009155D01*
X020955Y009162D01*
X020992Y009172D01*
X021028Y009184D01*
X021062Y009200D01*
X021062Y009201D01*
X021027Y009185D01*
X020991Y009173D01*
X020955Y009163D01*
X020917Y009156D01*
X020879Y009151D01*
X020841Y009150D01*
X020841Y009151D01*
X020879Y009152D01*
X020917Y009157D01*
X020954Y009164D01*
X020991Y009174D01*
X021027Y009186D01*
X021062Y009201D01*
X021061Y009202D01*
X021026Y009187D01*
X020991Y009175D01*
X020954Y009165D01*
X020917Y009158D01*
X020879Y009153D01*
X020841Y009152D01*
X020841Y009153D01*
X020879Y009154D01*
X020917Y009159D01*
X020954Y009166D01*
X020990Y009176D01*
X021026Y009188D01*
X021061Y009203D01*
X021060Y009204D01*
X021026Y009189D01*
X020990Y009177D01*
X020954Y009167D01*
X020917Y009160D01*
X020879Y009155D01*
X020841Y009154D01*
X020841Y009155D01*
X020879Y009156D01*
X020916Y009161D01*
X020953Y009168D01*
X020990Y009178D01*
X021025Y009190D01*
X021060Y009205D01*
X021059Y009206D01*
X021025Y009191D01*
X020990Y009178D01*
X020953Y009169D01*
X020916Y009162D01*
X020879Y009157D01*
X020841Y009156D01*
X020841Y009157D01*
X020879Y009158D01*
X020916Y009163D01*
X020953Y009170D01*
X020989Y009179D01*
X021025Y009192D01*
X021059Y009207D01*
X021058Y009208D01*
X021024Y009193D01*
X020989Y009180D01*
X020953Y009171D01*
X020916Y009164D01*
X020879Y009159D01*
X020841Y009158D01*
X020841Y009159D01*
X020879Y009160D01*
X020916Y009165D01*
X020953Y009172D01*
X020989Y009181D01*
X021024Y009194D01*
X021058Y009209D01*
X021058Y009210D01*
X021023Y009195D01*
X020988Y009182D01*
X020952Y009173D01*
X020916Y009166D01*
X020879Y009161D01*
X020841Y009160D01*
X020841Y009161D01*
X020879Y009162D01*
X020916Y009167D01*
X020952Y009174D01*
X020988Y009183D01*
X021023Y009196D01*
X021057Y009210D01*
X021057Y009211D01*
X021023Y009197D01*
X020988Y009184D01*
X020952Y009175D01*
X020915Y009168D01*
X020879Y009163D01*
X020841Y009162D01*
X020841Y009163D01*
X020879Y009164D01*
X020915Y009169D01*
X020952Y009176D01*
X020987Y009185D01*
X021022Y009197D01*
X021056Y009212D01*
X021056Y009213D01*
X021022Y009198D01*
X020987Y009186D01*
X020951Y009177D01*
X020915Y009170D01*
X020878Y009165D01*
X020841Y009164D01*
X020841Y009165D01*
X020878Y009166D01*
X020915Y009171D01*
X020951Y009177D01*
X020987Y009187D01*
X021022Y009199D01*
X021055Y009214D01*
X021055Y009215D01*
X021021Y009200D01*
X020987Y009188D01*
X020951Y009178D01*
X020915Y009172D01*
X020878Y009167D01*
X020841Y009166D01*
X021062Y010117D02*
X021054Y010100D01*
X021055Y010100D02*
X021021Y010115D01*
X020986Y010127D01*
X020951Y010137D01*
X020915Y010143D01*
X020878Y010148D01*
X020841Y010149D01*
X020841Y010167D01*
X020841Y010168D01*
X020880Y010167D01*
X020918Y010162D01*
X020955Y010155D01*
X020992Y010145D01*
X021028Y010133D01*
X021063Y010117D01*
X021062Y010116D01*
X021028Y010132D01*
X020992Y010144D01*
X020955Y010154D01*
X020917Y010161D01*
X020880Y010166D01*
X020841Y010167D01*
X020841Y010166D01*
X020879Y010165D01*
X020917Y010160D01*
X020955Y010153D01*
X020991Y010143D01*
X021027Y010131D01*
X021062Y010115D01*
X021027Y010130D01*
X020991Y010142D01*
X020954Y010152D01*
X020917Y010159D01*
X020879Y010164D01*
X020841Y010165D01*
X020841Y010164D01*
X020879Y010163D01*
X020917Y010158D01*
X020954Y010151D01*
X020991Y010141D01*
X021026Y010129D01*
X021061Y010114D01*
X021061Y010113D01*
X021026Y010128D01*
X020990Y010140D01*
X020954Y010150D01*
X020917Y010157D01*
X020879Y010162D01*
X020841Y010163D01*
X020841Y010162D01*
X020879Y010161D01*
X020917Y010156D01*
X020954Y010149D01*
X020990Y010139D01*
X021026Y010127D01*
X021060Y010112D01*
X021060Y010111D01*
X021025Y010126D01*
X020990Y010138D01*
X020953Y010148D01*
X020916Y010155D01*
X020879Y010160D01*
X020841Y010161D01*
X020841Y010160D01*
X020879Y010159D01*
X020916Y010154D01*
X020953Y010147D01*
X020990Y010138D01*
X021025Y010125D01*
X021059Y010110D01*
X021059Y010109D01*
X021025Y010124D01*
X020989Y010137D01*
X020953Y010146D01*
X020916Y010153D01*
X020879Y010158D01*
X020841Y010159D01*
X020841Y010158D01*
X020879Y010157D01*
X020916Y010152D01*
X020953Y010145D01*
X020989Y010136D01*
X021024Y010123D01*
X021058Y010108D01*
X021058Y010107D01*
X021024Y010122D01*
X020989Y010135D01*
X020953Y010144D01*
X020916Y010151D01*
X020879Y010156D01*
X020841Y010157D01*
X020841Y010156D01*
X020879Y010155D01*
X020916Y010150D01*
X020952Y010143D01*
X020988Y010134D01*
X021023Y010121D01*
X021058Y010106D01*
X021057Y010106D01*
X021023Y010120D01*
X020988Y010133D01*
X020952Y010142D01*
X020916Y010149D01*
X020879Y010154D01*
X020841Y010155D01*
X020841Y010154D01*
X020879Y010153D01*
X020915Y010148D01*
X020952Y010141D01*
X020988Y010132D01*
X021023Y010119D01*
X021057Y010105D01*
X021056Y010104D01*
X021022Y010119D01*
X020987Y010131D01*
X020952Y010140D01*
X020915Y010147D01*
X020879Y010152D01*
X020841Y010153D01*
X020841Y010152D01*
X020878Y010151D01*
X020915Y010146D01*
X020951Y010139D01*
X020987Y010130D01*
X021022Y010118D01*
X021056Y010103D01*
X021055Y010102D01*
X021022Y010117D01*
X020987Y010129D01*
X020951Y010139D01*
X020915Y010145D01*
X020878Y010150D01*
X020841Y010151D01*
X020841Y010150D01*
X020878Y010149D01*
X020915Y010144D01*
X020951Y010138D01*
X020987Y010128D01*
X021021Y010116D01*
X021055Y010101D01*
X021510Y010114D02*
X021494Y010103D01*
X021495Y010103D02*
X021462Y010148D01*
X021427Y010190D01*
X021388Y010229D01*
X021348Y010266D01*
X021304Y010299D01*
X021259Y010330D01*
X021211Y010357D01*
X021162Y010381D01*
X021111Y010402D01*
X021058Y010419D01*
X021005Y010432D01*
X020951Y010441D01*
X020896Y010447D01*
X020841Y010449D01*
X020841Y010467D01*
X020841Y010468D01*
X020898Y010466D01*
X020954Y010460D01*
X021009Y010450D01*
X021064Y010437D01*
X021117Y010420D01*
X021169Y010399D01*
X021220Y010374D01*
X021269Y010346D01*
X021315Y010315D01*
X021360Y010280D01*
X021402Y010243D01*
X021441Y010202D01*
X021477Y010159D01*
X021510Y010114D01*
X021510Y010113D01*
X021476Y010159D01*
X021440Y010202D01*
X021401Y010242D01*
X021359Y010279D01*
X021315Y010314D01*
X021268Y010345D01*
X021219Y010373D01*
X021169Y010398D01*
X021117Y010419D01*
X021063Y010436D01*
X021009Y010449D01*
X020953Y010459D01*
X020898Y010465D01*
X020841Y010467D01*
X020841Y010466D01*
X020898Y010464D01*
X020953Y010458D01*
X021009Y010448D01*
X021063Y010435D01*
X021116Y010418D01*
X021168Y010397D01*
X021219Y010372D01*
X021268Y010344D01*
X021314Y010313D01*
X021358Y010279D01*
X021400Y010241D01*
X021439Y010201D01*
X021476Y010158D01*
X021509Y010113D01*
X021508Y010112D01*
X021475Y010158D01*
X021439Y010200D01*
X021400Y010240D01*
X021358Y010278D01*
X021314Y010312D01*
X021267Y010343D01*
X021218Y010371D01*
X021168Y010396D01*
X021116Y010417D01*
X021063Y010434D01*
X021008Y010447D01*
X020953Y010457D01*
X020897Y010463D01*
X020841Y010465D01*
X020841Y010464D01*
X020897Y010462D01*
X020953Y010456D01*
X021008Y010446D01*
X021062Y010433D01*
X021116Y010416D01*
X021168Y010395D01*
X021218Y010370D01*
X021266Y010343D01*
X021313Y010311D01*
X021357Y010277D01*
X021399Y010240D01*
X021438Y010200D01*
X021474Y010157D01*
X021507Y010112D01*
X021506Y010111D01*
X021473Y010156D01*
X021437Y010199D01*
X021398Y010239D01*
X021357Y010276D01*
X021312Y010311D01*
X021266Y010342D01*
X021217Y010370D01*
X021167Y010394D01*
X021115Y010415D01*
X021062Y010432D01*
X021008Y010445D01*
X020953Y010455D01*
X020897Y010461D01*
X020841Y010463D01*
X020841Y010462D01*
X020897Y010460D01*
X020953Y010454D01*
X021008Y010445D01*
X021062Y010431D01*
X021115Y010414D01*
X021167Y010393D01*
X021217Y010369D01*
X021265Y010341D01*
X021312Y010310D01*
X021356Y010276D01*
X021397Y010238D01*
X021436Y010198D01*
X021472Y010156D01*
X021505Y010111D01*
X021505Y010110D01*
X021472Y010155D01*
X021436Y010198D01*
X021397Y010238D01*
X021355Y010275D01*
X021311Y010309D01*
X021265Y010340D01*
X021217Y010368D01*
X021166Y010392D01*
X021115Y010413D01*
X021062Y010430D01*
X021008Y010444D01*
X020953Y010453D01*
X020897Y010459D01*
X020841Y010461D01*
X020841Y010460D01*
X020897Y010458D01*
X020953Y010452D01*
X021007Y010443D01*
X021061Y010429D01*
X021114Y010412D01*
X021166Y010391D01*
X021216Y010367D01*
X021264Y010339D01*
X021311Y010308D01*
X021355Y010274D01*
X021396Y010237D01*
X021435Y010197D01*
X021471Y010154D01*
X021504Y010110D01*
X021503Y010109D01*
X021470Y010154D01*
X021434Y010196D01*
X021395Y010236D01*
X021354Y010273D01*
X021310Y010307D01*
X021264Y010338D01*
X021216Y010366D01*
X021166Y010390D01*
X021114Y010411D01*
X021061Y010428D01*
X021007Y010442D01*
X020952Y010451D01*
X020897Y010457D01*
X020841Y010459D01*
X020841Y010458D01*
X020897Y010456D01*
X020952Y010450D01*
X021007Y010441D01*
X021061Y010427D01*
X021114Y010410D01*
X021165Y010389D01*
X021215Y010365D01*
X021263Y010337D01*
X021309Y010307D01*
X021353Y010272D01*
X021395Y010235D01*
X021433Y010196D01*
X021469Y010153D01*
X021502Y010108D01*
X021501Y010108D01*
X021469Y010153D01*
X021433Y010195D01*
X021394Y010235D01*
X021353Y010272D01*
X021309Y010306D01*
X021263Y010337D01*
X021215Y010364D01*
X021165Y010388D01*
X021113Y010409D01*
X021061Y010426D01*
X021007Y010440D01*
X020952Y010449D01*
X020897Y010455D01*
X020841Y010457D01*
X020841Y010456D01*
X020897Y010454D01*
X020952Y010448D01*
X021007Y010439D01*
X021060Y010425D01*
X021113Y010408D01*
X021164Y010388D01*
X021214Y010363D01*
X021262Y010336D01*
X021308Y010305D01*
X021352Y010271D01*
X021393Y010234D01*
X021432Y010194D01*
X021468Y010152D01*
X021501Y010107D01*
X021500Y010107D01*
X021467Y010151D01*
X021431Y010194D01*
X021393Y010233D01*
X021351Y010270D01*
X021308Y010304D01*
X021262Y010335D01*
X021214Y010362D01*
X021164Y010387D01*
X021113Y010407D01*
X021060Y010424D01*
X021006Y010438D01*
X020952Y010447D01*
X020897Y010453D01*
X020841Y010455D01*
X020841Y010454D01*
X020897Y010452D01*
X020952Y010446D01*
X021006Y010437D01*
X021060Y010423D01*
X021112Y010406D01*
X021164Y010386D01*
X021213Y010362D01*
X021261Y010334D01*
X021307Y010303D01*
X021351Y010269D01*
X021392Y010233D01*
X021430Y010193D01*
X021466Y010151D01*
X021499Y010106D01*
X021498Y010106D01*
X021465Y010150D01*
X021430Y010192D01*
X021391Y010232D01*
X021350Y010269D01*
X021307Y010302D01*
X021261Y010333D01*
X021213Y010361D01*
X021163Y010385D01*
X021112Y010405D01*
X021059Y010422D01*
X021006Y010436D01*
X020952Y010445D01*
X020897Y010451D01*
X020841Y010453D01*
X020841Y010452D01*
X020897Y010450D01*
X020951Y010444D01*
X021006Y010435D01*
X021059Y010421D01*
X021112Y010404D01*
X021163Y010384D01*
X021212Y010360D01*
X021260Y010332D01*
X021306Y010302D01*
X021349Y010268D01*
X021391Y010231D01*
X021429Y010192D01*
X021465Y010149D01*
X021497Y010105D01*
X021496Y010104D01*
X021464Y010149D01*
X021428Y010191D01*
X021390Y010230D01*
X021349Y010267D01*
X021305Y010301D01*
X021260Y010332D01*
X021212Y010359D01*
X021162Y010383D01*
X021111Y010404D01*
X021059Y010420D01*
X021005Y010434D01*
X020951Y010443D01*
X020897Y010449D01*
X020841Y010451D01*
X020841Y010450D01*
X020896Y010448D01*
X020951Y010442D01*
X021005Y010433D01*
X021059Y010420D01*
X021111Y010403D01*
X021162Y010382D01*
X021211Y010358D01*
X021259Y010331D01*
X021305Y010300D01*
X021348Y010266D01*
X021389Y010230D01*
X021428Y010190D01*
X021463Y010148D01*
X021496Y010104D01*
D19*
X022962Y020335D03*
X022962Y021735D03*
X005432Y021282D03*
M02*
