G75*
G70*
%OFA0B0*%
%FSLAX24Y24*%
%IPPOS*%
%LPD*%
%AMOC8*
5,1,8,0,0,1.08239X$1,22.5*
%
%ADD10C,0.0000*%
%ADD11R,0.0098X0.0591*%
%ADD12R,0.0591X0.0098*%
%ADD13C,0.0560*%
%ADD14R,0.0425X0.0413*%
%ADD15C,0.0554*%
%ADD16R,0.0984X0.0787*%
%ADD17R,0.0984X0.0197*%
%ADD18R,0.0480X0.0880*%
%ADD19R,0.1417X0.0866*%
%ADD20R,0.0787X0.0866*%
%ADD21R,0.0630X0.0512*%
%ADD22R,0.0512X0.0630*%
%ADD23R,0.0413X0.0425*%
%ADD24R,0.2000X0.0700*%
%ADD25R,0.0394X0.0433*%
%ADD26R,0.0433X0.0394*%
%ADD27R,0.0250X0.0550*%
%ADD28R,0.2874X0.0906*%
%ADD29R,0.0660X0.0700*%
%ADD30R,0.1161X0.1063*%
%ADD31C,0.0740*%
%ADD32R,0.0740X0.0740*%
%ADD33R,0.0291X0.1024*%
%ADD34R,0.0807X0.1142*%
%ADD35R,0.0591X0.0394*%
%ADD36R,0.0472X0.0472*%
%ADD37R,0.0600X0.0300*%
%ADD38R,0.0600X0.0400*%
%ADD39R,0.0800X0.0600*%
%ADD40R,0.0600X0.0600*%
%ADD41C,0.0320*%
%ADD42C,0.0360*%
%ADD43C,0.0060*%
%ADD44C,0.0240*%
%ADD45C,0.0160*%
%ADD46C,0.0240*%
%ADD47C,0.0120*%
%ADD48C,0.0531*%
%ADD49C,0.0500*%
%ADD50C,0.0400*%
%ADD51C,0.0356*%
D10*
X004202Y003014D02*
X004202Y022699D01*
X023887Y022699D01*
X023887Y003014D01*
X004202Y003014D01*
X004460Y012699D02*
X004462Y012725D01*
X004468Y012751D01*
X004477Y012775D01*
X004490Y012798D01*
X004507Y012818D01*
X004526Y012836D01*
X004548Y012851D01*
X004571Y012862D01*
X004596Y012870D01*
X004622Y012874D01*
X004648Y012874D01*
X004674Y012870D01*
X004699Y012862D01*
X004723Y012851D01*
X004744Y012836D01*
X004763Y012818D01*
X004780Y012798D01*
X004793Y012775D01*
X004802Y012751D01*
X004808Y012725D01*
X004810Y012699D01*
X004808Y012673D01*
X004802Y012647D01*
X004793Y012623D01*
X004780Y012600D01*
X004763Y012580D01*
X004744Y012562D01*
X004722Y012547D01*
X004699Y012536D01*
X004674Y012528D01*
X004648Y012524D01*
X004622Y012524D01*
X004596Y012528D01*
X004571Y012536D01*
X004547Y012547D01*
X004526Y012562D01*
X004507Y012580D01*
X004490Y012600D01*
X004477Y012623D01*
X004468Y012647D01*
X004462Y012673D01*
X004460Y012699D01*
X004460Y015849D02*
X004462Y015875D01*
X004468Y015901D01*
X004477Y015925D01*
X004490Y015948D01*
X004507Y015968D01*
X004526Y015986D01*
X004548Y016001D01*
X004571Y016012D01*
X004596Y016020D01*
X004622Y016024D01*
X004648Y016024D01*
X004674Y016020D01*
X004699Y016012D01*
X004723Y016001D01*
X004744Y015986D01*
X004763Y015968D01*
X004780Y015948D01*
X004793Y015925D01*
X004802Y015901D01*
X004808Y015875D01*
X004810Y015849D01*
X004808Y015823D01*
X004802Y015797D01*
X004793Y015773D01*
X004780Y015750D01*
X004763Y015730D01*
X004744Y015712D01*
X004722Y015697D01*
X004699Y015686D01*
X004674Y015678D01*
X004648Y015674D01*
X004622Y015674D01*
X004596Y015678D01*
X004571Y015686D01*
X004547Y015697D01*
X004526Y015712D01*
X004507Y015730D01*
X004490Y015750D01*
X004477Y015773D01*
X004468Y015797D01*
X004462Y015823D01*
X004460Y015849D01*
X016037Y004392D02*
X016039Y004442D01*
X016045Y004492D01*
X016055Y004541D01*
X016069Y004589D01*
X016086Y004636D01*
X016107Y004681D01*
X016132Y004725D01*
X016160Y004766D01*
X016192Y004805D01*
X016226Y004842D01*
X016263Y004876D01*
X016303Y004906D01*
X016345Y004933D01*
X016389Y004957D01*
X016435Y004978D01*
X016482Y004994D01*
X016530Y005007D01*
X016580Y005016D01*
X016629Y005021D01*
X016680Y005022D01*
X016730Y005019D01*
X016779Y005012D01*
X016828Y005001D01*
X016876Y004986D01*
X016922Y004968D01*
X016967Y004946D01*
X017010Y004920D01*
X017051Y004891D01*
X017090Y004859D01*
X017126Y004824D01*
X017158Y004786D01*
X017188Y004746D01*
X017215Y004703D01*
X017238Y004659D01*
X017257Y004613D01*
X017273Y004565D01*
X017285Y004516D01*
X017293Y004467D01*
X017297Y004417D01*
X017297Y004367D01*
X017293Y004317D01*
X017285Y004268D01*
X017273Y004219D01*
X017257Y004171D01*
X017238Y004125D01*
X017215Y004081D01*
X017188Y004038D01*
X017158Y003998D01*
X017126Y003960D01*
X017090Y003925D01*
X017051Y003893D01*
X017010Y003864D01*
X016967Y003838D01*
X016922Y003816D01*
X016876Y003798D01*
X016828Y003783D01*
X016779Y003772D01*
X016730Y003765D01*
X016680Y003762D01*
X016629Y003763D01*
X016580Y003768D01*
X016530Y003777D01*
X016482Y003790D01*
X016435Y003806D01*
X016389Y003827D01*
X016345Y003851D01*
X016303Y003878D01*
X016263Y003908D01*
X016226Y003942D01*
X016192Y003979D01*
X016160Y004018D01*
X016132Y004059D01*
X016107Y004103D01*
X016086Y004148D01*
X016069Y004195D01*
X016055Y004243D01*
X016045Y004292D01*
X016039Y004342D01*
X016037Y004392D01*
X020537Y004392D02*
X020539Y004442D01*
X020545Y004492D01*
X020555Y004541D01*
X020569Y004589D01*
X020586Y004636D01*
X020607Y004681D01*
X020632Y004725D01*
X020660Y004766D01*
X020692Y004805D01*
X020726Y004842D01*
X020763Y004876D01*
X020803Y004906D01*
X020845Y004933D01*
X020889Y004957D01*
X020935Y004978D01*
X020982Y004994D01*
X021030Y005007D01*
X021080Y005016D01*
X021129Y005021D01*
X021180Y005022D01*
X021230Y005019D01*
X021279Y005012D01*
X021328Y005001D01*
X021376Y004986D01*
X021422Y004968D01*
X021467Y004946D01*
X021510Y004920D01*
X021551Y004891D01*
X021590Y004859D01*
X021626Y004824D01*
X021658Y004786D01*
X021688Y004746D01*
X021715Y004703D01*
X021738Y004659D01*
X021757Y004613D01*
X021773Y004565D01*
X021785Y004516D01*
X021793Y004467D01*
X021797Y004417D01*
X021797Y004367D01*
X021793Y004317D01*
X021785Y004268D01*
X021773Y004219D01*
X021757Y004171D01*
X021738Y004125D01*
X021715Y004081D01*
X021688Y004038D01*
X021658Y003998D01*
X021626Y003960D01*
X021590Y003925D01*
X021551Y003893D01*
X021510Y003864D01*
X021467Y003838D01*
X021422Y003816D01*
X021376Y003798D01*
X021328Y003783D01*
X021279Y003772D01*
X021230Y003765D01*
X021180Y003762D01*
X021129Y003763D01*
X021080Y003768D01*
X021030Y003777D01*
X020982Y003790D01*
X020935Y003806D01*
X020889Y003827D01*
X020845Y003851D01*
X020803Y003878D01*
X020763Y003908D01*
X020726Y003942D01*
X020692Y003979D01*
X020660Y004018D01*
X020632Y004059D01*
X020607Y004103D01*
X020586Y004148D01*
X020569Y004195D01*
X020555Y004243D01*
X020545Y004292D01*
X020539Y004342D01*
X020537Y004392D01*
D11*
X017785Y013004D03*
X017588Y013004D03*
X017391Y013004D03*
X017194Y013004D03*
X016997Y013004D03*
X016801Y013004D03*
X016604Y013004D03*
X016407Y013004D03*
X016210Y013004D03*
X016013Y013004D03*
X015816Y013004D03*
X015619Y013004D03*
X015423Y013004D03*
X015226Y013004D03*
X015029Y013004D03*
X014832Y013004D03*
X014832Y017532D03*
X015029Y017532D03*
X015226Y017532D03*
X015423Y017532D03*
X015619Y017532D03*
X015816Y017532D03*
X016013Y017532D03*
X016210Y017532D03*
X016407Y017532D03*
X016604Y017532D03*
X016801Y017532D03*
X016997Y017532D03*
X017194Y017532D03*
X017391Y017532D03*
X017588Y017532D03*
X017785Y017532D03*
D12*
X018572Y016744D03*
X018572Y016547D03*
X018572Y016351D03*
X018572Y016154D03*
X018572Y015957D03*
X018572Y015760D03*
X018572Y015563D03*
X018572Y015366D03*
X018572Y015170D03*
X018572Y014973D03*
X018572Y014776D03*
X018572Y014579D03*
X018572Y014382D03*
X018572Y014185D03*
X018572Y013988D03*
X018572Y013792D03*
X014045Y013792D03*
X014045Y013988D03*
X014045Y014185D03*
X014045Y014382D03*
X014045Y014579D03*
X014045Y014776D03*
X014045Y014973D03*
X014045Y015170D03*
X014045Y015366D03*
X014045Y015563D03*
X014045Y015760D03*
X014045Y015957D03*
X014045Y016154D03*
X014045Y016351D03*
X014045Y016547D03*
X014045Y016744D03*
D13*
X006466Y004884D03*
X006466Y004097D03*
D14*
X007745Y021075D03*
X007745Y021764D03*
X008681Y021764D03*
X008681Y021075D03*
X009616Y021075D03*
X009616Y021764D03*
X010551Y021764D03*
X010551Y021075D03*
X011486Y021075D03*
X011486Y021764D03*
D15*
X006072Y008998D03*
X006072Y007266D03*
D16*
X007057Y006400D03*
X004891Y006360D03*
X004891Y009904D03*
X007057Y009904D03*
D17*
X007057Y008762D03*
X007057Y008447D03*
X007057Y008132D03*
X007057Y007817D03*
X007057Y007502D03*
D18*
X010129Y010238D03*
X011039Y010238D03*
X011949Y010238D03*
D19*
X011039Y012678D03*
D20*
X007057Y018368D03*
X005875Y018368D03*
D21*
X011566Y019272D03*
X011566Y020059D03*
D22*
X020787Y016597D03*
X021574Y016597D03*
X013569Y009495D03*
X012781Y009495D03*
D23*
X017088Y011028D03*
X017777Y011028D03*
X020738Y010986D03*
X021427Y010986D03*
D24*
X021391Y009658D03*
X017591Y009658D03*
D25*
X014052Y013042D03*
X013383Y013042D03*
X013592Y010494D03*
X012923Y010494D03*
X019763Y017729D03*
X020432Y017729D03*
X020844Y015382D03*
X021513Y015382D03*
X009310Y018368D03*
X008641Y018368D03*
D26*
X006220Y020986D03*
X006220Y021656D03*
X012793Y019955D03*
X012793Y019286D03*
X012667Y013880D03*
X012667Y013211D03*
X009233Y010540D03*
X009233Y009870D03*
X008060Y009918D03*
X008060Y010587D03*
X022052Y020039D03*
X022052Y020709D03*
X022052Y021509D03*
X022052Y022179D03*
X022657Y016636D03*
X022657Y015967D03*
D27*
X009480Y007469D03*
X008980Y007469D03*
X008480Y007469D03*
X007980Y007469D03*
X007980Y005449D03*
X008480Y005449D03*
X008980Y005449D03*
X009480Y005449D03*
D28*
X013553Y003752D03*
X013553Y008477D03*
D29*
X010501Y007209D03*
X010501Y005659D03*
D30*
X010747Y003998D03*
X008090Y003998D03*
X008484Y008673D03*
X011141Y008673D03*
D31*
X013062Y011831D03*
X014062Y011831D03*
X015210Y011872D03*
X016210Y011872D03*
X017667Y007892D03*
X018667Y007892D03*
X019667Y007892D03*
X020667Y007892D03*
X020167Y006892D03*
X019167Y006892D03*
X018167Y006892D03*
X023100Y006801D03*
X023100Y005801D03*
X023100Y004801D03*
X023100Y007801D03*
X023100Y008801D03*
X023100Y009801D03*
X023100Y010801D03*
D32*
X017167Y006892D03*
X023100Y003801D03*
D33*
X017309Y020104D03*
X016809Y020104D03*
X016309Y020104D03*
X015809Y020104D03*
X015309Y020104D03*
X015309Y021679D03*
X015809Y021679D03*
X016309Y021679D03*
X016809Y021679D03*
X017309Y021679D03*
D34*
X022805Y018565D03*
X022608Y012660D03*
X015423Y010150D03*
D35*
X014625Y010524D03*
X014625Y009776D03*
X021810Y012286D03*
X021810Y013034D03*
X022007Y018191D03*
X022007Y018939D03*
D36*
X022962Y019961D03*
X022962Y020787D03*
X022962Y021361D03*
X022962Y022187D03*
X005432Y021734D03*
X005432Y020908D03*
D37*
X008927Y016557D03*
X008927Y016124D03*
X008927Y015691D03*
X008927Y015258D03*
X008927Y014825D03*
X008927Y014392D03*
X008927Y013959D03*
X008927Y013526D03*
X008927Y013093D03*
D38*
X008690Y017087D03*
D39*
X004843Y016951D03*
X004843Y010888D03*
D40*
X008772Y011210D03*
D41*
X008699Y010593D02*
X008594Y010593D01*
X008594Y010327D01*
X008563Y010253D01*
X008594Y010178D01*
X008594Y009658D01*
X008546Y009541D01*
X008456Y009452D01*
X008378Y009420D01*
X008378Y008779D01*
X008589Y008779D01*
X008589Y009465D01*
X008776Y009465D01*
X008748Y009494D01*
X008699Y009610D01*
X008699Y010130D01*
X008730Y010205D01*
X008699Y010280D01*
X008699Y010593D01*
X008699Y010340D02*
X008594Y010340D01*
X008594Y010021D02*
X008699Y010021D01*
X008699Y009703D02*
X008594Y009703D01*
X008589Y009384D02*
X008378Y009384D01*
X008378Y009066D02*
X008589Y009066D01*
X008589Y008568D02*
X008378Y008568D01*
X008378Y008004D01*
X008480Y008004D01*
X008480Y007469D01*
X008980Y007469D01*
X009480Y007469D01*
X009865Y007469D01*
X009865Y007770D01*
X009855Y007820D01*
X009835Y007867D01*
X009807Y007910D01*
X009770Y007946D01*
X009747Y007961D01*
X009818Y008132D01*
X009818Y008330D01*
X009816Y008333D01*
X009816Y009547D01*
X009864Y009538D01*
X010129Y009538D01*
X010129Y010238D01*
X010129Y010938D01*
X009864Y010938D01*
X009814Y010928D01*
X009800Y010922D01*
X009800Y011967D01*
X009862Y011967D01*
X010044Y012043D01*
X010064Y012063D01*
X010151Y011975D01*
X010268Y011927D01*
X010715Y011927D01*
X010715Y010986D01*
X010620Y010947D01*
X010544Y010871D01*
X010535Y010880D01*
X010493Y010908D01*
X010445Y010928D01*
X010395Y010938D01*
X010129Y010938D01*
X010129Y010238D01*
X010129Y010238D01*
X010129Y010238D01*
X010129Y009538D01*
X010395Y009538D01*
X010445Y009548D01*
X010493Y009567D01*
X010535Y009596D01*
X010544Y009604D01*
X010620Y009528D01*
X010634Y009522D01*
X010497Y009522D01*
X010381Y009474D01*
X010291Y009385D01*
X010243Y009268D01*
X010243Y008079D01*
X010291Y007962D01*
X010381Y007873D01*
X010497Y007824D01*
X010713Y007824D01*
X010713Y007819D01*
X010506Y007819D01*
X010506Y007214D01*
X010496Y007214D01*
X010496Y007204D01*
X009911Y007204D01*
X009911Y006936D01*
X009643Y006936D01*
X009681Y006944D01*
X009728Y006963D01*
X009770Y006992D01*
X009807Y007028D01*
X009835Y007071D01*
X009855Y007118D01*
X009865Y007168D01*
X009865Y007469D01*
X009480Y007469D01*
X009480Y007469D01*
X009480Y007469D01*
X009095Y007469D01*
X008980Y007469D01*
X008980Y007469D01*
X008980Y006934D01*
X009130Y006934D01*
X009181Y006944D01*
X009228Y006963D01*
X009230Y006965D01*
X009232Y006963D01*
X009279Y006944D01*
X009329Y006934D01*
X009379Y006934D01*
X009209Y006864D01*
X009075Y006729D01*
X009002Y006554D01*
X009002Y006041D01*
X008792Y006041D01*
X008730Y006016D01*
X008668Y006041D01*
X008292Y006041D01*
X008175Y005993D01*
X008160Y005978D01*
X008130Y005984D01*
X007980Y005984D01*
X007980Y005449D01*
X007980Y005449D01*
X007980Y004914D01*
X007986Y004914D01*
X007986Y004847D01*
X007446Y004847D01*
X007329Y004799D01*
X007240Y004710D01*
X007192Y004593D01*
X007192Y003404D01*
X007222Y003331D01*
X004520Y003331D01*
X004520Y005649D01*
X005446Y005649D01*
X005563Y005698D01*
X005652Y005787D01*
X005701Y005904D01*
X005701Y006797D01*
X005735Y006762D01*
X005954Y006671D01*
X006191Y006671D01*
X006247Y006695D01*
X006247Y005943D01*
X006295Y005826D01*
X006385Y005737D01*
X006501Y005689D01*
X007595Y005689D01*
X007595Y005449D01*
X007980Y005449D01*
X007980Y005449D01*
X007980Y005984D01*
X007866Y005984D01*
X007866Y006857D01*
X007834Y006934D01*
X007980Y006934D01*
X008130Y006934D01*
X008181Y006944D01*
X008228Y006963D01*
X008230Y006965D01*
X008232Y006963D01*
X008279Y006944D01*
X008329Y006934D01*
X008480Y006934D01*
X008630Y006934D01*
X008681Y006944D01*
X008728Y006963D01*
X008730Y006965D01*
X008732Y006963D01*
X008779Y006944D01*
X008829Y006934D01*
X008980Y006934D01*
X008980Y007469D01*
X008980Y007469D01*
X008980Y007469D01*
X008595Y007469D01*
X008480Y007469D01*
X008480Y007469D01*
X008480Y007469D01*
X008480Y006934D01*
X008480Y007469D01*
X008480Y007469D01*
X008480Y008004D01*
X008589Y008004D01*
X008589Y008568D01*
X008589Y008429D02*
X008378Y008429D01*
X008378Y008110D02*
X008589Y008110D01*
X008480Y007792D02*
X008480Y007792D01*
X008480Y007473D02*
X008480Y007473D01*
X008480Y007469D02*
X008480Y007469D01*
X007980Y007469D01*
X007980Y007469D01*
X008095Y007469D01*
X008480Y007469D01*
X008480Y007155D02*
X008480Y007155D01*
X008980Y007155D02*
X008980Y007155D01*
X009182Y006836D02*
X007866Y006836D01*
X007980Y006934D02*
X007980Y007469D01*
X007980Y006934D01*
X007980Y007155D02*
X007980Y007155D01*
X007980Y007469D02*
X007980Y007469D01*
X007866Y006518D02*
X009002Y006518D01*
X009002Y006199D02*
X007866Y006199D01*
X007980Y005881D02*
X007980Y005881D01*
X007980Y005562D02*
X007980Y005562D01*
X007980Y005449D02*
X007980Y005449D01*
X007980Y004914D01*
X007829Y004914D01*
X007779Y004924D01*
X007732Y004943D01*
X007689Y004972D01*
X007653Y005008D01*
X007624Y005051D01*
X007605Y005098D01*
X007595Y005148D01*
X007595Y005449D01*
X007980Y005449D01*
X007980Y005244D02*
X007980Y005244D01*
X007980Y004925D02*
X007980Y004925D01*
X007776Y004925D02*
X007063Y004925D01*
X007063Y005003D02*
X006972Y005223D01*
X006804Y005391D01*
X006585Y005482D01*
X006347Y005482D01*
X006128Y005391D01*
X005959Y005223D01*
X005868Y005003D01*
X005868Y004765D01*
X005959Y004546D01*
X006055Y004450D01*
X006054Y004448D01*
X006004Y004380D01*
X005966Y004304D01*
X005939Y004223D01*
X005926Y004139D01*
X005926Y004097D01*
X006466Y004097D01*
X007006Y004097D01*
X007006Y004139D01*
X006993Y004223D01*
X006966Y004304D01*
X006928Y004380D01*
X006878Y004448D01*
X006877Y004450D01*
X006972Y004546D01*
X007063Y004765D01*
X007063Y005003D01*
X006951Y005244D02*
X007595Y005244D01*
X007595Y005562D02*
X004520Y005562D01*
X004520Y005244D02*
X005980Y005244D01*
X005868Y004925D02*
X004520Y004925D01*
X004520Y004607D02*
X005934Y004607D01*
X005960Y004288D02*
X004520Y004288D01*
X004520Y003970D02*
X005939Y003970D01*
X005966Y003889D01*
X006004Y003814D01*
X006054Y003745D01*
X006114Y003685D01*
X006183Y003635D01*
X006259Y003596D01*
X006340Y003570D01*
X006423Y003557D01*
X006466Y003557D01*
X006508Y003557D01*
X006592Y003570D01*
X006673Y003596D01*
X006749Y003635D01*
X006818Y003685D01*
X006878Y003745D01*
X006928Y003814D01*
X006966Y003889D01*
X006993Y003970D01*
X007006Y004054D01*
X007006Y004097D01*
X006466Y004097D01*
X006466Y004097D01*
X006466Y004097D01*
X005926Y004097D01*
X005926Y004054D01*
X005939Y003970D01*
X006161Y003651D02*
X004520Y003651D01*
X004520Y003333D02*
X007221Y003333D01*
X007192Y003651D02*
X006771Y003651D01*
X006466Y003651D02*
X006466Y003651D01*
X006466Y003557D02*
X006466Y004097D01*
X006466Y004097D01*
X006466Y003557D01*
X006466Y003970D02*
X006466Y003970D01*
X006992Y003970D02*
X007192Y003970D01*
X007192Y004288D02*
X006972Y004288D01*
X006998Y004607D02*
X007197Y004607D01*
X008090Y003998D02*
X008434Y003998D01*
X008484Y004047D01*
X008484Y004933D01*
X008484Y005425D01*
X008480Y005449D01*
X009480Y005449D02*
X009480Y006459D01*
X011190Y006459D01*
X011190Y008673D01*
X011668Y007824D02*
X011785Y007824D01*
X011844Y007849D01*
X011846Y007844D01*
X011936Y007755D01*
X012052Y007706D01*
X013075Y007706D01*
X013075Y005970D01*
X013148Y005795D01*
X013282Y005660D01*
X013458Y005588D01*
X019894Y005588D01*
X020163Y005675D01*
X020391Y005841D01*
X020557Y006069D01*
X020557Y006069D01*
X020644Y006337D01*
X020644Y006397D01*
X020750Y006503D01*
X020854Y006755D01*
X020854Y007029D01*
X020834Y007077D01*
X022470Y007077D01*
X022412Y006938D01*
X022412Y006665D01*
X022517Y006412D01*
X022628Y006301D01*
X022517Y006191D01*
X022412Y005938D01*
X022412Y005665D01*
X022517Y005412D01*
X022668Y005261D01*
X022619Y005212D01*
X022561Y005132D01*
X022516Y005043D01*
X022485Y004949D01*
X022470Y004851D01*
X022470Y004801D01*
X022470Y004752D01*
X022485Y004654D01*
X022516Y004560D01*
X022561Y004471D01*
X022576Y004451D01*
X022550Y004441D01*
X022461Y004351D01*
X022412Y004235D01*
X022412Y003368D01*
X022428Y003331D01*
X015307Y003331D01*
X015307Y004268D01*
X015259Y004385D01*
X015169Y004474D01*
X015053Y004522D01*
X013990Y004522D01*
X013990Y005020D01*
X013923Y005181D01*
X013800Y005304D01*
X013640Y005371D01*
X011149Y005371D01*
X011149Y005981D01*
X011285Y005981D01*
X011461Y006054D01*
X011595Y006188D01*
X011668Y006364D01*
X011668Y007824D01*
X011668Y007792D02*
X011899Y007792D01*
X011668Y007473D02*
X013075Y007473D01*
X013075Y007155D02*
X011668Y007155D01*
X011668Y006836D02*
X013075Y006836D01*
X013075Y006518D02*
X011668Y006518D01*
X011600Y006199D02*
X013075Y006199D01*
X013112Y005881D02*
X011149Y005881D01*
X011149Y005562D02*
X022455Y005562D01*
X022412Y005881D02*
X020420Y005881D01*
X020391Y005841D02*
X020391Y005841D01*
X020391Y005841D01*
X020163Y005675D02*
X020163Y005675D01*
X019753Y006065D02*
X013553Y006065D01*
X013553Y008477D01*
X014030Y007706D02*
X015053Y007706D01*
X015169Y007755D01*
X015259Y007844D01*
X015307Y007961D01*
X015307Y008251D01*
X015418Y008205D01*
X015624Y008205D01*
X015814Y008284D01*
X015960Y008430D01*
X015965Y008441D01*
X015965Y007705D01*
X016018Y007577D01*
X016479Y007116D01*
X016479Y006543D01*
X014030Y006543D01*
X014030Y007706D01*
X014030Y007473D02*
X016122Y007473D01*
X015965Y007792D02*
X015206Y007792D01*
X015307Y008110D02*
X015965Y008110D01*
X015959Y008429D02*
X015965Y008429D01*
X015004Y009247D02*
X014085Y009247D01*
X014085Y009492D01*
X014100Y009456D01*
X014128Y009413D01*
X014164Y009377D01*
X014207Y009349D01*
X014254Y009329D01*
X014305Y009319D01*
X014625Y009319D01*
X014625Y009776D01*
X014625Y009776D01*
X014625Y009319D01*
X014830Y009319D01*
X014839Y009310D01*
X014956Y009261D01*
X015004Y009261D01*
X015004Y009247D01*
X014625Y009384D02*
X014625Y009384D01*
X014625Y009703D02*
X014625Y009703D01*
X014157Y009384D02*
X014085Y009384D01*
X014044Y010905D02*
X013969Y010980D01*
X013852Y011028D01*
X013332Y011028D01*
X013215Y010980D01*
X013196Y010961D01*
X013195Y010961D01*
X013145Y010971D01*
X012950Y010971D01*
X012950Y011143D01*
X013199Y011143D01*
X013452Y011248D01*
X013562Y011358D01*
X013673Y011248D01*
X013925Y011143D01*
X014199Y011143D01*
X014215Y011150D01*
X014215Y011017D01*
X014150Y010990D01*
X014066Y010906D01*
X014044Y010905D01*
X013972Y010977D02*
X014137Y010977D01*
X013626Y011295D02*
X013499Y011295D01*
X013212Y010977D02*
X012950Y010977D01*
X013562Y012303D02*
X013452Y012414D01*
X013199Y012518D01*
X013020Y012518D01*
X013020Y012625D01*
X013020Y012624D01*
X013063Y012595D01*
X013110Y012576D01*
X013161Y012566D01*
X013383Y012566D01*
X013605Y012566D01*
X013656Y012576D01*
X013676Y012557D01*
X013725Y012536D01*
X013725Y012435D01*
X013673Y012414D01*
X013562Y012303D01*
X013621Y012569D02*
X013663Y012569D01*
X013656Y012576D02*
X013656Y012576D01*
X013383Y012569D02*
X013383Y012569D01*
X013383Y012566D02*
X013383Y013042D01*
X013383Y013042D01*
X013383Y012566D01*
X013144Y012569D02*
X013020Y012569D01*
X013383Y012888D02*
X013383Y012888D01*
X011584Y013103D02*
X011062Y013103D01*
X010292Y013103D01*
X009763Y013103D01*
X009763Y012463D01*
X009800Y011932D02*
X010256Y011932D01*
X009800Y011614D02*
X010715Y011614D01*
X010715Y011295D02*
X009800Y011295D01*
X009800Y010977D02*
X010691Y010977D01*
X010129Y010658D02*
X010129Y010658D01*
X010129Y010340D02*
X010129Y010340D01*
X010129Y010021D02*
X010129Y010021D01*
X010129Y009703D02*
X010129Y009703D01*
X010291Y009384D02*
X009816Y009384D01*
X009816Y009066D02*
X010243Y009066D01*
X010243Y008747D02*
X009816Y008747D01*
X009816Y008429D02*
X010243Y008429D01*
X010243Y008110D02*
X009809Y008110D01*
X010048Y007789D02*
X010096Y007809D01*
X010146Y007819D01*
X010496Y007819D01*
X010496Y007214D01*
X009911Y007214D01*
X009911Y007585D01*
X009921Y007635D01*
X009941Y007682D01*
X009969Y007725D01*
X010006Y007761D01*
X010048Y007789D01*
X010054Y007792D02*
X009860Y007792D01*
X009865Y007473D02*
X009911Y007473D01*
X009911Y007155D02*
X009862Y007155D01*
X010496Y007473D02*
X010506Y007473D01*
X010496Y007792D02*
X010506Y007792D01*
X007526Y010615D02*
X006501Y010615D01*
X006385Y010567D01*
X006295Y010477D01*
X006247Y010361D01*
X006247Y009570D01*
X006191Y009593D01*
X005954Y009593D01*
X005735Y009502D01*
X005701Y009468D01*
X005701Y010361D01*
X005652Y010477D01*
X005563Y010567D01*
X005503Y010592D01*
X005503Y010888D01*
X004843Y010888D01*
X004843Y010888D01*
X005503Y010888D01*
X005503Y011214D01*
X005493Y011264D01*
X005473Y011311D01*
X005445Y011354D01*
X005408Y011390D01*
X005366Y011418D01*
X005319Y011438D01*
X005268Y011448D01*
X004843Y011448D01*
X004843Y010888D01*
X004843Y010888D01*
X004843Y011448D01*
X004520Y011448D01*
X004520Y012214D01*
X004537Y012207D01*
X004733Y012207D01*
X004914Y012282D01*
X005053Y012420D01*
X005128Y012601D01*
X005128Y012797D01*
X005053Y012978D01*
X004914Y013117D01*
X004733Y013192D01*
X004537Y013192D01*
X004520Y013184D01*
X004520Y015363D01*
X004537Y015356D01*
X004733Y015356D01*
X004914Y015431D01*
X005053Y015570D01*
X005128Y015751D01*
X005128Y015947D01*
X005053Y016128D01*
X004914Y016266D01*
X004733Y016341D01*
X004537Y016341D01*
X004520Y016334D01*
X004520Y016391D01*
X004843Y016391D01*
X005268Y016391D01*
X005319Y016401D01*
X005366Y016421D01*
X005408Y016449D01*
X005445Y016485D01*
X005473Y016528D01*
X005493Y016575D01*
X005503Y016625D01*
X005503Y016951D01*
X004843Y016951D01*
X004843Y016951D01*
X005503Y016951D01*
X005503Y017277D01*
X005493Y017327D01*
X005473Y017374D01*
X005445Y017417D01*
X005408Y017453D01*
X005366Y017481D01*
X005319Y017501D01*
X005268Y017511D01*
X004843Y017511D01*
X004843Y016951D01*
X004843Y016391D01*
X004843Y016391D01*
X004843Y016951D01*
X004843Y016951D01*
X004843Y016951D01*
X004843Y017511D01*
X004520Y017511D01*
X004520Y022382D01*
X014678Y022382D01*
X014338Y022041D01*
X014285Y021913D01*
X014285Y018327D01*
X014233Y018452D01*
X014110Y018575D01*
X013949Y018641D01*
X013916Y018641D01*
X013327Y019231D01*
X013327Y019546D01*
X013296Y019620D01*
X013327Y019695D01*
X013327Y020215D01*
X013279Y020332D01*
X013189Y020421D01*
X013073Y020469D01*
X012513Y020469D01*
X012397Y020421D01*
X012307Y020332D01*
X012295Y020301D01*
X012141Y020301D01*
X012141Y020340D01*
X012131Y020391D01*
X012112Y020438D01*
X012083Y020481D01*
X012047Y020517D01*
X012004Y020545D01*
X011957Y020565D01*
X011907Y020575D01*
X011819Y020575D01*
X011878Y020599D01*
X011967Y020689D01*
X012016Y020805D01*
X012016Y021345D01*
X011967Y021462D01*
X011948Y021481D01*
X011948Y021481D01*
X011958Y021532D01*
X011958Y021764D01*
X011958Y021996D01*
X011948Y022047D01*
X011929Y022094D01*
X011900Y022136D01*
X011864Y022173D01*
X011821Y022201D01*
X011774Y022221D01*
X011724Y022231D01*
X011486Y022231D01*
X011486Y021764D01*
X011958Y021764D01*
X011486Y021764D01*
X011486Y021764D01*
X011486Y021764D01*
X011486Y022231D01*
X011247Y022231D01*
X011197Y022221D01*
X011150Y022201D01*
X011107Y022173D01*
X011071Y022136D01*
X011043Y022094D01*
X011023Y022047D01*
X011018Y022022D01*
X011013Y022047D01*
X010994Y022094D01*
X010965Y022136D01*
X010929Y022173D01*
X010886Y022201D01*
X010839Y022221D01*
X010789Y022231D01*
X010551Y022231D01*
X010551Y021764D01*
X011486Y021764D01*
X011013Y021764D01*
X010551Y021764D01*
X010551Y021764D01*
X010551Y021764D01*
X010551Y022231D01*
X010312Y022231D01*
X010262Y022221D01*
X010215Y022201D01*
X010172Y022173D01*
X010136Y022136D01*
X010108Y022094D01*
X010088Y022047D01*
X010083Y022022D01*
X010078Y022047D01*
X010059Y022094D01*
X010030Y022136D01*
X009994Y022173D01*
X009951Y022201D01*
X009904Y022221D01*
X009854Y022231D01*
X009616Y022231D01*
X009616Y021764D01*
X010551Y021764D01*
X010078Y021764D01*
X009616Y021764D01*
X009616Y021764D01*
X009616Y021764D01*
X009616Y022231D01*
X009377Y022231D01*
X009327Y022221D01*
X009280Y022201D01*
X009237Y022173D01*
X009201Y022136D01*
X009173Y022094D01*
X009153Y022047D01*
X009148Y022022D01*
X009143Y022047D01*
X009124Y022094D01*
X009095Y022136D01*
X009059Y022173D01*
X009016Y022201D01*
X008969Y022221D01*
X008919Y022231D01*
X008681Y022231D01*
X008681Y021764D01*
X009153Y021764D01*
X009616Y021764D01*
X008681Y021764D01*
X008681Y021764D01*
X008681Y021764D01*
X008681Y022231D01*
X008442Y022231D01*
X008392Y022221D01*
X008345Y022201D01*
X008302Y022173D01*
X008266Y022136D01*
X008238Y022094D01*
X008218Y022047D01*
X008213Y022022D01*
X008208Y022047D01*
X008188Y022094D01*
X008160Y022136D01*
X008124Y022173D01*
X008081Y022201D01*
X008034Y022221D01*
X007984Y022231D01*
X007745Y022231D01*
X007507Y022231D01*
X007457Y022221D01*
X007410Y022201D01*
X007367Y022173D01*
X007331Y022136D01*
X007302Y022094D01*
X007283Y022047D01*
X007273Y021996D01*
X007273Y021764D01*
X007273Y021532D01*
X007283Y021481D01*
X007264Y021462D01*
X007218Y021351D01*
X006736Y021351D01*
X006754Y021396D01*
X006754Y021916D01*
X006706Y022032D01*
X006616Y022122D01*
X006500Y022170D01*
X005940Y022170D01*
X005925Y022164D01*
X005849Y022240D01*
X005732Y022288D01*
X005133Y022288D01*
X005016Y022240D01*
X004927Y022151D01*
X004879Y022034D01*
X004879Y021435D01*
X004927Y021318D01*
X004971Y021275D01*
X004966Y021267D01*
X004946Y021220D01*
X004936Y021170D01*
X004936Y020908D01*
X005432Y020908D01*
X005432Y020908D01*
X004936Y020908D01*
X004936Y020646D01*
X004946Y020596D01*
X004966Y020548D01*
X004994Y020506D01*
X005031Y020470D01*
X005073Y020441D01*
X005120Y020421D01*
X005171Y020411D01*
X005432Y020411D01*
X005432Y020908D01*
X005432Y020908D01*
X005432Y020411D01*
X005694Y020411D01*
X005745Y020421D01*
X005792Y020441D01*
X005834Y020470D01*
X005867Y020502D01*
X005940Y020472D01*
X006500Y020472D01*
X006616Y020520D01*
X006706Y020610D01*
X006725Y020656D01*
X006725Y019119D01*
X006600Y019119D01*
X006483Y019071D01*
X006423Y019011D01*
X006392Y019032D01*
X006345Y019051D01*
X006295Y019061D01*
X005912Y019061D01*
X005912Y018405D01*
X005839Y018405D01*
X005839Y019061D01*
X005456Y019061D01*
X005406Y019051D01*
X005359Y019032D01*
X005316Y019003D01*
X005280Y018967D01*
X005251Y018925D01*
X005232Y018877D01*
X005222Y018827D01*
X005222Y018405D01*
X005839Y018405D01*
X005839Y018331D01*
X005912Y018331D01*
X005912Y017675D01*
X006295Y017675D01*
X006345Y017685D01*
X006392Y017705D01*
X006423Y017726D01*
X006483Y017666D01*
X006600Y017618D01*
X007513Y017618D01*
X007630Y017666D01*
X007719Y017755D01*
X007768Y017872D01*
X007768Y018067D01*
X008136Y018067D01*
X008175Y017972D01*
X008264Y017883D01*
X008381Y017834D01*
X008755Y017834D01*
X008755Y017547D01*
X008690Y017547D01*
X008365Y017547D01*
X008315Y017537D01*
X008267Y017518D01*
X008225Y017489D01*
X008188Y017453D01*
X008160Y017410D01*
X008140Y017363D01*
X008130Y017313D01*
X008130Y017087D01*
X008130Y016862D01*
X008140Y016811D01*
X008160Y016764D01*
X008180Y016735D01*
X008139Y016751D01*
X007965Y016751D01*
X007804Y016685D01*
X007681Y016562D01*
X007615Y016401D01*
X007615Y016227D01*
X007681Y016066D01*
X007705Y016043D01*
X007705Y011071D01*
X007664Y011053D01*
X007574Y010964D01*
X007526Y010847D01*
X007526Y010615D01*
X007526Y010658D02*
X005503Y010658D01*
X005503Y010977D02*
X007587Y010977D01*
X007705Y011295D02*
X005480Y011295D01*
X004843Y011295D02*
X004843Y011295D01*
X004843Y010977D02*
X004843Y010977D01*
X004520Y011614D02*
X007705Y011614D01*
X007705Y011932D02*
X004520Y011932D01*
X004839Y012251D02*
X007705Y012251D01*
X007705Y012569D02*
X005114Y012569D01*
X005090Y012888D02*
X007705Y012888D01*
X007705Y013206D02*
X004520Y013206D01*
X004520Y013525D02*
X007705Y013525D01*
X007705Y013843D02*
X004520Y013843D01*
X004520Y014162D02*
X007705Y014162D01*
X007705Y014480D02*
X004520Y014480D01*
X004520Y014799D02*
X007705Y014799D01*
X007705Y015117D02*
X004520Y015117D01*
X004919Y015436D02*
X007705Y015436D01*
X007705Y015754D02*
X005128Y015754D01*
X005076Y016073D02*
X007679Y016073D01*
X007615Y016391D02*
X005268Y016391D01*
X005503Y016710D02*
X007864Y016710D01*
X008130Y017028D02*
X005503Y017028D01*
X005485Y017347D02*
X008137Y017347D01*
X008130Y017087D02*
X008690Y017087D01*
X008130Y017087D01*
X008690Y017087D02*
X008690Y017087D01*
X008690Y017547D01*
X008690Y017087D01*
X008690Y017087D01*
X008690Y017347D02*
X008690Y017347D01*
X008755Y017665D02*
X007627Y017665D01*
X007768Y017984D02*
X008170Y017984D01*
X006725Y019258D02*
X004520Y019258D01*
X004520Y018939D02*
X005261Y018939D01*
X005222Y018621D02*
X004520Y018621D01*
X004520Y018302D02*
X005222Y018302D01*
X005222Y018331D02*
X005222Y017910D01*
X005232Y017859D01*
X005251Y017812D01*
X005280Y017770D01*
X005316Y017733D01*
X005359Y017705D01*
X005406Y017685D01*
X005456Y017675D01*
X005839Y017675D01*
X005839Y018331D01*
X005222Y018331D01*
X005222Y017984D02*
X004520Y017984D01*
X004520Y017665D02*
X006486Y017665D01*
X005912Y017984D02*
X005839Y017984D01*
X005839Y018302D02*
X005912Y018302D01*
X005912Y018621D02*
X005839Y018621D01*
X005839Y018939D02*
X005912Y018939D01*
X006725Y019576D02*
X004520Y019576D01*
X004520Y019895D02*
X006725Y019895D01*
X006725Y020213D02*
X004520Y020213D01*
X004520Y020532D02*
X004977Y020532D01*
X004936Y020850D02*
X004520Y020850D01*
X004520Y021169D02*
X004936Y021169D01*
X004879Y021487D02*
X004520Y021487D01*
X004520Y021806D02*
X004879Y021806D01*
X004916Y022124D02*
X004520Y022124D01*
X005432Y020850D02*
X005432Y020850D01*
X005432Y020532D02*
X005432Y020532D01*
X006627Y020532D02*
X006725Y020532D01*
X006754Y021487D02*
X007282Y021487D01*
X007283Y021481D02*
X007283Y021481D01*
X007273Y021764D02*
X007745Y021764D01*
X007745Y021764D01*
X007273Y021764D01*
X007273Y021806D02*
X006754Y021806D01*
X006611Y022124D02*
X007323Y022124D01*
X007745Y022124D02*
X007745Y022124D01*
X007745Y022231D02*
X007745Y021764D01*
X007745Y021764D01*
X007745Y022231D01*
X008168Y022124D02*
X008258Y022124D01*
X008681Y022124D02*
X008681Y022124D01*
X008681Y021806D02*
X008681Y021806D01*
X008681Y021764D02*
X008681Y021764D01*
X007745Y021764D01*
X008208Y021764D01*
X008681Y021764D01*
X009103Y022124D02*
X009193Y022124D01*
X009616Y022124D02*
X009616Y022124D01*
X009616Y021806D02*
X009616Y021806D01*
X009616Y021764D02*
X009616Y021764D01*
X010038Y022124D02*
X010128Y022124D01*
X010551Y022124D02*
X010551Y022124D01*
X010551Y021806D02*
X010551Y021806D01*
X010551Y021764D02*
X010551Y021764D01*
X010973Y022124D02*
X011063Y022124D01*
X011486Y022124D02*
X011486Y022124D01*
X011486Y021806D02*
X011486Y021806D01*
X011486Y021764D02*
X011486Y021764D01*
X011958Y021806D02*
X014285Y021806D01*
X014285Y021487D02*
X011949Y021487D01*
X012016Y021169D02*
X014285Y021169D01*
X014285Y020850D02*
X012016Y020850D01*
X012025Y020532D02*
X014285Y020532D01*
X014285Y020213D02*
X013327Y020213D01*
X013327Y019895D02*
X014285Y019895D01*
X014285Y019576D02*
X013314Y019576D01*
X013327Y019258D02*
X014285Y019258D01*
X014285Y018939D02*
X013619Y018939D01*
X014000Y018621D02*
X014285Y018621D01*
X014421Y022124D02*
X011908Y022124D01*
X007745Y021806D02*
X007745Y021806D01*
X007745Y021764D02*
X007745Y021764D01*
X004843Y017347D02*
X004843Y017347D01*
X004843Y017028D02*
X004843Y017028D01*
X004843Y016710D02*
X004843Y016710D01*
X005701Y010340D02*
X006247Y010340D01*
X006247Y010021D02*
X005701Y010021D01*
X005701Y009703D02*
X006247Y009703D01*
X005522Y009224D02*
X005478Y009117D01*
X005478Y008880D01*
X005568Y008661D01*
X005735Y008494D01*
X005825Y008457D01*
X005772Y008330D01*
X005772Y008132D01*
X005847Y007949D01*
X005941Y007855D01*
X005735Y007770D01*
X005568Y007603D01*
X005478Y007384D01*
X005478Y007148D01*
X005522Y007040D01*
X005446Y007072D01*
X004520Y007072D01*
X004520Y009193D01*
X005446Y009193D01*
X005522Y009224D01*
X005478Y009066D02*
X004520Y009066D01*
X004520Y008747D02*
X005533Y008747D01*
X005813Y008429D02*
X004520Y008429D01*
X004520Y008110D02*
X005781Y008110D01*
X005787Y007792D02*
X004520Y007792D01*
X004520Y007473D02*
X005514Y007473D01*
X005478Y007155D02*
X004520Y007155D01*
X005701Y006518D02*
X006247Y006518D01*
X006247Y006199D02*
X005701Y006199D01*
X005691Y005881D02*
X006273Y005881D01*
X008988Y004496D02*
X008988Y003404D01*
X008958Y003331D01*
X009944Y003331D01*
X009936Y003344D01*
X009917Y003391D01*
X009907Y003441D01*
X009907Y003893D01*
X010642Y003893D01*
X010642Y004104D01*
X009907Y004104D01*
X009907Y004496D01*
X008988Y004496D01*
X008988Y004288D02*
X009907Y004288D01*
X009907Y003651D02*
X008988Y003651D01*
X008959Y003333D02*
X009944Y003333D01*
X010642Y003970D02*
X008988Y003970D01*
X010853Y003970D02*
X011798Y003970D01*
X011588Y003893D02*
X010853Y003893D01*
X010853Y004104D01*
X011588Y004104D01*
X011588Y004496D01*
X011988Y004496D01*
X011936Y004474D01*
X011846Y004385D01*
X011798Y004268D01*
X011798Y003331D01*
X011550Y003331D01*
X011559Y003344D01*
X011578Y003391D01*
X011588Y003441D01*
X011588Y003893D01*
X011588Y003651D02*
X011798Y003651D01*
X011798Y003333D02*
X011551Y003333D01*
X011588Y004288D02*
X011806Y004288D01*
X013990Y004607D02*
X015730Y004607D01*
X015719Y004580D02*
X015719Y004204D01*
X015864Y003855D01*
X016130Y003589D01*
X016478Y003445D01*
X016855Y003445D01*
X017203Y003589D01*
X017470Y003855D01*
X017614Y004204D01*
X017614Y004580D01*
X017470Y004929D01*
X017203Y005195D01*
X016855Y005339D01*
X016478Y005339D01*
X016130Y005195D01*
X015864Y004929D01*
X015719Y004580D01*
X015719Y004288D02*
X015299Y004288D01*
X015307Y003970D02*
X015816Y003970D01*
X016068Y003651D02*
X015307Y003651D01*
X015307Y003333D02*
X022427Y003333D01*
X022412Y003651D02*
X021766Y003651D01*
X021703Y003589D02*
X021970Y003855D01*
X022114Y004204D01*
X022114Y004580D01*
X021970Y004929D01*
X021703Y005195D01*
X021355Y005339D01*
X020978Y005339D01*
X020630Y005195D01*
X020364Y004929D01*
X020219Y004580D01*
X020219Y004204D01*
X020364Y003855D01*
X020630Y003589D01*
X020978Y003445D01*
X021355Y003445D01*
X021703Y003589D01*
X022017Y003970D02*
X022412Y003970D01*
X022434Y004288D02*
X022114Y004288D01*
X022103Y004607D02*
X022501Y004607D01*
X022470Y004801D02*
X023100Y004801D01*
X023100Y004801D01*
X022470Y004801D01*
X022482Y004925D02*
X021971Y004925D01*
X021587Y005244D02*
X022651Y005244D01*
X022525Y006199D02*
X020599Y006199D01*
X020756Y006518D02*
X022473Y006518D01*
X022412Y006836D02*
X020854Y006836D01*
X020167Y006892D02*
X020167Y006479D01*
X020166Y006479D02*
X020164Y006441D01*
X020159Y006403D01*
X020150Y006366D01*
X020138Y006330D01*
X020123Y006295D01*
X020104Y006262D01*
X020083Y006230D01*
X020058Y006201D01*
X020031Y006174D01*
X020002Y006149D01*
X019970Y006128D01*
X019937Y006109D01*
X019902Y006094D01*
X019866Y006082D01*
X019829Y006073D01*
X019791Y006068D01*
X019753Y006066D01*
X020747Y005244D02*
X017087Y005244D01*
X017471Y004925D02*
X020362Y004925D01*
X020230Y004607D02*
X017603Y004607D01*
X017614Y004288D02*
X020219Y004288D01*
X020316Y003970D02*
X017517Y003970D01*
X017266Y003651D02*
X020568Y003651D01*
X016479Y006836D02*
X014030Y006836D01*
X014030Y007155D02*
X016440Y007155D01*
X016247Y005244D02*
X013861Y005244D01*
X013990Y004925D02*
X015862Y004925D01*
X016800Y010326D02*
X016800Y010568D01*
X016806Y010565D01*
X016856Y010555D01*
X017088Y010555D01*
X017088Y011028D01*
X017088Y011028D01*
X017088Y011501D01*
X017080Y011501D01*
X017080Y012027D01*
X017239Y012027D01*
X017400Y012093D01*
X017523Y012216D01*
X017590Y012377D01*
X017590Y012391D01*
X017897Y012391D01*
X018014Y012440D01*
X018103Y012529D01*
X018135Y012607D01*
X018211Y012607D01*
X018234Y012583D01*
X018345Y012537D01*
X018345Y010326D01*
X017990Y010326D01*
X017990Y010498D01*
X018047Y010498D01*
X018164Y010546D01*
X018253Y010636D01*
X018301Y010752D01*
X018301Y011304D01*
X018253Y011420D01*
X018164Y011510D01*
X018047Y011558D01*
X018010Y011558D01*
X018010Y011571D01*
X017943Y011732D01*
X017820Y011855D01*
X017659Y011921D01*
X017485Y011921D01*
X017324Y011855D01*
X017201Y011732D01*
X017135Y011571D01*
X017135Y011501D01*
X017088Y011501D01*
X017088Y011028D01*
X017088Y011028D01*
X017088Y010555D01*
X017295Y010555D01*
X017295Y010326D01*
X016800Y010326D01*
X016800Y010340D02*
X017295Y010340D01*
X017088Y010658D02*
X017088Y010658D01*
X017088Y010977D02*
X017088Y010977D01*
X017088Y011295D02*
X017088Y011295D01*
X017080Y011614D02*
X017152Y011614D01*
X017080Y011932D02*
X018345Y011932D01*
X018345Y011614D02*
X017992Y011614D01*
X018301Y011295D02*
X018345Y011295D01*
X018345Y010977D02*
X018301Y010977D01*
X018262Y010658D02*
X018345Y010658D01*
X018345Y010340D02*
X017990Y010340D01*
X018345Y012251D02*
X017537Y012251D01*
X018120Y012569D02*
X018268Y012569D01*
X020580Y012569D02*
X020725Y012569D01*
X020725Y012776D02*
X020725Y011459D01*
X020580Y011459D01*
X020580Y012898D01*
X020684Y012793D01*
X020725Y012776D01*
X020590Y012888D02*
X020580Y012888D01*
X020580Y012251D02*
X020725Y012251D01*
X020725Y011932D02*
X020580Y011932D01*
X020580Y011614D02*
X020725Y011614D01*
X020738Y010986D02*
X020738Y010514D01*
X020970Y010514D01*
X021020Y010524D01*
X021021Y010524D01*
X021040Y010505D01*
X021075Y010490D01*
X021075Y010326D01*
X020580Y010326D01*
X020580Y010514D01*
X020738Y010514D01*
X020738Y010986D01*
X020738Y010986D01*
X020738Y010977D02*
X020738Y010977D01*
X020738Y010658D02*
X020738Y010658D01*
X020580Y010340D02*
X021075Y010340D01*
X021770Y010340D02*
X022265Y010340D01*
X022265Y010326D02*
X021770Y010326D01*
X021770Y010487D01*
X021813Y010505D01*
X021902Y010594D01*
X021951Y010711D01*
X021951Y011262D01*
X021902Y011379D01*
X021813Y011468D01*
X021696Y011517D01*
X021420Y011517D01*
X021420Y011847D01*
X021439Y011839D01*
X021490Y011829D01*
X021810Y011829D01*
X021810Y012286D01*
X021810Y012286D01*
X021810Y011829D01*
X022015Y011829D01*
X022024Y011820D01*
X022141Y011771D01*
X022898Y011771D01*
X022415Y011289D01*
X022318Y011191D01*
X022265Y011063D01*
X022265Y010326D01*
X022265Y010658D02*
X021929Y010658D01*
X021951Y010977D02*
X022265Y010977D01*
X022422Y011295D02*
X021937Y011295D01*
X021420Y011614D02*
X022740Y011614D01*
X021810Y011932D02*
X021810Y011932D01*
X021810Y012251D02*
X021810Y012251D01*
X021509Y015859D02*
X021490Y015859D01*
X021490Y016022D01*
X021574Y016022D01*
X021574Y016597D01*
X021574Y017172D01*
X021490Y017172D01*
X021490Y017859D01*
X021510Y017829D01*
X021546Y017792D01*
X021589Y017764D01*
X021636Y017744D01*
X021686Y017734D01*
X022007Y017734D01*
X022007Y018191D01*
X022007Y018191D01*
X022007Y017734D01*
X022212Y017734D01*
X022221Y017725D01*
X022338Y017677D01*
X022965Y017677D01*
X022965Y017077D01*
X022949Y017083D01*
X022899Y017093D01*
X022657Y017093D01*
X022657Y016661D01*
X022657Y016661D01*
X022657Y017093D01*
X022415Y017093D01*
X022365Y017083D01*
X022317Y017063D01*
X022275Y017035D01*
X022238Y016999D01*
X022210Y016956D01*
X022190Y016909D01*
X022180Y016859D01*
X022180Y016636D01*
X022180Y016584D01*
X022108Y016511D01*
X022090Y016493D01*
X022090Y016597D01*
X022090Y016937D01*
X022080Y016987D01*
X022061Y017035D01*
X022032Y017077D01*
X021996Y017114D01*
X021953Y017142D01*
X021906Y017162D01*
X021856Y017172D01*
X021574Y017172D01*
X021574Y016597D01*
X021574Y016597D01*
X022090Y016597D01*
X021574Y016597D01*
X021574Y016597D01*
X021574Y016597D01*
X021574Y016022D01*
X021618Y016022D01*
X021548Y015951D01*
X021509Y015859D01*
X021574Y016073D02*
X021574Y016073D01*
X021574Y016391D02*
X021574Y016391D01*
X021574Y016710D02*
X021574Y016710D01*
X021574Y017028D02*
X021574Y017028D01*
X021490Y017347D02*
X022965Y017347D01*
X022965Y017665D02*
X021490Y017665D01*
X022007Y017984D02*
X022007Y017984D01*
X022063Y017028D02*
X022268Y017028D01*
X022657Y017028D02*
X022657Y017028D01*
X022657Y016710D02*
X022657Y016710D01*
X022272Y016636D02*
X022272Y016636D01*
X022180Y016636D01*
X022272Y016636D01*
X022180Y016710D02*
X022090Y016710D01*
X020017Y018621D02*
X018620Y018621D01*
X018620Y018939D02*
X020336Y018939D01*
X020654Y019258D02*
X018620Y019258D01*
X018620Y019576D02*
X021012Y019576D01*
X021073Y019601D02*
X020945Y019549D01*
X020848Y019451D01*
X019798Y018401D01*
X019745Y018273D01*
X019745Y018205D01*
X019541Y018205D01*
X019491Y018195D01*
X019443Y018176D01*
X019401Y018147D01*
X019364Y018111D01*
X019336Y018068D01*
X019316Y018021D01*
X019306Y017971D01*
X019306Y017729D01*
X019745Y017729D01*
X019745Y017729D01*
X019306Y017729D01*
X019306Y017486D01*
X019316Y017436D01*
X019336Y017389D01*
X019364Y017346D01*
X019401Y017310D01*
X019443Y017282D01*
X019491Y017262D01*
X019541Y017252D01*
X019745Y017252D01*
X019745Y017120D01*
X019619Y017171D01*
X019445Y017171D01*
X019284Y017105D01*
X019261Y017081D01*
X019002Y017081D01*
X018931Y017111D01*
X018572Y017111D01*
X018620Y017225D01*
X018620Y021843D01*
X018567Y021971D01*
X018156Y022382D01*
X021518Y022382D01*
X021518Y021919D01*
X021549Y021844D01*
X021518Y021769D01*
X021518Y021521D01*
X021505Y021509D01*
X021408Y021411D01*
X021399Y021389D01*
X021331Y021322D01*
X021265Y021161D01*
X021265Y020987D01*
X021331Y020826D01*
X021454Y020703D01*
X021518Y020677D01*
X021518Y020461D01*
X021475Y020461D01*
X021314Y020395D01*
X021191Y020272D01*
X021125Y020111D01*
X021125Y019937D01*
X021191Y019776D01*
X021314Y019653D01*
X021439Y019601D01*
X021073Y019601D01*
X021142Y019895D02*
X018620Y019895D01*
X018620Y020213D02*
X021167Y020213D01*
X021518Y020532D02*
X018620Y020532D01*
X018620Y020850D02*
X021321Y020850D01*
X021268Y021169D02*
X018620Y021169D01*
X018620Y021487D02*
X021484Y021487D01*
X021533Y021806D02*
X018620Y021806D01*
X018414Y022124D02*
X021518Y022124D01*
X022962Y021361D02*
X023458Y021361D01*
X023458Y021622D01*
X023448Y021673D01*
X023429Y021720D01*
X023424Y021728D01*
X023468Y021771D01*
X023516Y021888D01*
X023516Y022382D01*
X023570Y022382D01*
X023570Y019488D01*
X023509Y019549D01*
X023419Y019586D01*
X023429Y019601D01*
X023448Y019649D01*
X023458Y019699D01*
X023458Y019961D01*
X023458Y020222D01*
X023448Y020273D01*
X023429Y020320D01*
X023424Y020328D01*
X023468Y020371D01*
X023516Y020488D01*
X023516Y021087D01*
X023468Y021203D01*
X023458Y021213D01*
X023458Y021361D01*
X022962Y021361D01*
X022962Y021361D01*
X023458Y021487D02*
X023570Y021487D01*
X023570Y021169D02*
X023482Y021169D01*
X023516Y020850D02*
X023570Y020850D01*
X023570Y020532D02*
X023516Y020532D01*
X023570Y020213D02*
X023458Y020213D01*
X023458Y019961D02*
X022962Y019961D01*
X022962Y019961D01*
X022962Y019601D01*
X022962Y019601D01*
X022962Y019961D01*
X022962Y019961D01*
X023458Y019961D01*
X023458Y019895D02*
X023570Y019895D01*
X023570Y019576D02*
X023443Y019576D01*
X022962Y019895D02*
X022962Y019895D01*
X023482Y021806D02*
X023570Y021806D01*
X023570Y022124D02*
X023516Y022124D01*
X019757Y018302D02*
X018620Y018302D01*
X018620Y017984D02*
X019309Y017984D01*
X019306Y017665D02*
X018620Y017665D01*
X018620Y017347D02*
X019364Y017347D01*
D42*
X015521Y008723D03*
X009320Y008231D03*
X006269Y008231D03*
X008484Y004933D03*
D43*
X007980Y005449D02*
X007982Y005534D01*
X007982Y007354D02*
X007980Y007469D01*
X010152Y009664D02*
X011342Y009664D01*
X011412Y009734D01*
X011412Y010784D01*
X012252Y010784D01*
X012322Y010714D01*
X012322Y009034D01*
X013092Y009034D01*
X013512Y009454D01*
X013569Y009495D01*
X013512Y009804D01*
X013512Y009874D01*
X012952Y010434D01*
X012923Y010494D01*
X012952Y010504D01*
X013582Y011134D01*
X013582Y012884D01*
X013442Y013024D01*
X013383Y013042D01*
X013652Y013444D02*
X014002Y013094D01*
X014052Y013042D01*
X014072Y013024D01*
X014072Y011834D01*
X014062Y011831D01*
X014492Y012114D02*
X014562Y012044D01*
X014562Y010574D01*
X014625Y010524D01*
X014562Y009804D02*
X014625Y009776D01*
X013569Y009495D02*
X013512Y009524D01*
X013512Y009804D01*
X012781Y009495D02*
X012742Y009524D01*
X012602Y009664D01*
X012602Y011344D01*
X013022Y011764D01*
X013062Y011831D01*
X013022Y011834D01*
X012672Y012184D01*
X012672Y013164D01*
X012667Y013211D01*
X012602Y013164D01*
X011692Y013164D01*
X011584Y013103D01*
X011062Y013103D02*
X011062Y012954D01*
X011062Y012744D01*
X011039Y012678D01*
X011062Y012674D01*
X011062Y010294D01*
X011039Y010238D01*
X009452Y010784D02*
X009452Y013374D01*
X009732Y013234D02*
X009763Y013103D01*
X009732Y013234D02*
X009732Y014354D01*
X008962Y014354D01*
X008927Y014392D01*
X008682Y014004D02*
X008472Y014214D01*
X008472Y014844D01*
X008402Y014914D01*
X008472Y015264D02*
X008472Y016874D01*
X005602Y016874D01*
X005602Y010924D01*
X005580Y010888D01*
X008052Y010644D02*
X008060Y010587D01*
X008052Y010644D02*
X008052Y016314D01*
X008262Y016034D02*
X008192Y015964D01*
X008192Y013654D01*
X008752Y013094D01*
X008892Y013094D01*
X008927Y013093D01*
X008927Y013526D02*
X008962Y013584D01*
X009172Y013584D01*
X009452Y013864D01*
X008927Y013959D02*
X008892Y014004D01*
X008682Y014004D01*
X008927Y014825D02*
X008962Y014844D01*
X009102Y014844D01*
X009382Y015124D01*
X009382Y015474D01*
X009522Y015614D01*
X009662Y015824D02*
X008962Y015824D01*
X008962Y015754D01*
X008927Y015691D01*
X008892Y015264D02*
X008472Y015264D01*
X008892Y015264D02*
X008927Y015258D01*
X008927Y016124D02*
X008962Y016174D01*
X009172Y016174D01*
X009592Y016594D01*
X009102Y016734D02*
X009102Y017014D01*
X009172Y017014D01*
X009102Y017014D02*
X009102Y018204D01*
X009242Y018344D01*
X009310Y018368D01*
X008641Y018368D02*
X008612Y018414D01*
X007072Y018414D01*
X007057Y018368D01*
X007072Y018414D01*
X007072Y021004D01*
X006232Y021004D01*
X006220Y020986D01*
X006442Y021284D02*
X005462Y021284D01*
X005462Y020934D01*
X005432Y020908D01*
X005462Y020864D01*
X005812Y020514D01*
X005812Y018414D01*
X005875Y018368D01*
X005812Y018344D01*
X005812Y017924D01*
X004902Y017014D01*
X004843Y016951D01*
X004902Y016944D01*
X004902Y016874D01*
X005602Y016874D01*
X008472Y016874D02*
X008682Y017084D01*
X008690Y017087D01*
X009102Y016734D02*
X008962Y016594D01*
X008927Y016557D01*
X009662Y015824D02*
X010082Y015404D01*
X010502Y014914D02*
X010502Y017434D01*
X013862Y017434D01*
X014492Y016804D01*
X014492Y016174D01*
X014072Y016174D01*
X014045Y016154D01*
X014002Y016314D02*
X014045Y016351D01*
X014002Y016314D02*
X013512Y016314D01*
X013512Y015964D02*
X013512Y015614D01*
X013302Y015404D02*
X013302Y017224D01*
X013862Y018204D02*
X012812Y019254D01*
X012793Y019286D01*
X012742Y019954D02*
X012793Y019955D01*
X012742Y019954D02*
X011972Y019954D01*
X011972Y019744D01*
X011902Y019674D01*
X011132Y019674D01*
X010292Y018834D01*
X010292Y013234D01*
X010292Y013103D01*
X012667Y013880D02*
X012672Y013934D01*
X013652Y014914D01*
X013652Y015054D01*
X013722Y015124D01*
X014002Y015124D01*
X014045Y015170D01*
X014072Y014984D02*
X014045Y014973D01*
X014072Y014984D02*
X014912Y014984D01*
X014912Y015194D01*
X014772Y015544D02*
X014772Y017084D01*
X014632Y017224D01*
X014632Y021844D01*
X015122Y022334D01*
X015752Y022334D01*
X015752Y021704D01*
X015809Y021679D01*
X016309Y021679D02*
X016312Y021704D01*
X016312Y022474D01*
X017572Y022474D01*
X018272Y021774D01*
X018272Y017294D01*
X017852Y016874D01*
X017852Y016454D01*
X016032Y014634D01*
X016172Y015124D02*
X014492Y013444D01*
X014492Y012114D01*
X014632Y012184D02*
X014702Y012114D01*
X014702Y011694D01*
X015542Y010854D01*
X016312Y010854D01*
X016312Y007774D01*
X017152Y006934D01*
X017167Y006892D01*
X018167Y006892D02*
X018202Y006934D01*
X018202Y008124D01*
X018692Y008614D01*
X018692Y013444D01*
X016732Y013444D01*
X016592Y013304D01*
X016592Y013024D01*
X016604Y013004D01*
X016452Y012954D02*
X016407Y013004D01*
X016452Y012954D02*
X016452Y012324D01*
X016732Y012044D01*
X016732Y011274D01*
X016452Y010994D01*
X016452Y009104D01*
X017642Y007914D01*
X017667Y007892D01*
X017591Y009658D02*
X017642Y009664D01*
X017642Y010854D01*
X017777Y011028D01*
X017572Y010924D01*
X017572Y011484D01*
X017088Y011028D02*
X016942Y010924D01*
X016942Y012254D01*
X017432Y012254D01*
X017152Y012464D02*
X017152Y012954D01*
X017194Y013004D01*
X017012Y012954D02*
X016997Y013004D01*
X017012Y012954D02*
X016942Y012884D01*
X016942Y012254D01*
X016210Y011872D02*
X016172Y011904D01*
X016032Y012044D01*
X016032Y012954D01*
X016013Y013004D01*
X016172Y013024D02*
X016210Y013004D01*
X016172Y013024D02*
X016172Y013514D01*
X015962Y013724D01*
X014982Y013724D01*
X014982Y013654D01*
X014632Y013304D01*
X014632Y012184D01*
X015612Y012324D02*
X015612Y012954D01*
X015619Y013004D01*
X015816Y013004D02*
X015822Y013024D01*
X015822Y013514D01*
X014632Y013934D02*
X014632Y014004D01*
X014072Y014004D01*
X014045Y013988D01*
X014072Y013794D02*
X014045Y013792D01*
X014072Y013794D02*
X014072Y013444D01*
X013652Y013444D02*
X013652Y014564D01*
X014002Y014564D01*
X014045Y014579D01*
X014072Y014424D02*
X014045Y014382D01*
X014072Y014424D02*
X014422Y014424D01*
X014632Y014634D01*
X014492Y014844D02*
X014422Y014774D01*
X014072Y014774D01*
X014045Y014776D01*
X014492Y014844D02*
X015122Y014844D01*
X015122Y015614D01*
X014772Y015544D02*
X014072Y015544D01*
X014045Y015563D01*
X014002Y015404D02*
X014045Y015366D01*
X014002Y015404D02*
X013302Y015404D01*
X013512Y015964D02*
X014002Y015964D01*
X014045Y015957D01*
X014045Y015760D02*
X014072Y015754D01*
X014562Y015754D01*
X015402Y014914D02*
X015402Y017504D01*
X015423Y017532D01*
X015612Y017504D02*
X015619Y017532D01*
X015612Y017504D02*
X015612Y016804D01*
X015816Y017532D02*
X015822Y017574D01*
X015822Y017854D01*
X015472Y018204D01*
X015262Y018554D02*
X015262Y019324D01*
X015052Y019534D01*
X015052Y021424D01*
X015262Y021634D01*
X015309Y021679D01*
X016809Y021679D02*
X016872Y021704D01*
X016872Y022334D01*
X017502Y022334D01*
X018132Y021704D01*
X018132Y017364D01*
X017222Y016454D01*
X017152Y017014D02*
X017362Y017224D01*
X017362Y017504D01*
X017391Y017532D01*
X017572Y017574D02*
X017588Y017532D01*
X017572Y017574D02*
X017642Y017644D01*
X017642Y018064D01*
X017012Y017574D02*
X016997Y017532D01*
X017012Y017574D02*
X016942Y017644D01*
X016942Y019184D01*
X016312Y019814D01*
X016312Y020094D01*
X016309Y020104D01*
X015822Y020094D02*
X015822Y019674D01*
X016802Y018694D01*
X016802Y017574D01*
X016801Y017532D01*
X016604Y017532D02*
X016592Y017504D01*
X016592Y016244D01*
X016382Y016804D02*
X016382Y017504D01*
X016407Y017532D01*
X016210Y017532D02*
X016172Y017504D01*
X016172Y015124D01*
X015402Y014914D02*
X015332Y014844D01*
X014632Y014284D02*
X014632Y014214D01*
X014072Y014214D01*
X014045Y014185D01*
X014832Y017532D02*
X014842Y017574D01*
X014842Y019114D01*
X015052Y018834D02*
X015052Y017574D01*
X015029Y017532D01*
X015542Y018904D02*
X015542Y019884D01*
X015332Y020094D01*
X015309Y020104D01*
X015809Y020104D02*
X015822Y020094D01*
X016809Y020104D02*
X016872Y020094D01*
X016872Y019744D01*
X017082Y019534D01*
X017082Y018764D01*
X017152Y018694D01*
X017572Y019184D02*
X017922Y019184D01*
X017922Y019744D01*
X017712Y019394D02*
X017712Y021284D01*
X017362Y021634D01*
X017309Y021679D01*
X017309Y020104D02*
X017362Y020094D01*
X017502Y019954D01*
X017502Y019254D01*
X017572Y019184D01*
X019042Y017714D02*
X019742Y017714D01*
X019763Y017729D01*
X019812Y017784D01*
X019952Y017924D01*
X019952Y018274D01*
X021422Y019744D01*
X022962Y019744D01*
X022962Y019961D01*
X023032Y020024D01*
X023382Y020374D01*
X023382Y021284D01*
X022962Y021284D01*
X022962Y021361D01*
X022962Y020794D02*
X022962Y020787D01*
X022962Y020724D01*
X022052Y020724D01*
X022052Y020709D01*
X021702Y021074D02*
X021702Y021214D01*
X021912Y021424D01*
X022052Y021509D01*
X021982Y022124D02*
X022052Y022179D01*
X021982Y022124D02*
X022892Y022124D01*
X022962Y022187D01*
X022052Y020039D02*
X021982Y020024D01*
X021562Y020024D01*
X021142Y019254D02*
X023312Y019254D01*
X023312Y011694D01*
X022612Y010994D01*
X022612Y009244D01*
X023032Y008824D01*
X023100Y008801D01*
X023592Y009244D02*
X023592Y008334D01*
X021212Y008334D01*
X020232Y009314D01*
X020232Y013304D01*
X020302Y013374D01*
X020092Y013864D02*
X020092Y008474D01*
X020652Y007914D01*
X020667Y007892D01*
X020442Y007424D02*
X023032Y007424D01*
X023032Y007774D01*
X023100Y007801D01*
X023592Y009244D02*
X023102Y009734D01*
X023100Y009801D01*
X021422Y009664D02*
X021391Y009658D01*
X021422Y009664D02*
X021422Y010924D01*
X021427Y010986D01*
X021422Y010994D01*
X021072Y011344D01*
X021072Y013024D01*
X020932Y013164D01*
X021422Y012674D02*
X021772Y013024D01*
X021810Y013034D01*
X021842Y013094D01*
X021982Y013234D01*
X021982Y015334D01*
X022612Y015964D01*
X022657Y015967D01*
X022962Y016244D02*
X022962Y016314D01*
X022402Y016314D01*
X021842Y015754D01*
X021842Y014704D01*
X020932Y013794D01*
X020722Y014284D02*
X021492Y015054D01*
X021492Y015334D01*
X021513Y015382D01*
X021562Y015404D01*
X021562Y016594D01*
X021574Y016597D01*
X021632Y016664D01*
X022052Y016664D01*
X022052Y018134D01*
X022007Y018191D01*
X021982Y018904D02*
X021282Y018904D01*
X021002Y018624D01*
X021002Y018344D01*
X020582Y017924D01*
X020432Y017729D01*
X020442Y017784D01*
X020582Y017924D01*
X020372Y018134D01*
X020092Y018204D02*
X021142Y019254D01*
X021142Y018554D02*
X021142Y014914D01*
X020092Y013864D01*
X020722Y014284D02*
X020722Y011904D01*
X020722Y010994D01*
X020738Y010986D01*
X021282Y012324D02*
X021422Y012464D01*
X021422Y012674D01*
X021810Y012286D02*
X021842Y012254D01*
X022122Y011974D01*
X023172Y011974D01*
X023172Y016314D01*
X022892Y016594D01*
X022682Y016594D01*
X022657Y016636D01*
X022612Y016664D01*
X022052Y016664D01*
X022962Y016244D02*
X023032Y016174D01*
X023032Y013094D01*
X022612Y012674D01*
X022608Y012660D01*
X020844Y015382D02*
X020792Y015404D01*
X020162Y015404D01*
X019952Y016174D02*
X019952Y008264D01*
X020162Y008054D01*
X020162Y007704D01*
X020442Y007424D01*
X018482Y012954D02*
X017782Y012954D01*
X017785Y013004D01*
X017992Y014004D02*
X017992Y016664D01*
X019042Y017714D01*
X018622Y016734D02*
X018572Y016744D01*
X018552Y016734D01*
X018272Y016734D01*
X018132Y016594D01*
X018132Y014214D01*
X018552Y014214D01*
X018572Y014185D01*
X018552Y014004D02*
X018572Y013988D01*
X018552Y014004D02*
X017992Y014004D01*
X019112Y015754D02*
X018902Y015964D01*
X018622Y015964D01*
X018572Y015957D01*
X018572Y016154D02*
X018622Y016174D01*
X019952Y016174D01*
X020092Y016384D02*
X020092Y018204D01*
X021142Y018554D02*
X022752Y018554D01*
X022805Y018565D01*
X022007Y018939D02*
X021982Y018904D01*
X020787Y016597D02*
X020722Y016594D01*
X020302Y016594D01*
X020092Y016384D02*
X018622Y016384D01*
X018572Y016351D01*
X018622Y016524D02*
X018572Y016547D01*
X018622Y016524D02*
X019882Y016524D01*
X019882Y016594D01*
X019532Y016734D02*
X018622Y016734D01*
X012042Y018834D02*
X011622Y019254D01*
X011566Y019272D01*
X011132Y019674D02*
X011132Y021074D01*
X011482Y021074D01*
X011486Y021075D01*
X011132Y021074D02*
X010642Y021074D01*
X010551Y021075D01*
X011486Y021764D02*
X011552Y021704D01*
X011832Y021424D01*
X011832Y020304D01*
X011622Y020094D01*
X011566Y020059D01*
X007745Y021075D02*
X007702Y021074D01*
X007702Y021004D01*
X007072Y021004D01*
X006582Y021424D02*
X006442Y021284D01*
X006582Y021424D02*
X006582Y021704D01*
X007702Y021704D01*
X007745Y021764D01*
X009452Y010784D02*
X009242Y010574D01*
X009233Y010540D01*
D44*
X009452Y013374D03*
X009452Y013864D03*
X010502Y014914D03*
X010082Y015404D03*
X009522Y015614D03*
X009592Y016594D03*
X009172Y017014D03*
X008052Y016314D03*
X008262Y016034D03*
X008402Y014914D03*
X012042Y018834D03*
X013302Y017224D03*
X013512Y016314D03*
X013512Y015614D03*
X014562Y015754D03*
X015122Y015614D03*
X014912Y015194D03*
X015332Y014844D03*
X014632Y014634D03*
X014632Y014284D03*
X014632Y013934D03*
X014072Y013444D03*
X015612Y012324D03*
X015822Y013514D03*
X016032Y014634D03*
X016592Y016244D03*
X016382Y016804D03*
X015612Y016804D03*
X015472Y018204D03*
X015262Y018554D03*
X015052Y018834D03*
X014842Y019114D03*
X015542Y018904D03*
X017152Y018694D03*
X017642Y018064D03*
X017152Y017014D03*
X017222Y016454D03*
X019112Y015754D03*
X019532Y016734D03*
X019882Y016594D03*
X020302Y016594D03*
X020162Y015404D03*
X020932Y013794D03*
X020302Y013374D03*
X020932Y013164D03*
X021282Y012324D03*
X020722Y011904D03*
X018482Y012954D03*
X017432Y012254D03*
X017152Y012464D03*
X017572Y011484D03*
X020372Y018134D03*
X021562Y020024D03*
X021702Y021074D03*
X023382Y021284D03*
X017922Y019744D03*
X017712Y019394D03*
X013862Y018204D03*
D45*
X013592Y010494D02*
X014625Y010524D01*
X009419Y009904D02*
X009419Y008329D01*
X009320Y008231D01*
X007745Y008624D02*
X007549Y008427D01*
X007057Y008427D01*
X007057Y008447D01*
X007057Y008132D02*
X006269Y008132D01*
X006269Y008231D01*
X006171Y007886D02*
X006466Y007591D01*
X006466Y007542D01*
X006515Y007492D01*
X007047Y007492D01*
X007057Y007502D01*
X006171Y007886D02*
X005580Y007886D01*
X005580Y010888D01*
X004843Y010888D01*
X007942Y009904D02*
X007942Y009510D01*
X007745Y009313D01*
X007745Y008624D01*
X007942Y009904D02*
X008041Y009904D01*
X008060Y009918D01*
X009233Y009870D02*
X009320Y009904D01*
X009419Y009904D01*
D46*
X008484Y008673D02*
X008484Y007542D01*
X008480Y007469D01*
X007980Y007469D01*
X007057Y007469D01*
X007057Y007502D01*
X007982Y007494D02*
X007982Y007354D01*
X007982Y005534D01*
X007982Y005464D01*
X007980Y005449D02*
X007982Y005394D01*
X007982Y004904D01*
X007562Y004904D01*
X007142Y004484D01*
X007142Y004134D01*
X007142Y004064D01*
X008976Y004933D02*
X010501Y004933D01*
X013553Y004933D01*
X013553Y003752D01*
X011692Y004064D02*
X011692Y004134D01*
X011692Y004064D02*
X011552Y004064D01*
X011482Y003994D01*
X010782Y003994D01*
X010747Y003998D01*
X010501Y004933D02*
X010501Y005659D01*
X008980Y005449D02*
X008976Y005449D01*
X008976Y004933D01*
X008980Y007469D02*
X008480Y007469D01*
X008980Y007469D02*
X009480Y007469D01*
X011190Y008477D02*
X011190Y008673D01*
X011949Y008673D01*
X011190Y008673D02*
X011141Y008673D01*
D47*
X010600Y021075D02*
X010551Y021075D01*
X009665Y021075D01*
X009616Y021075D01*
X008730Y021075D01*
X008681Y021075D01*
X007795Y021075D01*
X007745Y021075D01*
X007745Y021764D02*
X008681Y021764D01*
X009616Y021764D01*
X010551Y021764D01*
X011486Y021764D01*
X006220Y021666D02*
X006220Y021656D01*
X006220Y021666D02*
X005777Y021666D01*
X005777Y021715D01*
X005432Y021715D01*
X005432Y021734D01*
D48*
X007142Y004134D03*
X011692Y004134D03*
D49*
X010501Y007209D02*
X010501Y007469D01*
X010082Y007469D01*
X010082Y009594D01*
X010152Y009664D01*
X010152Y010224D01*
X010129Y010238D01*
X010082Y007469D02*
X009480Y007469D01*
D50*
X010501Y007469D02*
X010712Y007564D01*
X010712Y007844D01*
X011190Y008477D02*
X013553Y008477D01*
X014562Y009314D02*
X014562Y009734D01*
X014625Y009776D01*
X015423Y009904D02*
X015423Y010101D01*
X015423Y010150D01*
X015423Y009904D02*
X015521Y009805D01*
X015521Y008723D01*
X015542Y008194D02*
X015542Y007844D01*
X015542Y007774D01*
X011949Y008673D02*
X011949Y010238D01*
D51*
X010712Y007844D03*
X014562Y009314D03*
X015542Y008194D03*
X015542Y007844D03*
X009763Y012463D03*
M02*
