G75*
G70*
%OFA0B0*%
%FSLAX24Y24*%
%IPPOS*%
%LPD*%
%AMOC8*
5,1,8,0,0,1.08239X$1,22.5*
%
%ADD10C,0.0000*%
%ADD11C,0.0560*%
%ADD12C,0.0554*%
%ADD13C,0.0740*%
%ADD14R,0.0740X0.0740*%
%ADD15C,0.0400*%
%ADD16C,0.0320*%
%ADD17C,0.0360*%
%ADD18C,0.0060*%
%ADD19C,0.0240*%
%ADD20C,0.0240*%
%ADD21C,0.0531*%
%ADD22C,0.0500*%
%ADD23C,0.0160*%
%ADD24C,0.0356*%
D10*
X004202Y003014D02*
X004202Y022699D01*
X023887Y022699D01*
X023887Y003014D01*
X004202Y003014D01*
X004460Y012699D02*
X004462Y012725D01*
X004468Y012751D01*
X004477Y012775D01*
X004490Y012798D01*
X004507Y012818D01*
X004526Y012836D01*
X004548Y012851D01*
X004571Y012862D01*
X004596Y012870D01*
X004622Y012874D01*
X004648Y012874D01*
X004674Y012870D01*
X004699Y012862D01*
X004723Y012851D01*
X004744Y012836D01*
X004763Y012818D01*
X004780Y012798D01*
X004793Y012775D01*
X004802Y012751D01*
X004808Y012725D01*
X004810Y012699D01*
X004808Y012673D01*
X004802Y012647D01*
X004793Y012623D01*
X004780Y012600D01*
X004763Y012580D01*
X004744Y012562D01*
X004722Y012547D01*
X004699Y012536D01*
X004674Y012528D01*
X004648Y012524D01*
X004622Y012524D01*
X004596Y012528D01*
X004571Y012536D01*
X004547Y012547D01*
X004526Y012562D01*
X004507Y012580D01*
X004490Y012600D01*
X004477Y012623D01*
X004468Y012647D01*
X004462Y012673D01*
X004460Y012699D01*
X004460Y015849D02*
X004462Y015875D01*
X004468Y015901D01*
X004477Y015925D01*
X004490Y015948D01*
X004507Y015968D01*
X004526Y015986D01*
X004548Y016001D01*
X004571Y016012D01*
X004596Y016020D01*
X004622Y016024D01*
X004648Y016024D01*
X004674Y016020D01*
X004699Y016012D01*
X004723Y016001D01*
X004744Y015986D01*
X004763Y015968D01*
X004780Y015948D01*
X004793Y015925D01*
X004802Y015901D01*
X004808Y015875D01*
X004810Y015849D01*
X004808Y015823D01*
X004802Y015797D01*
X004793Y015773D01*
X004780Y015750D01*
X004763Y015730D01*
X004744Y015712D01*
X004722Y015697D01*
X004699Y015686D01*
X004674Y015678D01*
X004648Y015674D01*
X004622Y015674D01*
X004596Y015678D01*
X004571Y015686D01*
X004547Y015697D01*
X004526Y015712D01*
X004507Y015730D01*
X004490Y015750D01*
X004477Y015773D01*
X004468Y015797D01*
X004462Y015823D01*
X004460Y015849D01*
X016037Y004392D02*
X016039Y004442D01*
X016045Y004492D01*
X016055Y004541D01*
X016069Y004589D01*
X016086Y004636D01*
X016107Y004681D01*
X016132Y004725D01*
X016160Y004766D01*
X016192Y004805D01*
X016226Y004842D01*
X016263Y004876D01*
X016303Y004906D01*
X016345Y004933D01*
X016389Y004957D01*
X016435Y004978D01*
X016482Y004994D01*
X016530Y005007D01*
X016580Y005016D01*
X016629Y005021D01*
X016680Y005022D01*
X016730Y005019D01*
X016779Y005012D01*
X016828Y005001D01*
X016876Y004986D01*
X016922Y004968D01*
X016967Y004946D01*
X017010Y004920D01*
X017051Y004891D01*
X017090Y004859D01*
X017126Y004824D01*
X017158Y004786D01*
X017188Y004746D01*
X017215Y004703D01*
X017238Y004659D01*
X017257Y004613D01*
X017273Y004565D01*
X017285Y004516D01*
X017293Y004467D01*
X017297Y004417D01*
X017297Y004367D01*
X017293Y004317D01*
X017285Y004268D01*
X017273Y004219D01*
X017257Y004171D01*
X017238Y004125D01*
X017215Y004081D01*
X017188Y004038D01*
X017158Y003998D01*
X017126Y003960D01*
X017090Y003925D01*
X017051Y003893D01*
X017010Y003864D01*
X016967Y003838D01*
X016922Y003816D01*
X016876Y003798D01*
X016828Y003783D01*
X016779Y003772D01*
X016730Y003765D01*
X016680Y003762D01*
X016629Y003763D01*
X016580Y003768D01*
X016530Y003777D01*
X016482Y003790D01*
X016435Y003806D01*
X016389Y003827D01*
X016345Y003851D01*
X016303Y003878D01*
X016263Y003908D01*
X016226Y003942D01*
X016192Y003979D01*
X016160Y004018D01*
X016132Y004059D01*
X016107Y004103D01*
X016086Y004148D01*
X016069Y004195D01*
X016055Y004243D01*
X016045Y004292D01*
X016039Y004342D01*
X016037Y004392D01*
X020537Y004392D02*
X020539Y004442D01*
X020545Y004492D01*
X020555Y004541D01*
X020569Y004589D01*
X020586Y004636D01*
X020607Y004681D01*
X020632Y004725D01*
X020660Y004766D01*
X020692Y004805D01*
X020726Y004842D01*
X020763Y004876D01*
X020803Y004906D01*
X020845Y004933D01*
X020889Y004957D01*
X020935Y004978D01*
X020982Y004994D01*
X021030Y005007D01*
X021080Y005016D01*
X021129Y005021D01*
X021180Y005022D01*
X021230Y005019D01*
X021279Y005012D01*
X021328Y005001D01*
X021376Y004986D01*
X021422Y004968D01*
X021467Y004946D01*
X021510Y004920D01*
X021551Y004891D01*
X021590Y004859D01*
X021626Y004824D01*
X021658Y004786D01*
X021688Y004746D01*
X021715Y004703D01*
X021738Y004659D01*
X021757Y004613D01*
X021773Y004565D01*
X021785Y004516D01*
X021793Y004467D01*
X021797Y004417D01*
X021797Y004367D01*
X021793Y004317D01*
X021785Y004268D01*
X021773Y004219D01*
X021757Y004171D01*
X021738Y004125D01*
X021715Y004081D01*
X021688Y004038D01*
X021658Y003998D01*
X021626Y003960D01*
X021590Y003925D01*
X021551Y003893D01*
X021510Y003864D01*
X021467Y003838D01*
X021422Y003816D01*
X021376Y003798D01*
X021328Y003783D01*
X021279Y003772D01*
X021230Y003765D01*
X021180Y003762D01*
X021129Y003763D01*
X021080Y003768D01*
X021030Y003777D01*
X020982Y003790D01*
X020935Y003806D01*
X020889Y003827D01*
X020845Y003851D01*
X020803Y003878D01*
X020763Y003908D01*
X020726Y003942D01*
X020692Y003979D01*
X020660Y004018D01*
X020632Y004059D01*
X020607Y004103D01*
X020586Y004148D01*
X020569Y004195D01*
X020555Y004243D01*
X020545Y004292D01*
X020539Y004342D01*
X020537Y004392D01*
D11*
X006466Y004097D03*
X006466Y004884D03*
D12*
X006072Y007266D03*
X006072Y008998D03*
D13*
X013062Y011831D03*
X014062Y011831D03*
X015210Y011872D03*
X016210Y011872D03*
X017667Y007892D03*
X018667Y007892D03*
X019667Y007892D03*
X020667Y007892D03*
X020167Y006892D03*
X019167Y006892D03*
X018167Y006892D03*
X023100Y006801D03*
X023100Y005801D03*
X023100Y004801D03*
X023100Y007801D03*
X023100Y008801D03*
X023100Y009801D03*
X023100Y010801D03*
D14*
X017167Y006892D03*
X023100Y003801D03*
D15*
X023082Y003784D01*
X022291Y003390D01*
X019141Y003386D01*
X019158Y005436D01*
X019121Y005436D01*
X019141Y006695D01*
X019167Y006892D01*
X018236Y005814D01*
X016172Y005814D01*
X015242Y004884D01*
X008484Y004884D01*
X008192Y004884D01*
X008192Y004834D01*
X008192Y004884D02*
X006515Y004884D01*
X006466Y004884D01*
X005482Y004884D01*
X005462Y008124D01*
X005462Y011484D01*
X005812Y011484D01*
X005812Y014431D01*
X005812Y017154D01*
X005482Y020731D01*
X021702Y020731D01*
X022706Y020731D01*
X022706Y013103D01*
X022332Y011774D02*
X020722Y011774D01*
X018062Y011774D01*
X017883Y011774D01*
X018769Y008723D02*
X016899Y008723D01*
X015521Y008723D01*
X015542Y008194D02*
X015332Y008194D01*
X014562Y008964D01*
X014562Y009314D01*
X015542Y007844D02*
X010712Y007844D01*
X011692Y004097D02*
X007142Y004097D01*
X006466Y004097D01*
X004933Y004097D01*
X004902Y011624D01*
X004902Y011694D01*
X005252Y012254D01*
X005252Y017644D01*
X004902Y017644D01*
X004902Y021616D01*
X023444Y021616D01*
X023444Y021284D01*
X023444Y011774D01*
X022332Y011774D01*
X018966Y008723D02*
X018769Y008723D01*
X018966Y008723D02*
X019016Y008721D01*
X019066Y008716D01*
X019115Y008707D01*
X019163Y008695D01*
X019211Y008679D01*
X019257Y008660D01*
X019302Y008637D01*
X019345Y008612D01*
X019386Y008583D01*
X019425Y008552D01*
X019462Y008518D01*
X019496Y008481D01*
X019527Y008442D01*
X019556Y008401D01*
X019581Y008358D01*
X019604Y008313D01*
X019623Y008267D01*
X019639Y008219D01*
X019651Y008171D01*
X019660Y008122D01*
X019665Y008072D01*
X019667Y008022D01*
X019667Y007892D01*
X015521Y004146D02*
X015521Y004097D01*
X011692Y004097D01*
X005812Y014431D02*
X005832Y015411D01*
D16*
X007057Y012463D02*
X007057Y019254D01*
X014842Y019254D01*
X017712Y019254D01*
X020738Y019254D01*
X020738Y016804D01*
X020738Y014185D01*
X021033Y014185D01*
X021525Y012610D02*
X021673Y012610D01*
X021525Y012610D02*
X021525Y019894D01*
X017922Y019894D01*
X006269Y019894D01*
X006269Y010839D01*
X021316Y010979D01*
X021250Y007075D01*
X021250Y007074D01*
X021282Y006864D01*
X020162Y006864D01*
X020092Y006864D01*
X021246Y006881D02*
X021250Y007075D01*
X009763Y012463D02*
X007057Y012463D01*
X008484Y004933D02*
X008484Y004884D01*
D17*
X008484Y004933D03*
X009320Y008231D03*
X006269Y008231D03*
X015521Y008723D03*
D18*
X017572Y011484D02*
X016382Y012394D01*
X015682Y012394D01*
X015612Y012324D01*
X015192Y012324D02*
X015192Y011904D01*
X015210Y011872D01*
X015192Y012324D02*
X014982Y012534D01*
X017082Y012534D01*
X017152Y012464D01*
X017292Y012674D02*
X017572Y012394D01*
X017432Y012254D01*
X017572Y012394D02*
X018062Y011904D01*
X018062Y011774D01*
X017292Y012674D02*
X015892Y012674D01*
X014632Y013934D01*
X014422Y014074D02*
X010502Y014074D01*
X009592Y013164D01*
X009032Y013164D01*
X007492Y014704D01*
X007492Y018554D01*
X015262Y018554D01*
X015472Y018204D02*
X013862Y018204D01*
X014072Y017994D02*
X016452Y017994D01*
X017152Y018694D01*
X017362Y018904D02*
X017432Y018834D01*
X017432Y015404D01*
X019112Y015404D01*
X020722Y013794D01*
X020932Y013794D01*
X020302Y013374D02*
X018412Y015264D01*
X014982Y015264D01*
X014912Y015194D01*
X015122Y015614D02*
X015962Y016454D01*
X017222Y016454D01*
X017152Y017014D02*
X009172Y017014D01*
X009592Y016594D02*
X016172Y016594D01*
X016382Y016804D01*
X016592Y016244D02*
X015752Y015404D01*
X010082Y015404D01*
X009522Y015614D02*
X013512Y015614D01*
X013232Y016034D02*
X008262Y016034D01*
X008332Y015824D02*
X007772Y015264D01*
X007772Y014914D01*
X008402Y014914D01*
X008332Y015824D02*
X014492Y015824D01*
X014562Y015754D01*
X015332Y014844D02*
X010922Y014844D01*
X009452Y013374D01*
X009452Y013864D02*
X010502Y014914D01*
X008542Y016804D02*
X015612Y016804D01*
X014072Y017994D02*
X013302Y017224D01*
X013512Y016314D02*
X013232Y016034D01*
X014632Y014634D02*
X016032Y014634D01*
X015822Y013514D02*
X016172Y013164D01*
X020932Y013164D01*
X021282Y012324D02*
X019112Y012324D01*
X018482Y012954D01*
X020722Y011904D02*
X020722Y011774D01*
X022332Y011774D02*
X022332Y011624D01*
X020162Y015404D02*
X019812Y015754D01*
X019112Y015754D01*
X019532Y016734D02*
X019602Y016804D01*
X020582Y016804D01*
X020738Y016804D01*
X020302Y016594D02*
X019882Y016594D01*
X020372Y018134D02*
X017712Y018134D01*
X017642Y018064D01*
X017362Y018904D02*
X015542Y018904D01*
X015052Y018834D02*
X012042Y018834D01*
X014842Y019114D02*
X014842Y019254D01*
X017712Y019254D02*
X017712Y019394D01*
X017922Y019744D02*
X017922Y019894D01*
X021525Y019894D02*
X021562Y020024D01*
X021702Y020731D02*
X021702Y021074D01*
X023382Y021284D02*
X023444Y021284D01*
X014632Y014284D02*
X014422Y014074D01*
X014072Y013444D02*
X014422Y013094D01*
X013162Y011834D01*
X013092Y011834D01*
X013062Y011831D01*
X014422Y013094D02*
X014982Y012534D01*
X020167Y006892D02*
X020162Y006864D01*
X023102Y004834D02*
X023102Y004764D01*
X023100Y004801D02*
X023102Y004834D01*
X008542Y016804D02*
X008052Y016314D01*
D19*
X008052Y016314D03*
X008262Y016034D03*
X008402Y014914D03*
X009522Y015614D03*
X010082Y015404D03*
X010502Y014914D03*
X009452Y013864D03*
X009452Y013374D03*
X009592Y016594D03*
X009172Y017014D03*
X012042Y018834D03*
X013302Y017224D03*
X013512Y016314D03*
X013512Y015614D03*
X014562Y015754D03*
X015122Y015614D03*
X014912Y015194D03*
X015332Y014844D03*
X014632Y014634D03*
X014632Y014284D03*
X014632Y013934D03*
X014072Y013444D03*
X015612Y012324D03*
X015822Y013514D03*
X016032Y014634D03*
X016592Y016244D03*
X016382Y016804D03*
X015612Y016804D03*
X015472Y018204D03*
X015262Y018554D03*
X015052Y018834D03*
X014842Y019114D03*
X015542Y018904D03*
X017152Y018694D03*
X017642Y018064D03*
X017152Y017014D03*
X017222Y016454D03*
X019112Y015754D03*
X019532Y016734D03*
X019882Y016594D03*
X020302Y016594D03*
X020162Y015404D03*
X020932Y013794D03*
X020302Y013374D03*
X020932Y013164D03*
X021282Y012324D03*
X020722Y011904D03*
X018482Y012954D03*
X017432Y012254D03*
X017152Y012464D03*
X017572Y011484D03*
X020372Y018134D03*
X021562Y020024D03*
X021702Y021074D03*
X023382Y021284D03*
X017922Y019744D03*
X017712Y019394D03*
X013862Y018204D03*
D20*
X011692Y004134D02*
X011692Y004097D01*
X007142Y004134D02*
X007142Y004097D01*
D21*
X007142Y004134D03*
X011692Y004134D03*
D22*
X022332Y004764D02*
X023102Y004764D01*
X022332Y004764D02*
X022332Y011624D01*
X022332Y011764D01*
D23*
X022756Y011316D02*
X022585Y011146D01*
X022492Y010922D01*
X022492Y010681D01*
X022585Y010457D01*
X022741Y010301D01*
X022585Y010146D01*
X022492Y009922D01*
X022492Y009681D01*
X022585Y009457D01*
X022741Y009301D01*
X022585Y009146D01*
X022492Y008922D01*
X022492Y008681D01*
X022585Y008457D01*
X022741Y008301D01*
X022585Y008146D01*
X022492Y007922D01*
X022492Y007681D01*
X022585Y007457D01*
X022741Y007301D01*
X022585Y007146D01*
X022492Y006922D01*
X022492Y006681D01*
X022585Y006457D01*
X022741Y006301D01*
X022585Y006146D01*
X022492Y005922D01*
X022492Y005681D01*
X022585Y005457D01*
X022756Y005286D01*
X022804Y005266D01*
X022742Y005221D01*
X022680Y005160D01*
X022629Y005090D01*
X022590Y005013D01*
X022563Y004930D01*
X022550Y004845D01*
X022550Y004821D01*
X023080Y004821D01*
X023080Y004781D01*
X023120Y004781D01*
X023120Y004409D01*
X023080Y004409D01*
X023080Y004781D01*
X022550Y004781D01*
X022550Y004758D01*
X022563Y004673D01*
X022590Y004590D01*
X022629Y004513D01*
X022680Y004443D01*
X022715Y004409D01*
X022631Y004409D01*
X022492Y004270D01*
X022492Y003979D01*
X022188Y003828D01*
X021829Y003827D01*
X021902Y003901D01*
X022034Y004219D01*
X022034Y004565D01*
X021902Y004883D01*
X021658Y005127D01*
X021339Y005259D01*
X020994Y005259D01*
X020675Y005127D01*
X020431Y004883D01*
X020299Y004565D01*
X020299Y004219D01*
X020431Y003901D01*
X020507Y003825D01*
X019582Y003824D01*
X019595Y005347D01*
X019596Y005349D01*
X019596Y005434D01*
X019597Y005519D01*
X019596Y005521D01*
X019596Y005523D01*
X019563Y005601D01*
X019561Y005606D01*
X019575Y006441D01*
X019667Y006533D01*
X019823Y006377D01*
X020046Y006284D01*
X020288Y006284D01*
X020511Y006377D01*
X020600Y006467D01*
X021235Y006467D01*
X021265Y006459D01*
X021313Y006467D01*
X021361Y006467D01*
X021390Y006479D01*
X021421Y006483D01*
X021463Y006509D01*
X021507Y006527D01*
X021530Y006549D01*
X021556Y006566D01*
X021585Y006605D01*
X021619Y006639D01*
X021631Y006668D01*
X021650Y006693D01*
X021661Y006740D01*
X021680Y006785D01*
X021680Y006816D01*
X021687Y006847D01*
X021680Y006895D01*
X021680Y006943D01*
X021668Y006972D01*
X021648Y007101D01*
X021712Y010898D01*
X021714Y010903D01*
X021714Y010977D01*
X021715Y011051D01*
X021713Y011056D01*
X021713Y011062D01*
X021684Y011130D01*
X021657Y011198D01*
X021653Y011202D01*
X021651Y011207D01*
X021598Y011259D01*
X021547Y011312D01*
X021542Y011314D01*
X021538Y011318D01*
X021470Y011345D01*
X021402Y011375D01*
X021397Y011375D01*
X021392Y011377D01*
X021318Y011376D01*
X021244Y011378D01*
X021239Y011376D01*
X017901Y011345D01*
X017930Y011413D01*
X017930Y011555D01*
X017875Y011687D01*
X017775Y011787D01*
X017643Y011841D01*
X017545Y011841D01*
X017198Y012107D01*
X017223Y012107D01*
X017355Y012161D01*
X017455Y012262D01*
X017510Y012393D01*
X017510Y012535D01*
X017455Y012667D01*
X017355Y012767D01*
X017223Y012821D01*
X017081Y012821D01*
X017033Y012801D01*
X015093Y012801D01*
X014649Y013246D01*
X014574Y013321D01*
X014574Y013321D01*
X014430Y013465D01*
X014430Y013515D01*
X014375Y013647D01*
X014275Y013747D01*
X014143Y013801D01*
X014001Y013801D01*
X013870Y013747D01*
X013769Y013647D01*
X013715Y013515D01*
X013715Y013373D01*
X013769Y013242D01*
X013870Y013141D01*
X014001Y013087D01*
X014036Y013087D01*
X013328Y012378D01*
X013183Y012438D01*
X012941Y012438D01*
X012718Y012346D01*
X012547Y012175D01*
X012455Y011952D01*
X012455Y011710D01*
X012547Y011487D01*
X012718Y011316D01*
X012764Y011297D01*
X006667Y011240D01*
X006667Y012366D01*
X006720Y012238D01*
X006831Y012126D01*
X006977Y012065D01*
X009637Y012065D01*
X009681Y012047D01*
X009846Y012047D01*
X009999Y012111D01*
X010116Y012227D01*
X010179Y012380D01*
X010179Y012546D01*
X010116Y012698D01*
X009999Y012815D01*
X009846Y012878D01*
X009681Y012878D01*
X009637Y012860D01*
X007454Y012860D01*
X007454Y014364D01*
X008881Y012937D01*
X008979Y012897D01*
X009645Y012897D01*
X009744Y012937D01*
X010613Y013807D01*
X014475Y013807D01*
X014574Y013847D01*
X014649Y013923D01*
X014653Y013927D01*
X014703Y013927D01*
X014835Y013981D01*
X014935Y014082D01*
X014990Y014213D01*
X014990Y014355D01*
X014985Y014367D01*
X015794Y014367D01*
X015830Y014331D01*
X015961Y014277D01*
X016103Y014277D01*
X016235Y014331D01*
X016335Y014432D01*
X016390Y014563D01*
X016390Y014705D01*
X016335Y014837D01*
X016235Y014937D01*
X016103Y014991D01*
X015961Y014991D01*
X015830Y014937D01*
X015794Y014901D01*
X015690Y014901D01*
X015690Y014915D01*
X015656Y014997D01*
X018301Y014997D01*
X019866Y013431D01*
X016283Y013431D01*
X016180Y013535D01*
X016180Y013585D01*
X016125Y013717D01*
X016025Y013817D01*
X015893Y013871D01*
X015751Y013871D01*
X015620Y013817D01*
X015519Y013717D01*
X015465Y013585D01*
X015465Y013443D01*
X015519Y013312D01*
X015620Y013211D01*
X015751Y013157D01*
X015801Y013157D01*
X015945Y013013D01*
X016021Y012937D01*
X016119Y012897D01*
X018125Y012897D01*
X018125Y012883D01*
X018179Y012752D01*
X018280Y012651D01*
X018411Y012597D01*
X018461Y012597D01*
X018885Y012173D01*
X018961Y012097D01*
X019059Y012057D01*
X021044Y012057D01*
X021080Y012021D01*
X021211Y011967D01*
X021353Y011967D01*
X021485Y012021D01*
X021585Y012122D01*
X021623Y012213D01*
X021752Y012213D01*
X021898Y012274D01*
X022010Y012385D01*
X022070Y012531D01*
X022070Y012690D01*
X022010Y012836D01*
X021922Y012923D01*
X021922Y019973D01*
X021920Y019980D01*
X021920Y020095D01*
X021865Y020227D01*
X021799Y020293D01*
X022269Y020293D01*
X022269Y013016D01*
X022335Y012855D01*
X022458Y012732D01*
X022619Y012665D01*
X022793Y012665D01*
X022954Y012732D01*
X023077Y012855D01*
X023144Y013016D01*
X023144Y020818D01*
X023077Y020978D01*
X022954Y021101D01*
X022793Y021168D01*
X022050Y021168D01*
X022005Y021277D01*
X021905Y021377D01*
X021773Y021431D01*
X021631Y021431D01*
X021500Y021377D01*
X021399Y021277D01*
X021354Y021168D01*
X005548Y021168D01*
X005528Y021174D01*
X005462Y021168D01*
X005395Y021168D01*
X005375Y021160D01*
X005355Y021158D01*
X005296Y021127D01*
X005234Y021101D01*
X005219Y021087D01*
X005201Y021077D01*
X005158Y021026D01*
X005111Y020978D01*
X005103Y020959D01*
X005090Y020943D01*
X005070Y020879D01*
X005044Y020818D01*
X005044Y020797D01*
X005038Y020777D01*
X005044Y020710D01*
X005044Y020644D01*
X005052Y020624D01*
X005375Y017134D01*
X005375Y014436D01*
X005373Y014353D01*
X005375Y014349D01*
X005375Y011921D01*
X005214Y011855D01*
X005091Y011732D01*
X005025Y011571D01*
X005025Y008210D01*
X005024Y008208D01*
X005025Y008123D01*
X005025Y008037D01*
X005025Y008036D01*
X005044Y004883D01*
X005044Y004797D01*
X005045Y004796D01*
X005045Y004794D01*
X005078Y004716D01*
X005111Y004636D01*
X005112Y004635D01*
X005112Y004634D01*
X005173Y004574D01*
X005234Y004513D01*
X005235Y004513D01*
X005236Y004512D01*
X005315Y004479D01*
X005395Y004447D01*
X005396Y004447D01*
X005397Y004446D01*
X005483Y004447D01*
X006165Y004447D01*
X006115Y004396D01*
X006073Y004338D01*
X006040Y004273D01*
X006017Y004204D01*
X006006Y004133D01*
X006006Y004097D01*
X006466Y004097D01*
X006926Y004097D01*
X006926Y004133D01*
X006915Y004204D01*
X006892Y004273D01*
X006859Y004338D01*
X006817Y004396D01*
X006767Y004447D01*
X007984Y004447D01*
X008105Y004397D01*
X008279Y004397D01*
X008400Y004447D01*
X015329Y004447D01*
X015490Y004513D01*
X016353Y005377D01*
X018166Y005377D01*
X018182Y005371D01*
X018252Y005377D01*
X018323Y005377D01*
X018339Y005383D01*
X018355Y005384D01*
X018419Y005416D01*
X018484Y005443D01*
X018496Y005455D01*
X018511Y005462D01*
X018557Y005516D01*
X018607Y005566D01*
X018614Y005582D01*
X018687Y005667D01*
X018685Y005526D01*
X018684Y005523D01*
X018684Y005439D01*
X018682Y005356D01*
X018684Y005352D01*
X018684Y005349D01*
X018716Y005271D01*
X018719Y005262D01*
X018704Y003475D01*
X018703Y003472D01*
X018704Y003388D01*
X018703Y003303D01*
X018704Y003301D01*
X018704Y003298D01*
X018723Y003251D01*
X004440Y003251D01*
X004440Y012334D01*
X004553Y012287D01*
X004717Y012287D01*
X004869Y012349D01*
X004985Y012465D01*
X005048Y012617D01*
X005048Y012781D01*
X004985Y012933D01*
X004869Y013049D01*
X004717Y013112D01*
X004553Y013112D01*
X004440Y013065D01*
X004440Y015483D01*
X004553Y015436D01*
X004717Y015436D01*
X004869Y015499D01*
X004985Y015615D01*
X005048Y015767D01*
X005048Y015931D01*
X004985Y016082D01*
X004869Y016198D01*
X004717Y016261D01*
X004553Y016261D01*
X004440Y016214D01*
X004440Y022462D01*
X023650Y022462D01*
X023650Y011061D01*
X023615Y011146D01*
X023444Y011316D01*
X023221Y011409D01*
X022979Y011409D01*
X022756Y011316D01*
X022695Y011256D02*
X021601Y011256D01*
X021698Y011098D02*
X022565Y011098D01*
X022499Y010939D02*
X021714Y010939D01*
X021710Y010781D02*
X022492Y010781D01*
X022517Y010622D02*
X021708Y010622D01*
X021705Y010464D02*
X022582Y010464D01*
X022737Y010305D02*
X021702Y010305D01*
X021700Y010147D02*
X022586Y010147D01*
X022520Y009988D02*
X021697Y009988D01*
X021694Y009830D02*
X022492Y009830D01*
X022496Y009671D02*
X021691Y009671D01*
X021689Y009513D02*
X022562Y009513D01*
X022688Y009354D02*
X021686Y009354D01*
X021683Y009196D02*
X022635Y009196D01*
X022540Y009037D02*
X021681Y009037D01*
X021678Y008879D02*
X022492Y008879D01*
X022492Y008720D02*
X021675Y008720D01*
X021673Y008562D02*
X022542Y008562D01*
X022639Y008403D02*
X021670Y008403D01*
X021667Y008245D02*
X022684Y008245D01*
X022560Y008086D02*
X021664Y008086D01*
X021662Y007928D02*
X022495Y007928D01*
X022492Y007769D02*
X021659Y007769D01*
X021656Y007611D02*
X022521Y007611D01*
X022590Y007452D02*
X021654Y007452D01*
X021651Y007294D02*
X022733Y007294D01*
X022580Y007135D02*
X021648Y007135D01*
X021667Y006977D02*
X022515Y006977D01*
X022492Y006818D02*
X021680Y006818D01*
X021628Y006660D02*
X022501Y006660D01*
X022567Y006501D02*
X021450Y006501D01*
X020428Y006343D02*
X022700Y006343D01*
X022623Y006184D02*
X019570Y006184D01*
X019568Y006026D02*
X022535Y006026D01*
X022492Y005867D02*
X019565Y005867D01*
X019563Y005709D02*
X022492Y005709D01*
X022546Y005550D02*
X019585Y005550D01*
X019596Y005392D02*
X022651Y005392D01*
X022758Y005233D02*
X021403Y005233D01*
X021711Y005075D02*
X022622Y005075D01*
X022561Y004916D02*
X021869Y004916D01*
X021954Y004758D02*
X022550Y004758D01*
X022587Y004599D02*
X022020Y004599D01*
X022034Y004441D02*
X022683Y004441D01*
X022505Y004282D02*
X022034Y004282D01*
X021994Y004124D02*
X022492Y004124D01*
X022464Y003965D02*
X021929Y003965D01*
X023080Y004441D02*
X023120Y004441D01*
X023120Y004599D02*
X023080Y004599D01*
X023080Y004758D02*
X023120Y004758D01*
X023120Y004821D02*
X023120Y005194D01*
X023080Y005194D01*
X023080Y004821D01*
X023120Y004821D01*
X023120Y004916D02*
X023080Y004916D01*
X023080Y005075D02*
X023120Y005075D01*
X020931Y005233D02*
X019594Y005233D01*
X019593Y005075D02*
X020623Y005075D01*
X020464Y004916D02*
X019591Y004916D01*
X019590Y004758D02*
X020379Y004758D01*
X020314Y004599D02*
X019589Y004599D01*
X019587Y004441D02*
X020299Y004441D01*
X020299Y004282D02*
X019586Y004282D01*
X019585Y004124D02*
X020339Y004124D01*
X020405Y003965D02*
X019583Y003965D01*
X018708Y003965D02*
X017429Y003965D01*
X017402Y003901D02*
X017534Y004219D01*
X017534Y004565D01*
X017402Y004883D01*
X017158Y005127D01*
X016839Y005259D01*
X016494Y005259D01*
X016175Y005127D01*
X015931Y004883D01*
X015799Y004565D01*
X015799Y004219D01*
X015931Y003901D01*
X016175Y003657D01*
X016494Y003525D01*
X016839Y003525D01*
X017158Y003657D01*
X017402Y003901D01*
X017308Y003807D02*
X018707Y003807D01*
X018706Y003648D02*
X017137Y003648D01*
X017494Y004124D02*
X018710Y004124D01*
X018711Y004282D02*
X017534Y004282D01*
X017534Y004441D02*
X018712Y004441D01*
X018714Y004599D02*
X017520Y004599D01*
X017454Y004758D02*
X018715Y004758D01*
X018716Y004916D02*
X017369Y004916D01*
X017211Y005075D02*
X018718Y005075D01*
X018719Y005233D02*
X016903Y005233D01*
X016431Y005233D02*
X016210Y005233D01*
X016123Y005075D02*
X016051Y005075D01*
X015964Y004916D02*
X015893Y004916D01*
X015879Y004758D02*
X015734Y004758D01*
X015814Y004599D02*
X015576Y004599D01*
X015799Y004441D02*
X008385Y004441D01*
X007999Y004441D02*
X006773Y004441D01*
X006888Y004282D02*
X015799Y004282D01*
X015839Y004124D02*
X006926Y004124D01*
X006926Y004097D02*
X006466Y004097D01*
X006466Y004097D01*
X006466Y004097D01*
X006006Y004097D01*
X006006Y004060D01*
X006017Y003989D01*
X006040Y003920D01*
X006073Y003856D01*
X006115Y003797D01*
X006166Y003746D01*
X006225Y003703D01*
X006289Y003670D01*
X006358Y003648D01*
X006430Y003637D01*
X006466Y003637D01*
X006502Y003637D01*
X006574Y003648D01*
X006643Y003670D01*
X006707Y003703D01*
X006766Y003746D01*
X006817Y003797D01*
X006859Y003856D01*
X006892Y003920D01*
X006915Y003989D01*
X006926Y004060D01*
X006926Y004097D01*
X006907Y003965D02*
X015905Y003965D01*
X016025Y003807D02*
X006824Y003807D01*
X006574Y003648D02*
X016196Y003648D01*
X015061Y005322D02*
X008637Y005322D01*
X008567Y005351D01*
X008401Y005351D01*
X008330Y005322D01*
X006760Y005322D01*
X006759Y005323D01*
X006569Y005402D01*
X006363Y005402D01*
X006173Y005323D01*
X006172Y005322D01*
X005917Y005322D01*
X005908Y006777D01*
X005970Y006751D01*
X006175Y006751D01*
X006364Y006830D01*
X006509Y006974D01*
X006587Y007164D01*
X006587Y007368D01*
X006509Y007558D01*
X006364Y007702D01*
X006175Y007781D01*
X005970Y007781D01*
X005902Y007752D01*
X005900Y008030D01*
X005915Y007994D01*
X006033Y007877D01*
X006186Y007813D01*
X006352Y007813D01*
X006506Y007877D01*
X006542Y007913D01*
X009047Y007913D01*
X009084Y007877D01*
X009237Y007813D01*
X009403Y007813D01*
X009557Y007877D01*
X009674Y007994D01*
X009738Y008148D01*
X009738Y008314D01*
X009674Y008467D01*
X009557Y008584D01*
X009403Y008648D01*
X009237Y008648D01*
X009084Y008584D01*
X009047Y008548D01*
X006542Y008548D01*
X006506Y008584D01*
X006421Y008619D01*
X006509Y008707D01*
X006587Y008896D01*
X006587Y009101D01*
X006509Y009290D01*
X006364Y009435D01*
X006175Y009513D01*
X005970Y009513D01*
X005900Y009484D01*
X005900Y010692D01*
X005903Y010685D01*
X005932Y010614D01*
X005933Y010612D01*
X005934Y010611D01*
X005989Y010556D01*
X006044Y010502D01*
X006046Y010501D01*
X006047Y010500D01*
X006119Y010471D01*
X006190Y010441D01*
X006192Y010441D01*
X006194Y010441D01*
X006271Y010441D01*
X006348Y010441D01*
X006350Y010442D01*
X020912Y010578D01*
X020876Y008463D01*
X020788Y008499D01*
X020546Y008499D01*
X020323Y008407D01*
X020167Y008251D01*
X020051Y008367D01*
X019993Y008545D01*
X019781Y008837D01*
X019489Y009049D01*
X019146Y009160D01*
X015434Y009160D01*
X015273Y009094D01*
X015150Y008970D01*
X015084Y008810D01*
X015084Y008636D01*
X015150Y008475D01*
X015273Y008352D01*
X015434Y008285D01*
X017201Y008285D01*
X017152Y008236D01*
X017059Y008013D01*
X017059Y007771D01*
X017152Y007548D01*
X017200Y007499D01*
X016698Y007499D01*
X016559Y007360D01*
X016559Y006424D01*
X016698Y006284D01*
X017635Y006284D01*
X017774Y006424D01*
X017774Y006425D01*
X017823Y006377D01*
X018046Y006284D01*
X018065Y006284D01*
X018036Y006251D01*
X016085Y006251D01*
X015924Y006185D01*
X015801Y006062D01*
X015061Y005322D01*
X015131Y005392D02*
X006593Y005392D01*
X006339Y005392D02*
X005916Y005392D01*
X005915Y005550D02*
X015289Y005550D01*
X015448Y005709D02*
X005914Y005709D01*
X005913Y005867D02*
X015606Y005867D01*
X015765Y006026D02*
X005912Y006026D01*
X005911Y006184D02*
X015923Y006184D01*
X016559Y006501D02*
X005909Y006501D01*
X005910Y006343D02*
X016640Y006343D01*
X016559Y006660D02*
X005908Y006660D01*
X006336Y006818D02*
X016559Y006818D01*
X016559Y006977D02*
X006509Y006977D01*
X006575Y007135D02*
X016559Y007135D01*
X016559Y007294D02*
X006587Y007294D01*
X006552Y007452D02*
X016651Y007452D01*
X017126Y007611D02*
X006456Y007611D01*
X006203Y007769D02*
X017060Y007769D01*
X017059Y007928D02*
X009608Y007928D01*
X009712Y008086D02*
X017090Y008086D01*
X017160Y008245D02*
X009738Y008245D01*
X009701Y008403D02*
X015222Y008403D01*
X015114Y008562D02*
X009580Y008562D01*
X009320Y008231D02*
X006269Y008231D01*
X005982Y007928D02*
X005901Y007928D01*
X005902Y007769D02*
X005942Y007769D01*
X005027Y007769D02*
X004440Y007769D01*
X004440Y007611D02*
X005028Y007611D01*
X005029Y007452D02*
X004440Y007452D01*
X004440Y007294D02*
X005030Y007294D01*
X005031Y007135D02*
X004440Y007135D01*
X004440Y006977D02*
X005032Y006977D01*
X005033Y006818D02*
X004440Y006818D01*
X004440Y006660D02*
X005034Y006660D01*
X005034Y006501D02*
X004440Y006501D01*
X004440Y006343D02*
X005035Y006343D01*
X005036Y006184D02*
X004440Y006184D01*
X004440Y006026D02*
X005037Y006026D01*
X005038Y005867D02*
X004440Y005867D01*
X004440Y005709D02*
X005039Y005709D01*
X005040Y005550D02*
X004440Y005550D01*
X004440Y005392D02*
X005041Y005392D01*
X005042Y005233D02*
X004440Y005233D01*
X004440Y005075D02*
X005043Y005075D01*
X005044Y004916D02*
X004440Y004916D01*
X004440Y004758D02*
X005060Y004758D01*
X005148Y004599D02*
X004440Y004599D01*
X004440Y004441D02*
X006159Y004441D01*
X006044Y004282D02*
X004440Y004282D01*
X004440Y004124D02*
X006006Y004124D01*
X006025Y003965D02*
X004440Y003965D01*
X004440Y003807D02*
X006108Y003807D01*
X006358Y003648D02*
X004440Y003648D01*
X004440Y003490D02*
X018704Y003490D01*
X018703Y003331D02*
X004440Y003331D01*
X006466Y003637D02*
X006466Y004097D01*
X006466Y003637D01*
X006466Y003648D02*
X006466Y003648D01*
X006466Y003807D02*
X006466Y003807D01*
X006466Y003965D02*
X006466Y003965D01*
X006466Y004097D02*
X006466Y004097D01*
X005026Y007928D02*
X004440Y007928D01*
X004440Y008086D02*
X005025Y008086D01*
X005025Y008245D02*
X004440Y008245D01*
X004440Y008403D02*
X005025Y008403D01*
X005025Y008562D02*
X004440Y008562D01*
X004440Y008720D02*
X005025Y008720D01*
X005025Y008879D02*
X004440Y008879D01*
X004440Y009037D02*
X005025Y009037D01*
X005025Y009196D02*
X004440Y009196D01*
X004440Y009354D02*
X005025Y009354D01*
X005025Y009513D02*
X004440Y009513D01*
X004440Y009671D02*
X005025Y009671D01*
X005025Y009830D02*
X004440Y009830D01*
X004440Y009988D02*
X005025Y009988D01*
X005025Y010147D02*
X004440Y010147D01*
X004440Y010305D02*
X005025Y010305D01*
X005025Y010464D02*
X004440Y010464D01*
X004440Y010622D02*
X005025Y010622D01*
X005025Y010781D02*
X004440Y010781D01*
X004440Y010939D02*
X005025Y010939D01*
X005025Y011098D02*
X004440Y011098D01*
X004440Y011256D02*
X005025Y011256D01*
X005025Y011415D02*
X004440Y011415D01*
X004440Y011573D02*
X005026Y011573D01*
X005091Y011732D02*
X004440Y011732D01*
X004440Y011890D02*
X005299Y011890D01*
X005375Y012049D02*
X004440Y012049D01*
X004440Y012207D02*
X005375Y012207D01*
X005375Y012366D02*
X004885Y012366D01*
X005009Y012524D02*
X005375Y012524D01*
X005375Y012683D02*
X005048Y012683D01*
X005023Y012841D02*
X005375Y012841D01*
X005375Y013000D02*
X004918Y013000D01*
X005375Y013158D02*
X004440Y013158D01*
X004440Y013317D02*
X005375Y013317D01*
X005375Y013475D02*
X004440Y013475D01*
X004440Y013634D02*
X005375Y013634D01*
X005375Y013792D02*
X004440Y013792D01*
X004440Y013951D02*
X005375Y013951D01*
X005375Y014109D02*
X004440Y014109D01*
X004440Y014268D02*
X005375Y014268D01*
X005375Y014426D02*
X004440Y014426D01*
X004440Y014585D02*
X005375Y014585D01*
X005375Y014743D02*
X004440Y014743D01*
X004440Y014902D02*
X005375Y014902D01*
X005375Y015060D02*
X004440Y015060D01*
X004440Y015219D02*
X005375Y015219D01*
X005375Y015377D02*
X004440Y015377D01*
X004905Y015536D02*
X005375Y015536D01*
X005375Y015694D02*
X005018Y015694D01*
X005048Y015853D02*
X005375Y015853D01*
X005375Y016011D02*
X005014Y016011D01*
X004898Y016170D02*
X005375Y016170D01*
X005375Y016328D02*
X004440Y016328D01*
X004440Y016487D02*
X005375Y016487D01*
X005375Y016645D02*
X004440Y016645D01*
X004440Y016804D02*
X005375Y016804D01*
X005375Y016962D02*
X004440Y016962D01*
X004440Y017121D02*
X005375Y017121D01*
X005361Y017279D02*
X004440Y017279D01*
X004440Y017438D02*
X005347Y017438D01*
X005332Y017596D02*
X004440Y017596D01*
X004440Y017755D02*
X005317Y017755D01*
X005303Y017913D02*
X004440Y017913D01*
X004440Y018072D02*
X005288Y018072D01*
X005273Y018230D02*
X004440Y018230D01*
X004440Y018389D02*
X005259Y018389D01*
X005244Y018547D02*
X004440Y018547D01*
X004440Y018706D02*
X005229Y018706D01*
X005215Y018864D02*
X004440Y018864D01*
X004440Y019023D02*
X005200Y019023D01*
X005186Y019181D02*
X004440Y019181D01*
X004440Y019340D02*
X005171Y019340D01*
X005156Y019498D02*
X004440Y019498D01*
X004440Y019657D02*
X005142Y019657D01*
X005127Y019815D02*
X004440Y019815D01*
X004440Y019974D02*
X005112Y019974D01*
X005098Y020132D02*
X004440Y020132D01*
X004440Y020291D02*
X005083Y020291D01*
X005068Y020449D02*
X004440Y020449D01*
X004440Y020608D02*
X005054Y020608D01*
X005039Y020766D02*
X004440Y020766D01*
X004440Y020925D02*
X005084Y020925D01*
X005212Y021083D02*
X004440Y021083D01*
X004440Y021242D02*
X021385Y021242D01*
X021555Y021400D02*
X004440Y021400D01*
X004440Y021559D02*
X023650Y021559D01*
X023650Y021717D02*
X004440Y021717D01*
X004440Y021876D02*
X023650Y021876D01*
X023650Y022034D02*
X004440Y022034D01*
X004440Y022193D02*
X023650Y022193D01*
X023650Y022351D02*
X004440Y022351D01*
X007454Y014268D02*
X007550Y014268D01*
X007454Y014109D02*
X007709Y014109D01*
X007867Y013951D02*
X007454Y013951D01*
X007454Y013792D02*
X008026Y013792D01*
X008184Y013634D02*
X007454Y013634D01*
X007454Y013475D02*
X008343Y013475D01*
X008501Y013317D02*
X007454Y013317D01*
X007454Y013158D02*
X008660Y013158D01*
X008818Y013000D02*
X007454Y013000D01*
X006750Y012207D02*
X006667Y012207D01*
X006667Y012049D02*
X009677Y012049D01*
X009849Y012049D02*
X012495Y012049D01*
X012455Y011890D02*
X006667Y011890D01*
X006667Y011732D02*
X012455Y011732D01*
X012511Y011573D02*
X006667Y011573D01*
X006667Y011415D02*
X012619Y011415D01*
X012579Y012207D02*
X010095Y012207D01*
X010173Y012366D02*
X012766Y012366D01*
X013474Y012524D02*
X010179Y012524D01*
X010122Y012683D02*
X013632Y012683D01*
X013791Y012841D02*
X009936Y012841D01*
X009806Y013000D02*
X013949Y013000D01*
X013853Y013158D02*
X009964Y013158D01*
X010123Y013317D02*
X013738Y013317D01*
X013715Y013475D02*
X010281Y013475D01*
X010440Y013634D02*
X013764Y013634D01*
X013978Y013792D02*
X010598Y013792D01*
X008388Y011256D02*
X006667Y011256D01*
X005929Y010622D02*
X005900Y010622D01*
X005900Y010464D02*
X006136Y010464D01*
X005900Y010305D02*
X020907Y010305D01*
X020905Y010147D02*
X005900Y010147D01*
X005900Y009988D02*
X020902Y009988D01*
X020899Y009830D02*
X005900Y009830D01*
X005900Y009671D02*
X020896Y009671D01*
X020894Y009513D02*
X006176Y009513D01*
X005969Y009513D02*
X005900Y009513D01*
X006444Y009354D02*
X020891Y009354D01*
X020888Y009196D02*
X006548Y009196D01*
X006587Y009037D02*
X015217Y009037D01*
X015112Y008879D02*
X006580Y008879D01*
X006514Y008720D02*
X015084Y008720D01*
X017693Y006343D02*
X017906Y006343D01*
X018591Y005550D02*
X018685Y005550D01*
X018683Y005392D02*
X018370Y005392D01*
X019573Y006343D02*
X019906Y006343D01*
X019699Y006501D02*
X019635Y006501D01*
X020039Y008403D02*
X020319Y008403D01*
X019993Y008545D02*
X019993Y008545D01*
X019981Y008562D02*
X020877Y008562D01*
X020880Y008720D02*
X019866Y008720D01*
X019781Y008837D02*
X019781Y008837D01*
X019781Y008837D01*
X019723Y008879D02*
X020883Y008879D01*
X020886Y009037D02*
X019505Y009037D01*
X020910Y010464D02*
X008656Y010464D01*
X009061Y008562D02*
X006529Y008562D01*
X014166Y013792D02*
X015595Y013792D01*
X015485Y013634D02*
X014381Y013634D01*
X014430Y013475D02*
X015465Y013475D01*
X015517Y013317D02*
X014578Y013317D01*
X014649Y013246D02*
X014649Y013246D01*
X014736Y013158D02*
X015747Y013158D01*
X015958Y013000D02*
X014895Y013000D01*
X015053Y012841D02*
X018142Y012841D01*
X018248Y012683D02*
X017439Y012683D01*
X017510Y012524D02*
X018534Y012524D01*
X018692Y012366D02*
X017498Y012366D01*
X017401Y012207D02*
X018851Y012207D01*
X017922Y011573D02*
X023650Y011573D01*
X023650Y011415D02*
X017930Y011415D01*
X017830Y011732D02*
X023650Y011732D01*
X023650Y011890D02*
X017482Y011890D01*
X017274Y012049D02*
X021052Y012049D01*
X021512Y012049D02*
X023650Y012049D01*
X023650Y012207D02*
X021621Y012207D01*
X021990Y012366D02*
X023650Y012366D01*
X023650Y012524D02*
X022067Y012524D01*
X022070Y012683D02*
X022577Y012683D01*
X022835Y012683D02*
X023650Y012683D01*
X023650Y012841D02*
X023063Y012841D01*
X023137Y013000D02*
X023650Y013000D01*
X023650Y013158D02*
X023144Y013158D01*
X023144Y013317D02*
X023650Y013317D01*
X023650Y013475D02*
X023144Y013475D01*
X023144Y013634D02*
X023650Y013634D01*
X023650Y013792D02*
X023144Y013792D01*
X023144Y013951D02*
X023650Y013951D01*
X023650Y014109D02*
X023144Y014109D01*
X023144Y014268D02*
X023650Y014268D01*
X023650Y014426D02*
X023144Y014426D01*
X023144Y014585D02*
X023650Y014585D01*
X023650Y014743D02*
X023144Y014743D01*
X023144Y014902D02*
X023650Y014902D01*
X023650Y015060D02*
X023144Y015060D01*
X023144Y015219D02*
X023650Y015219D01*
X023650Y015377D02*
X023144Y015377D01*
X023144Y015536D02*
X023650Y015536D01*
X023650Y015694D02*
X023144Y015694D01*
X023144Y015853D02*
X023650Y015853D01*
X023650Y016011D02*
X023144Y016011D01*
X023144Y016170D02*
X023650Y016170D01*
X023650Y016328D02*
X023144Y016328D01*
X023144Y016487D02*
X023650Y016487D01*
X023650Y016645D02*
X023144Y016645D01*
X023144Y016804D02*
X023650Y016804D01*
X023650Y016962D02*
X023144Y016962D01*
X023144Y017121D02*
X023650Y017121D01*
X023650Y017279D02*
X023144Y017279D01*
X023144Y017438D02*
X023650Y017438D01*
X023650Y017596D02*
X023144Y017596D01*
X023144Y017755D02*
X023650Y017755D01*
X023650Y017913D02*
X023144Y017913D01*
X023144Y018072D02*
X023650Y018072D01*
X023650Y018230D02*
X023144Y018230D01*
X023144Y018389D02*
X023650Y018389D01*
X023650Y018547D02*
X023144Y018547D01*
X023144Y018706D02*
X023650Y018706D01*
X023650Y018864D02*
X023144Y018864D01*
X023144Y019023D02*
X023650Y019023D01*
X023650Y019181D02*
X023144Y019181D01*
X023144Y019340D02*
X023650Y019340D01*
X023650Y019498D02*
X023144Y019498D01*
X023144Y019657D02*
X023650Y019657D01*
X023650Y019815D02*
X023144Y019815D01*
X023144Y019974D02*
X023650Y019974D01*
X023650Y020132D02*
X023144Y020132D01*
X023144Y020291D02*
X023650Y020291D01*
X023650Y020449D02*
X023144Y020449D01*
X023144Y020608D02*
X023650Y020608D01*
X023650Y020766D02*
X023144Y020766D01*
X023099Y020925D02*
X023650Y020925D01*
X023650Y021083D02*
X022972Y021083D01*
X023650Y021242D02*
X022020Y021242D01*
X021849Y021400D02*
X023650Y021400D01*
X022269Y020291D02*
X021801Y020291D01*
X021904Y020132D02*
X022269Y020132D01*
X022269Y019974D02*
X021922Y019974D01*
X021922Y019815D02*
X022269Y019815D01*
X022269Y019657D02*
X021922Y019657D01*
X021922Y019498D02*
X022269Y019498D01*
X022269Y019340D02*
X021922Y019340D01*
X021922Y019181D02*
X022269Y019181D01*
X022269Y019023D02*
X021922Y019023D01*
X021922Y018864D02*
X022269Y018864D01*
X022269Y018706D02*
X021922Y018706D01*
X021922Y018547D02*
X022269Y018547D01*
X022269Y018389D02*
X021922Y018389D01*
X021922Y018230D02*
X022269Y018230D01*
X022269Y018072D02*
X021922Y018072D01*
X021922Y017913D02*
X022269Y017913D01*
X022269Y017755D02*
X021922Y017755D01*
X021922Y017596D02*
X022269Y017596D01*
X022269Y017438D02*
X021922Y017438D01*
X021922Y017279D02*
X022269Y017279D01*
X022269Y017121D02*
X021922Y017121D01*
X021922Y016962D02*
X022269Y016962D01*
X022269Y016804D02*
X021922Y016804D01*
X021922Y016645D02*
X022269Y016645D01*
X022269Y016487D02*
X021922Y016487D01*
X021922Y016328D02*
X022269Y016328D01*
X022269Y016170D02*
X021922Y016170D01*
X021922Y016011D02*
X022269Y016011D01*
X022269Y015853D02*
X021922Y015853D01*
X021922Y015694D02*
X022269Y015694D01*
X022269Y015536D02*
X021922Y015536D01*
X021922Y015377D02*
X022269Y015377D01*
X022269Y015219D02*
X021922Y015219D01*
X021922Y015060D02*
X022269Y015060D01*
X022269Y014902D02*
X021922Y014902D01*
X021922Y014743D02*
X022269Y014743D01*
X022269Y014585D02*
X021922Y014585D01*
X021922Y014426D02*
X022269Y014426D01*
X022269Y014268D02*
X021922Y014268D01*
X021922Y014109D02*
X022269Y014109D01*
X022269Y013951D02*
X021922Y013951D01*
X021922Y013792D02*
X022269Y013792D01*
X022269Y013634D02*
X021922Y013634D01*
X021922Y013475D02*
X022269Y013475D01*
X022269Y013317D02*
X021922Y013317D01*
X021922Y013158D02*
X022269Y013158D01*
X022275Y013000D02*
X021922Y013000D01*
X022004Y012841D02*
X022349Y012841D01*
X023504Y011256D02*
X023650Y011256D01*
X023635Y011098D02*
X023650Y011098D01*
X019823Y013475D02*
X016239Y013475D01*
X016160Y013634D02*
X019664Y013634D01*
X019506Y013792D02*
X016050Y013792D01*
X016330Y014426D02*
X018872Y014426D01*
X019030Y014268D02*
X014990Y014268D01*
X014947Y014109D02*
X019189Y014109D01*
X019347Y013951D02*
X014761Y013951D01*
X015690Y014902D02*
X015794Y014902D01*
X016270Y014902D02*
X018396Y014902D01*
X018555Y014743D02*
X016374Y014743D01*
X016390Y014585D02*
X018713Y014585D01*
D24*
X014562Y009314D03*
X015542Y008194D03*
X015542Y007844D03*
X010712Y007844D03*
X009763Y012463D03*
M02*
